<svg width="9839" height="4167" viewBox="0 0 9839 4167" fill="none" xmlns="http://www.w3.org/2000/svg">
<g clip-path="url(#clip0_1_395)">
<g filter="url(#filter0_f_1_395)">
<path d="M6022 327.263C6022 1255.1 2005.84 800.263 1078 800.263C150.162 800.263 -1114 2647.1 -1114 1719.26C-1114 791.426 150.162 -280.737 1078 -280.737C2005.84 -280.737 6022 -600.575 6022 327.263Z" fill="#11B181"/>
</g>
<g style="mix-blend-mode:hard-light" filter="url(#filter1_f_1_395)">
<path d="M10758.9 735.499C10618.1 1597.09 6032.68 414.127 4957.38 238.408C3882.09 62.6898 2136.77 1538.25 2277.56 676.661C2418.36 -184.93 4046.12 -941.127 5121.42 -765.408C6196.72 -589.69 10899.7 -126.092 10758.9 735.499Z" fill="#059425"/>
</g>
<g style="mix-blend-mode:screen" filter="url(#filter2_f_1_395)">
<path d="M10758.9 735.499C10618.1 1597.09 5128.34 266.345 3844.12 56.4852C2559.9 -153.375 529.92 1275.67 670.716 414.08C811.513 -447.511 2723.94 -1157.19 4008.16 -947.331C5292.38 -737.471 10899.7 -126.092 10758.9 735.499Z" fill="#059425"/>
</g>
<g style="mix-blend-mode:color-dodge" filter="url(#filter3_f_1_395)">
<path d="M8697 323.526C8697 1044.07 3561.42 690.85 2374.97 690.85C1188.52 690.85 -428 2125.08 -428 1404.53C-428 683.987 1188.52 -148.637 2374.97 -148.637C3561.42 -148.637 8697 -397.018 8697 323.526Z" fill="#116EB1"/>
</g>
<g style="mix-blend-mode:screen" filter="url(#filter4_f_1_395)">
<path d="M94 877.872C254 739.206 746.8 468.272 1438 493.872C2302 525.872 2542 1117.87 3310 877.872C4078 637.872 4302 -306.128 5262 -178.128" stroke="#64FFEB" stroke-width="90"/>
</g>
<g style="mix-blend-mode:color-burn" filter="url(#filter5_f_1_395)">
<ellipse cx="5745" cy="404.5" rx="7052" ry="1074.5" fill="url(#paint0_linear_1_395)"/>
</g>
<g style="mix-blend-mode:color-burn" filter="url(#filter6_f_1_395)">
<path d="M11501.9 1083.46C11209.9 2870.29 4378.89 854.686 2767.68 591.391C1156.47 328.096 -1619.98 3526 -1327.99 1739.17C-1035.99 -47.6571 1496.66 -1753.69 3107.87 -1490.4C4719.09 -1227.1 11793.9 -703.369 11501.9 1083.46Z" fill="#099250"/>
</g>
<g style="mix-blend-mode:screen" filter="url(#filter7_f_1_395)">
<path d="M11920.6 879.366C11744.4 2581.23 4315.8 968.902 2579.65 789.151C843.504 609.401 -1872.69 3752.02 -1696.49 2050.15C-1520.29 348.285 1048.79 -1373.4 2784.94 -1193.65C4521.09 -1013.9 12096.8 -822.499 11920.6 879.366Z" fill="#056994"/>
</g>
<g style="mix-blend-mode:screen" filter="url(#filter8_f_1_395)">
<path d="M11651.6 879.366C11475.4 2581.23 4046.8 968.902 2310.65 789.151C574.504 609.401 -2141.69 3752.02 -1965.49 2050.15C-1789.29 348.285 779.791 -1373.4 2515.94 -1193.65C4252.09 -1013.9 11827.8 -822.499 11651.6 879.366Z" fill="#056994"/>
</g>
<g style="mix-blend-mode:screen" filter="url(#filter9_f_1_395)">
<path d="M9902 -201C9210.8 -1225 2371.33 -510.333 -962 -24.9999L-1554 1495C-1122 2193.67 270 3418.2 2382 2727C5022 1863 5694 1303 10494 2055C15294 2807 10766 1079 9902 -201Z" fill="#5339B9"/>
</g>
<g style="mix-blend-mode:soft-light" filter="url(#filter10_f_1_395)">
<path d="M9902 -201C9210.8 -1225 2371.33 -510.333 -962 -24.9999L-1554 1495C-1122 2193.67 270 3418.2 2382 2727C5022 1863 5694 1303 10494 2055C15294 2807 10766 1079 9902 -201Z" fill="#503C9E"/>
</g>
<g style="mix-blend-mode:overlay" filter="url(#filter11_f_1_395)">
<path d="M9379.57 -149.23C8557.71 -1442.78 425.355 -539.988 -3538.09 73.0983L-4242 1993.2C-3728.34 2875.78 -2073.2 4422.64 438.038 3549.5C3577.09 2458.07 4376.12 1750.66 10083.5 2700.61C15790.8 3650.56 10406.9 1467.7 9379.57 -149.23Z" fill="#317C46"/>
</g>
<path fill-rule="evenodd" clip-rule="evenodd" d="M2682.88 2355.1L2682.61 2355.1L2682.34 2355.1L2682.61 2355.1L2682.88 2355.1ZM2678.18 2355.03C2679.56 2355.07 2680.95 2355.09 2682.34 2355.1C2680.95 2355.1 2679.56 2355.12 2678.18 2355.16C2678.18 2355.12 2678.18 2355.08 2678.18 2355.03ZM2825.57 2510.97C2825.92 2506.89 2826.1 2502.76 2826.1 2498.58C2826.1 2419.43 2762 2355.24 2682.88 2355.1C2762 2354.95 2826.1 2290.77 2826.1 2211.61C2826.1 2210.13 2826.07 2208.65 2826.03 2207.18C2826.07 2207.18 2826.12 2207.18 2826.16 2207.18C2826.12 2208.65 2826.1 2210.13 2826.1 2211.61C2826.1 2290.77 2890.19 2354.95 2969.32 2355.1C2890.19 2355.24 2826.1 2419.43 2826.1 2498.58C2826.1 2502.77 2826.28 2506.91 2826.63 2511C2826.27 2510.99 2825.92 2510.98 2825.57 2510.97ZM2982 2355.63C2981.99 2355.27 2981.98 2354.92 2981.97 2354.57C2977.98 2354.91 2973.93 2355.09 2969.85 2355.1L2969.58 2355.1L2969.32 2355.1L2969.58 2355.1L2969.85 2355.1C2973.94 2355.1 2977.99 2355.28 2982 2355.63Z" fill="white"/>
<g style="mix-blend-mode:screen" filter="url(#filter12_f_1_395)">
<path d="M-138 1025.28C77.6822 1400.53 930.52 2067.02 2616.41 1730.94C4723.78 1310.83 3273.1 209.216 5570.86 506.512C7868.61 803.808 7959.67 1130.78 8710.18 452.001C9310.58 -91.0202 9877.79 331.968 10086.3 611.339" stroke="#A9D1FF" stroke-width="90"/>
</g>
<g style="mix-blend-mode:screen" filter="url(#filter13_f_1_395)">
<path d="M-138 1025.28C77.6822 1400.53 930.52 2067.02 2616.41 1730.94C4723.78 1310.83 3273.1 209.216 5570.86 506.512C7868.61 803.808 7959.67 1130.78 8710.18 452.001C9310.58 -91.0202 9877.79 331.968 10086.3 611.339" stroke="#05FF00" stroke-width="90"/>
</g>
<g style="mix-blend-mode:soft-light" filter="url(#filter14_f_1_395)">
<path d="M-138 1025.28C77.6822 1400.53 930.52 2067.02 2616.41 1730.94C4723.78 1310.83 3273.1 209.216 5570.86 506.512C7868.61 803.808 7959.67 1130.78 8710.18 452.001C9310.58 -91.0202 9877.79 331.968 10086.3 611.339" stroke="#5934ED" stroke-width="90"/>
</g>
<g style="mix-blend-mode:screen" filter="url(#filter15_f_1_395)">
<path d="M0 -170C173.625 440.98 993.997 1625.78 2886.49 1477.15C5252.1 1291.36 3851.4 -675.663 6307.04 259.523C8762.69 1194.71 8808.39 1706.52 9737.52 843.303C10480.8 152.728 11029.8 910.169 11211.3 1375.21" stroke="#1970D6" stroke-width="90"/>
</g>
<g style="mix-blend-mode:overlay" filter="url(#filter16_f_1_395)">
<path d="M-23.1514 563C150.473 1173.98 970.845 2358.78 2863.34 2210.15C5228.95 2024.36 3828.25 57.3367 6283.89 992.523C8739.54 1927.71 8785.24 2439.52 9714.37 1576.3C10457.7 885.728 11006.6 1643.17 11188.2 2108.21" stroke="white" stroke-width="90"/>
</g>
<g style="mix-blend-mode:lighten" filter="url(#filter17_f_1_395)">
<path d="M-223.351 -214.542C-140.558 368.102 505.014 1579.42 2424.96 1763.55C4824.89 1993.71 3714.28 -23.8598 6036.96 1236.8C8359.64 2497.45 7787.5 126.042 8990 391C9934 599 10557.6 -229.094 10670.1 222.702" stroke="#FB0B0B" stroke-width="90"/>
</g>
<g style="mix-blend-mode:soft-light" filter="url(#filter18_f_1_395)">
<path d="M-223.351 -887.844C-140.558 -305.201 505.014 906.119 2424.96 1090.25C4824.89 1320.41 3714.28 -697.163 6036.96 563.495C8359.64 1824.15 7787.5 -547.261 8990 -282.303C9934 -74.3026 10557.6 -902.396 10670.1 -450.601" stroke="#C4F8BB" stroke-width="90"/>
</g>
<g style="mix-blend-mode:color-burn" filter="url(#filter19_f_1_395)">
<path d="M136.087 -170C272.878 240.638 976.224 1063.34 2695.28 1069.06C4844.1 1076.21 3641.33 -291.771 5834.15 456.307C8026.96 1204.38 8051.21 1542.93 8921.67 1026.87C9618.03 614.025 10089.8 1141.31 10238.7 1456.57" stroke="#A3189D" stroke-width="90"/>
</g>
<g style="mix-blend-mode:color-burn" filter="url(#filter20_bf_1_395)">
<path d="M136.087 721C272.878 1131.64 976.224 1954.34 2695.28 1960.06C4844.1 1967.21 3641.33 599.229 5834.15 1347.31C8026.96 2095.38 8051.21 2433.93 8921.67 1917.87C9618.03 1505.03 10089.8 2032.31 10238.7 2347.57" stroke="#45DE8B" stroke-width="90"/>
</g>
<g style="mix-blend-mode:lighten" filter="url(#filter21_bf_1_395)">
<path d="M136.087 178C272.878 588.638 976.224 1411.34 2695.28 1417.06C4844.1 1424.21 3641.33 56.2294 5834.15 804.307C8026.96 1552.38 8051.21 1890.93 8921.67 1374.87C9618.03 962.025 10089.8 1489.31 10238.7 1804.57" stroke="#FF7AEA" stroke-width="90"/>
</g>
<g style="mix-blend-mode:color-dodge" filter="url(#filter22_bf_1_395)">
<path d="M320 -299.474C489.779 98.66 1257.79 861.353 2971.6 727.054C5113.86 559.182 3803.68 -706.303 6050.14 -139.291C8296.6 427.722 8348.33 763.166 9173.87 177.935C9834.29 -290.251 10347.5 196.863 10521.5 498.943" stroke="#B91E84" stroke-width="90"/>
</g>
</g>
<defs>
<filter id="filter0_f_1_395" x="-2314" y="-1534" width="9536" height="4713.98" filterUnits="userSpaceOnUse" color-interpolation-filters="sRGB">
<feFlood flood-opacity="0" result="BackgroundImageFix"/>
<feBlend mode="normal" in="SourceGraphic" in2="BackgroundImageFix" result="shape"/>
<feGaussianBlur stdDeviation="600" result="effect1_foregroundBlur_1_395"/>
</filter>
<filter id="filter1_f_1_395" x="1069.54" y="-1991" width="10892.4" height="4237.55" filterUnits="userSpaceOnUse" color-interpolation-filters="sRGB">
<feFlood flood-opacity="0" result="BackgroundImageFix"/>
<feBlend mode="normal" in="SourceGraphic" in2="BackgroundImageFix" result="shape"/>
<feGaussianBlur stdDeviation="600" result="effect1_foregroundBlur_1_395"/>
</filter>
<filter id="filter2_f_1_395" x="-536.235" y="-2184.48" width="12497.7" height="4407.29" filterUnits="userSpaceOnUse" color-interpolation-filters="sRGB">
<feFlood flood-opacity="0" result="BackgroundImageFix"/>
<feBlend mode="normal" in="SourceGraphic" in2="BackgroundImageFix" result="shape"/>
<feGaussianBlur stdDeviation="600" result="effect1_foregroundBlur_1_395"/>
</filter>
<filter id="filter3_f_1_395" x="-1628" y="-1390" width="11525" height="4197" filterUnits="userSpaceOnUse" color-interpolation-filters="sRGB">
<feFlood flood-opacity="0" result="BackgroundImageFix"/>
<feBlend mode="normal" in="SourceGraphic" in2="BackgroundImageFix" result="shape"/>
<feGaussianBlur stdDeviation="600" result="effect1_foregroundBlur_1_395"/>
</filter>
<filter id="filter4_f_1_395" x="-255.472" y="-555.006" width="5843.42" height="1854.99" filterUnits="userSpaceOnUse" color-interpolation-filters="sRGB">
<feFlood flood-opacity="0" result="BackgroundImageFix"/>
<feBlend mode="normal" in="SourceGraphic" in2="BackgroundImageFix" result="shape"/>
<feGaussianBlur stdDeviation="160" result="effect1_foregroundBlur_1_395"/>
</filter>
<filter id="filter5_f_1_395" x="-1707" y="-1070" width="14904" height="2949" filterUnits="userSpaceOnUse" color-interpolation-filters="sRGB">
<feFlood flood-opacity="0" result="BackgroundImageFix"/>
<feBlend mode="normal" in="SourceGraphic" in2="BackgroundImageFix" result="shape"/>
<feGaussianBlur stdDeviation="200" result="effect1_foregroundBlur_1_395"/>
</filter>
<filter id="filter6_f_1_395" x="-2549.31" y="-2717.39" width="15260" height="6202.02" filterUnits="userSpaceOnUse" color-interpolation-filters="sRGB">
<feFlood flood-opacity="0" result="BackgroundImageFix"/>
<feBlend mode="normal" in="SourceGraphic" in2="BackgroundImageFix" result="shape"/>
<feGaussianBlur stdDeviation="600" result="effect1_foregroundBlur_1_395"/>
</filter>
<filter id="filter7_f_1_395" x="-2904.65" y="-2406.6" width="16028.3" height="6163.81" filterUnits="userSpaceOnUse" color-interpolation-filters="sRGB">
<feFlood flood-opacity="0" result="BackgroundImageFix"/>
<feBlend mode="normal" in="SourceGraphic" in2="BackgroundImageFix" result="shape"/>
<feGaussianBlur stdDeviation="600" result="effect1_foregroundBlur_1_395"/>
</filter>
<filter id="filter8_f_1_395" x="-3173.65" y="-2406.6" width="16028.3" height="6163.81" filterUnits="userSpaceOnUse" color-interpolation-filters="sRGB">
<feFlood flood-opacity="0" result="BackgroundImageFix"/>
<feBlend mode="normal" in="SourceGraphic" in2="BackgroundImageFix" result="shape"/>
<feGaussianBlur stdDeviation="600" result="effect1_foregroundBlur_1_395"/>
</filter>
<filter id="filter9_f_1_395" x="-3554" y="-2723.29" width="18219.9" height="7654.92" filterUnits="userSpaceOnUse" color-interpolation-filters="sRGB">
<feFlood flood-opacity="0" result="BackgroundImageFix"/>
<feBlend mode="normal" in="SourceGraphic" in2="BackgroundImageFix" result="shape"/>
<feGaussianBlur stdDeviation="1000" result="effect1_foregroundBlur_1_395"/>
</filter>
<filter id="filter10_f_1_395" x="-3554" y="-2723.29" width="18219.9" height="7654.92" filterUnits="userSpaceOnUse" color-interpolation-filters="sRGB">
<feFlood flood-opacity="0" result="BackgroundImageFix"/>
<feBlend mode="normal" in="SourceGraphic" in2="BackgroundImageFix" result="shape"/>
<feGaussianBlur stdDeviation="1000" result="effect1_foregroundBlur_1_395"/>
</filter>
<filter id="filter11_f_1_395" x="-6242" y="-2809" width="20908" height="8617" filterUnits="userSpaceOnUse" color-interpolation-filters="sRGB">
<feFlood flood-opacity="0" result="BackgroundImageFix"/>
<feBlend mode="normal" in="SourceGraphic" in2="BackgroundImageFix" result="shape"/>
<feGaussianBlur stdDeviation="1000" result="effect1_foregroundBlur_1_395"/>
</filter>
<filter id="filter12_f_1_395" x="-577.015" y="-255.745" width="11099.4" height="2523.49" filterUnits="userSpaceOnUse" color-interpolation-filters="sRGB">
<feFlood flood-opacity="0" result="BackgroundImageFix"/>
<feBlend mode="normal" in="SourceGraphic" in2="BackgroundImageFix" result="shape"/>
<feGaussianBlur stdDeviation="200" result="effect1_foregroundBlur_1_395"/>
</filter>
<filter id="filter13_f_1_395" x="-577.015" y="-255.745" width="11099.4" height="2523.49" filterUnits="userSpaceOnUse" color-interpolation-filters="sRGB">
<feFlood flood-opacity="0" result="BackgroundImageFix"/>
<feBlend mode="normal" in="SourceGraphic" in2="BackgroundImageFix" result="shape"/>
<feGaussianBlur stdDeviation="200" result="effect1_foregroundBlur_1_395"/>
</filter>
<filter id="filter14_f_1_395" x="-577.015" y="-255.745" width="11099.4" height="2523.49" filterUnits="userSpaceOnUse" color-interpolation-filters="sRGB">
<feFlood flood-opacity="0" result="BackgroundImageFix"/>
<feBlend mode="normal" in="SourceGraphic" in2="BackgroundImageFix" result="shape"/>
<feGaussianBlur stdDeviation="200" result="effect1_foregroundBlur_1_395"/>
</filter>
<filter id="filter15_f_1_395" x="-443.286" y="-582.301" width="12096.5" height="2517.24" filterUnits="userSpaceOnUse" color-interpolation-filters="sRGB">
<feFlood flood-opacity="0" result="BackgroundImageFix"/>
<feBlend mode="normal" in="SourceGraphic" in2="BackgroundImageFix" result="shape"/>
<feGaussianBlur stdDeviation="200" result="effect1_foregroundBlur_1_395"/>
</filter>
<filter id="filter16_f_1_395" x="-466.438" y="150.699" width="12096.5" height="2517.24" filterUnits="userSpaceOnUse" color-interpolation-filters="sRGB">
<feFlood flood-opacity="0" result="BackgroundImageFix"/>
<feBlend mode="normal" in="SourceGraphic" in2="BackgroundImageFix" result="shape"/>
<feGaussianBlur stdDeviation="200" result="effect1_foregroundBlur_1_395"/>
</filter>
<filter id="filter17_f_1_395" x="-667.903" y="-620.873" width="11781.7" height="2847.92" filterUnits="userSpaceOnUse" color-interpolation-filters="sRGB">
<feFlood flood-opacity="0" result="BackgroundImageFix"/>
<feBlend mode="normal" in="SourceGraphic" in2="BackgroundImageFix" result="shape"/>
<feGaussianBlur stdDeviation="200" result="effect1_foregroundBlur_1_395"/>
</filter>
<filter id="filter18_f_1_395" x="-667.903" y="-1294.18" width="11781.7" height="2847.92" filterUnits="userSpaceOnUse" color-interpolation-filters="sRGB">
<feFlood flood-opacity="0" result="BackgroundImageFix"/>
<feBlend mode="normal" in="SourceGraphic" in2="BackgroundImageFix" result="shape"/>
<feGaussianBlur stdDeviation="200" result="effect1_foregroundBlur_1_395"/>
</filter>
<filter id="filter19_f_1_395" x="-306.606" y="-584.222" width="10986" height="2460" filterUnits="userSpaceOnUse" color-interpolation-filters="sRGB">
<feFlood flood-opacity="0" result="BackgroundImageFix"/>
<feBlend mode="normal" in="SourceGraphic" in2="BackgroundImageFix" result="shape"/>
<feGaussianBlur stdDeviation="200" result="effect1_foregroundBlur_1_395"/>
</filter>
<filter id="filter20_bf_1_395" x="-306.606" y="306.778" width="10986" height="2460" filterUnits="userSpaceOnUse" color-interpolation-filters="sRGB">
<feFlood flood-opacity="0" result="BackgroundImageFix"/>
<feGaussianBlur in="BackgroundImageFix" stdDeviation="150"/>
<feComposite in2="SourceAlpha" operator="in" result="effect1_backgroundBlur_1_395"/>
<feBlend mode="normal" in="SourceGraphic" in2="effect1_backgroundBlur_1_395" result="shape"/>
<feGaussianBlur stdDeviation="200" result="effect2_foregroundBlur_1_395"/>
</filter>
<filter id="filter21_bf_1_395" x="-306.606" y="-236.222" width="10986" height="2460" filterUnits="userSpaceOnUse" color-interpolation-filters="sRGB">
<feFlood flood-opacity="0" result="BackgroundImageFix"/>
<feGaussianBlur in="BackgroundImageFix" stdDeviation="150"/>
<feComposite in2="SourceAlpha" operator="in" result="effect1_backgroundBlur_1_395"/>
<feBlend mode="normal" in="SourceGraphic" in2="effect1_backgroundBlur_1_395" result="shape"/>
<feGaussianBlur stdDeviation="200" result="effect2_foregroundBlur_1_395"/>
</filter>
<filter id="filter22_bf_1_395" x="-121.394" y="-729.441" width="11081.9" height="1917.14" filterUnits="userSpaceOnUse" color-interpolation-filters="sRGB">
<feFlood flood-opacity="0" result="BackgroundImageFix"/>
<feGaussianBlur in="BackgroundImageFix" stdDeviation="150"/>
<feComposite in2="SourceAlpha" operator="in" result="effect1_backgroundBlur_1_395"/>
<feBlend mode="normal" in="SourceGraphic" in2="effect1_backgroundBlur_1_395" result="shape"/>
<feGaussianBlur stdDeviation="200" result="effect2_foregroundBlur_1_395"/>
</filter>
<linearGradient id="paint0_linear_1_395" x1="5745" y1="-670" x2="5745" y2="1229.57" gradientUnits="userSpaceOnUse">
<stop stop-color="#131CF1"/>
<stop offset="1" stop-color="#DAFEFB" stop-opacity="0"/>
</linearGradient>
<clipPath id="clip0_1_395">
<rect width="9839" height="4167" fill="white"/>
</clipPath>
</defs>
</svg>
