<svg width="705" height="325" viewBox="0 0 705 325" fill="none" xmlns="http://www.w3.org/2000/svg">
<g clip-path="url(#clip0_51_60)">
<rect width="705" height="325" rx="20" fill="black"/>
<path opacity="0.2" d="M36.7415 48.9V46.896H38.5055C38.6735 46.896 38.8335 46.912 38.9855 46.944C39.1455 46.968 39.2855 47.016 39.4055 47.088C39.5255 47.16 39.6215 47.26 39.6935 47.388C39.7655 47.516 39.8015 47.68 39.8015 47.88C39.8015 48.24 39.6935 48.5 39.4775 48.66C39.2615 48.82 38.9855 48.9 38.6495 48.9H36.7415ZM34.8575 45.432V54H39.0095C39.3935 54 39.7655 53.952 40.1255 53.856C40.4935 53.76 40.8175 53.612 41.0975 53.412C41.3855 53.212 41.6135 52.956 41.7815 52.644C41.9495 52.324 42.0335 51.948 42.0335 51.516C42.0335 50.98 41.9015 50.524 41.6375 50.148C41.3815 49.764 40.9895 49.496 40.4615 49.344C40.8455 49.16 41.1335 48.924 41.3255 48.636C41.5255 48.348 41.6255 47.988 41.6255 47.556C41.6255 47.156 41.5575 46.82 41.4215 46.548C41.2935 46.276 41.1095 46.06 40.8695 45.9C40.6295 45.732 40.3415 45.612 40.0055 45.54C39.6695 45.468 39.2975 45.432 38.8895 45.432H34.8575ZM36.7415 52.536V50.184H38.7935C39.2015 50.184 39.5295 50.28 39.7775 50.472C40.0255 50.656 40.1495 50.968 40.1495 51.408C40.1495 51.632 40.1095 51.816 40.0295 51.96C39.9575 52.104 39.8575 52.22 39.7295 52.308C39.6015 52.388 39.4535 52.448 39.2855 52.488C39.1175 52.52 38.9415 52.536 38.7575 52.536H36.7415ZM45.2028 47.016V54H47.0868V47.016H49.6548V45.432H42.6348V47.016H45.2028ZM56.3547 48.312H58.1787C58.1227 47.816 57.9867 47.376 57.7707 46.992C57.5547 46.608 57.2787 46.288 56.9427 46.032C56.6147 45.768 56.2387 45.568 55.8147 45.432C55.3987 45.296 54.9547 45.228 54.4827 45.228C53.8267 45.228 53.2347 45.344 52.7067 45.576C52.1867 45.808 51.7467 46.128 51.3867 46.536C51.0267 46.944 50.7507 47.424 50.5587 47.976C50.3667 48.52 50.2707 49.112 50.2707 49.752C50.2707 50.376 50.3667 50.96 50.5587 51.504C50.7507 52.04 51.0267 52.508 51.3867 52.908C51.7467 53.308 52.1867 53.624 52.7067 53.856C53.2347 54.08 53.8267 54.192 54.4827 54.192C55.0107 54.192 55.4947 54.112 55.9347 53.952C56.3747 53.792 56.7587 53.56 57.0867 53.256C57.4147 52.952 57.6787 52.584 57.8787 52.152C58.0787 51.72 58.2027 51.236 58.2507 50.7H56.4267C56.3547 51.276 56.1547 51.74 55.8267 52.092C55.5067 52.444 55.0587 52.62 54.4827 52.62C54.0587 52.62 53.6987 52.54 53.4027 52.38C53.1067 52.212 52.8667 51.992 52.6827 51.72C52.4987 51.448 52.3627 51.144 52.2747 50.808C52.1947 50.464 52.1547 50.112 52.1547 49.752C52.1547 49.376 52.1947 49.012 52.2747 48.66C52.3627 48.308 52.4987 47.996 52.6827 47.724C52.8667 47.444 53.1067 47.224 53.4027 47.064C53.6987 46.896 54.0587 46.812 54.4827 46.812C54.7147 46.812 54.9347 46.852 55.1427 46.932C55.3587 47.004 55.5507 47.108 55.7187 47.244C55.8867 47.38 56.0267 47.54 56.1387 47.724C56.2507 47.9 56.3227 48.096 56.3547 48.312Z" fill="white"/>
<path opacity="0.2" d="M106.256 50.76V45.432H104.372V50.76C104.372 51.4 104.244 51.872 103.988 52.176C103.732 52.472 103.268 52.62 102.596 52.62C102.212 52.62 101.904 52.568 101.672 52.464C101.448 52.352 101.272 52.212 101.144 52.044C101.016 51.868 100.932 51.668 100.892 51.444C100.852 51.22 100.832 50.992 100.832 50.76V45.432H98.9476V50.76C98.9476 51.928 99.2636 52.792 99.8956 53.352C100.536 53.912 101.436 54.192 102.596 54.192C103.74 54.192 104.636 53.912 105.284 53.352C105.932 52.784 106.256 51.92 106.256 50.76ZM109.162 51.156H107.338C107.33 51.684 107.426 52.14 107.626 52.524C107.826 52.908 108.094 53.224 108.43 53.472C108.774 53.72 109.166 53.9 109.606 54.012C110.054 54.132 110.514 54.192 110.986 54.192C111.57 54.192 112.082 54.124 112.522 53.988C112.97 53.852 113.342 53.664 113.638 53.424C113.942 53.176 114.17 52.884 114.322 52.548C114.474 52.212 114.55 51.848 114.55 51.456C114.55 50.976 114.446 50.584 114.238 50.28C114.038 49.968 113.798 49.72 113.518 49.536C113.238 49.352 112.954 49.22 112.666 49.14C112.386 49.052 112.166 48.992 112.006 48.96C111.47 48.824 111.034 48.712 110.698 48.624C110.37 48.536 110.11 48.448 109.918 48.36C109.734 48.272 109.61 48.176 109.546 48.072C109.482 47.968 109.45 47.832 109.45 47.664C109.45 47.48 109.49 47.328 109.57 47.208C109.65 47.088 109.75 46.988 109.87 46.908C109.998 46.828 110.138 46.772 110.29 46.74C110.442 46.708 110.594 46.692 110.746 46.692C110.978 46.692 111.19 46.712 111.382 46.752C111.582 46.792 111.758 46.86 111.91 46.956C112.062 47.052 112.182 47.184 112.27 47.352C112.366 47.52 112.422 47.732 112.438 47.988H114.262C114.262 47.492 114.166 47.072 113.974 46.728C113.79 46.376 113.538 46.088 113.218 45.864C112.898 45.64 112.53 45.48 112.114 45.384C111.706 45.28 111.278 45.228 110.83 45.228C110.446 45.228 110.062 45.28 109.678 45.384C109.294 45.488 108.95 45.648 108.646 45.864C108.342 46.08 108.094 46.352 107.902 46.68C107.718 47 107.626 47.38 107.626 47.82C107.626 48.212 107.698 48.548 107.842 48.828C107.994 49.1 108.19 49.328 108.43 49.512C108.67 49.696 108.942 49.848 109.246 49.968C109.55 50.08 109.862 50.176 110.182 50.256C110.494 50.344 110.802 50.424 111.106 50.496C111.41 50.568 111.682 50.652 111.922 50.748C112.162 50.844 112.354 50.964 112.498 51.108C112.65 51.252 112.726 51.44 112.726 51.672C112.726 51.888 112.67 52.068 112.558 52.212C112.446 52.348 112.306 52.456 112.138 52.536C111.97 52.616 111.79 52.672 111.598 52.704C111.406 52.728 111.226 52.74 111.058 52.74C110.81 52.74 110.57 52.712 110.338 52.656C110.106 52.592 109.902 52.5 109.726 52.38C109.558 52.252 109.422 52.088 109.318 51.888C109.214 51.688 109.162 51.444 109.162 51.156ZM117.555 52.416V47.016H118.899C119.363 47.016 119.751 47.084 120.063 47.22C120.383 47.348 120.639 47.536 120.831 47.784C121.023 48.032 121.159 48.332 121.239 48.684C121.327 49.028 121.371 49.416 121.371 49.848C121.371 50.32 121.311 50.72 121.191 51.048C121.071 51.376 120.911 51.644 120.711 51.852C120.511 52.052 120.283 52.196 120.027 52.284C119.771 52.372 119.507 52.416 119.235 52.416H117.555ZM115.671 45.432V54H119.367C120.023 54 120.591 53.892 121.071 53.676C121.559 53.452 121.963 53.148 122.283 52.764C122.611 52.38 122.855 51.924 123.015 51.396C123.175 50.868 123.255 50.292 123.255 49.668C123.255 48.956 123.155 48.336 122.955 47.808C122.763 47.28 122.491 46.84 122.139 46.488C121.795 46.136 121.383 45.872 120.903 45.696C120.431 45.52 119.919 45.432 119.367 45.432H115.671Z" fill="white"/>
<path d="M76 51L73 48L76 45" stroke="#37346F" stroke-width="2"/>
<path d="M79 55L82 52L79 49" stroke="#37346F" stroke-width="2"/>
<g filter="url(#filter0_f_51_60)">
<ellipse cx="194.991" cy="96.2599" rx="9.31022" ry="10" transform="rotate(29 194.991 96.2599)" fill="url(#paint0_linear_51_60)"/>
</g>
<g filter="url(#filter1_d_51_60)">
<path d="M195 96C195 96 186.47 115 179.007 115C171.543 115 168.344 104 158.748 104C149.152 104 137.424 132 127.828 132C118.232 132 106.503 115 100.106 115C93.7086 115 86.245 128 74.5166 128C64.0759 128 64.0759 121.38 60.6556 123.162C57.2353 124.944 54.0467 124.97 48.8214 119.566C43.596 114.162 39.7005 124.912 34 119.566" stroke="url(#paint1_linear_51_60)" stroke-width="3" stroke-linecap="round" stroke-linejoin="round"/>
</g>
<path opacity="0.7" d="M42.653 75.392V74.151H34.85V75.511H41.174C40.5393 76.1797 39.9443 76.9107 39.389 77.704C38.845 78.4973 38.3633 79.3417 37.944 80.237C37.5247 81.121 37.179 82.0503 36.907 83.025C36.6463 83.9883 36.482 84.98 36.414 86H38.029C38.0857 85.0593 38.2443 84.0903 38.505 83.093C38.7657 82.0957 39.1 81.1267 39.508 80.186C39.9273 79.2453 40.4033 78.3613 40.936 77.534C41.4687 76.7067 42.041 75.9927 42.653 75.392ZM44.8573 84.113V86H46.7443V84.113H44.8573ZM51.8837 79.115V80.339C52.1557 80.305 52.4447 80.288 52.7507 80.288C53.1134 80.288 53.4477 80.339 53.7537 80.441C54.0711 80.5317 54.3431 80.679 54.5697 80.883C54.7964 81.0757 54.9777 81.3193 55.1137 81.614C55.2497 81.8973 55.3177 82.226 55.3177 82.6C55.3177 82.9627 55.2441 83.2913 55.0967 83.586C54.9607 83.8693 54.7737 84.113 54.5357 84.317C54.2977 84.5097 54.0201 84.6627 53.7027 84.776C53.3854 84.878 53.0511 84.929 52.6997 84.929C51.8724 84.929 51.2434 84.6853 50.8127 84.198C50.3821 83.6993 50.1554 83.059 50.1327 82.277H48.6877C48.6764 82.9003 48.7614 83.4557 48.9427 83.943C49.1354 84.4303 49.4074 84.844 49.7587 85.184C50.1101 85.5127 50.5351 85.762 51.0337 85.932C51.5324 86.102 52.0877 86.187 52.6997 86.187C53.2664 86.187 53.7991 86.1133 54.2977 85.966C54.8077 85.8073 55.2497 85.575 55.6237 85.269C55.9977 84.963 56.2924 84.5833 56.5077 84.13C56.7344 83.6653 56.8477 83.1327 56.8477 82.532C56.8477 81.8067 56.6664 81.1777 56.3037 80.645C55.9524 80.1123 55.4084 79.7667 54.6717 79.608V79.574C55.1477 79.3587 55.5444 79.0413 55.8617 78.622C56.1791 78.2027 56.3377 77.721 56.3377 77.177C56.3377 76.6217 56.2414 76.14 56.0487 75.732C55.8674 75.324 55.6124 74.9897 55.2837 74.729C54.9551 74.4683 54.5641 74.2757 54.1107 74.151C53.6687 74.015 53.1871 73.947 52.6657 73.947C52.0651 73.947 51.5324 74.0433 51.0677 74.236C50.6144 74.4287 50.2347 74.695 49.9287 75.035C49.6227 75.375 49.3847 75.783 49.2147 76.259C49.0561 76.735 48.9654 77.262 48.9427 77.84H50.3877C50.3877 77.4887 50.4331 77.1543 50.5237 76.837C50.6144 76.5197 50.7504 76.242 50.9317 76.004C51.1244 75.766 51.3624 75.579 51.6457 75.443C51.9404 75.2957 52.2804 75.222 52.6657 75.222C53.2777 75.222 53.7877 75.3863 54.1957 75.715C54.6037 76.0323 54.8077 76.514 54.8077 77.16C54.8077 77.4773 54.7454 77.7607 54.6207 78.01C54.4961 78.2593 54.3261 78.469 54.1107 78.639C53.9067 78.7977 53.6631 78.9223 53.3797 79.013C53.1077 79.0923 52.8187 79.132 52.5127 79.132H52.2067C52.1501 79.132 52.0934 79.132 52.0367 79.132C51.9914 79.132 51.9404 79.1263 51.8837 79.115ZM65.614 75.426V74.151H59.664L58.542 80.407L59.783 80.475C60.0664 80.135 60.3894 79.863 60.752 79.659C61.126 79.4437 61.551 79.336 62.027 79.336C62.435 79.336 62.8034 79.404 63.132 79.54C63.472 79.676 63.761 79.8687 63.999 80.118C64.237 80.356 64.4184 80.645 64.543 80.985C64.679 81.3137 64.747 81.6763 64.747 82.073C64.747 82.549 64.679 82.9683 64.543 83.331C64.407 83.6823 64.22 83.977 63.982 84.215C63.7554 84.453 63.4834 84.6343 63.166 84.759C62.86 84.8723 62.537 84.929 62.197 84.929C61.8344 84.929 61.5 84.878 61.194 84.776C60.8994 84.6627 60.6387 84.5097 60.412 84.317C60.1967 84.113 60.021 83.8807 59.885 83.62C59.7604 83.348 59.6867 83.059 59.664 82.753H58.219C58.2304 83.297 58.338 83.7843 58.542 84.215C58.746 84.6457 59.0237 85.0083 59.375 85.303C59.7264 85.5863 60.1287 85.8073 60.582 85.966C61.0467 86.1133 61.5397 86.187 62.061 86.187C62.7637 86.187 63.3757 86.0793 63.897 85.864C64.4297 85.6373 64.8717 85.337 65.223 84.963C65.5744 84.589 65.835 84.164 66.005 83.688C66.1864 83.2007 66.277 82.702 66.277 82.192C66.277 81.5007 66.175 80.9 65.971 80.39C65.767 79.8687 65.4894 79.438 65.138 79.098C64.7867 78.7467 64.373 78.486 63.897 78.316C63.421 78.146 62.9167 78.061 62.384 78.061C61.976 78.061 61.5624 78.1347 61.143 78.282C60.735 78.418 60.4007 78.6333 60.14 78.928L60.106 78.894L60.752 75.426H65.614ZM74.1083 77.024H75.5533C75.4626 76.0267 75.1226 75.2673 74.5333 74.746C73.944 74.2133 73.1506 73.947 72.1533 73.947C71.292 73.947 70.578 74.1283 70.0113 74.491C69.4446 74.8537 68.9913 75.3353 68.6513 75.936C68.3113 76.5367 68.0676 77.228 67.9203 78.01C67.7843 78.7807 67.7163 79.5797 67.7163 80.407C67.7163 81.0417 67.7616 81.699 67.8523 82.379C67.9543 83.059 68.1526 83.6823 68.4473 84.249C68.742 84.8157 69.1613 85.2803 69.7053 85.643C70.2493 86.0057 70.969 86.187 71.8643 86.187C72.6236 86.187 73.2583 86.0623 73.7683 85.813C74.2896 85.5523 74.7033 85.2293 75.0093 84.844C75.3266 84.4473 75.5533 84.011 75.6893 83.535C75.8253 83.059 75.8933 82.6 75.8933 82.158C75.8933 81.6027 75.8083 81.087 75.6383 80.611C75.4683 80.135 75.2246 79.7213 74.9073 79.37C74.6013 79.0187 74.216 78.7467 73.7513 78.554C73.298 78.35 72.7823 78.248 72.2043 78.248C71.547 78.248 70.9633 78.3727 70.4533 78.622C69.9546 78.8713 69.5353 79.2737 69.1953 79.829L69.1613 79.795C69.1726 79.3303 69.218 78.8317 69.2973 78.299C69.3766 77.7663 69.5183 77.2733 69.7223 76.82C69.9376 76.3553 70.2323 75.9757 70.6063 75.681C70.9803 75.375 71.4733 75.222 72.0853 75.222C72.6633 75.222 73.128 75.3863 73.4793 75.715C73.8306 76.0437 74.0403 76.48 74.1083 77.024ZM71.9323 79.523C72.3403 79.523 72.6973 79.5967 73.0033 79.744C73.3093 79.8913 73.5643 80.0897 73.7683 80.339C73.9723 80.577 74.1196 80.866 74.2103 81.206C74.3123 81.5347 74.3633 81.886 74.3633 82.26C74.3633 82.6113 74.3066 82.9513 74.1933 83.28C74.0913 83.5973 73.9383 83.8807 73.7343 84.13C73.5303 84.3793 73.2753 84.5777 72.9693 84.725C72.6746 84.861 72.329 84.929 71.9323 84.929C71.5356 84.929 71.1786 84.861 70.8613 84.725C70.5553 84.5777 70.2946 84.385 70.0793 84.147C69.8753 83.909 69.7166 83.6257 69.6033 83.297C69.49 82.9683 69.4333 82.617 69.4333 82.243C69.4333 81.869 69.4843 81.5177 69.5863 81.189C69.6996 80.849 69.864 80.56 70.0793 80.322C70.2946 80.0727 70.5553 79.88 70.8613 79.744C71.1673 79.5967 71.5243 79.523 71.9323 79.523ZM77.9276 84.113V86H78.9306C78.9419 86.136 78.9306 86.2833 78.8966 86.442C78.8739 86.6007 78.8229 86.7537 78.7436 86.901C78.6643 87.0597 78.5566 87.2013 78.4206 87.326C78.2959 87.462 78.1373 87.564 77.9446 87.632V88.482C78.6019 88.2893 79.0779 87.9607 79.3726 87.496C79.6673 87.0313 79.8146 86.476 79.8146 85.83V84.113H77.9276ZM88.286 77.024H89.731C89.6404 76.0267 89.3004 75.2673 88.711 74.746C88.1217 74.2133 87.3284 73.947 86.331 73.947C85.4697 73.947 84.7557 74.1283 84.189 74.491C83.6224 74.8537 83.169 75.3353 82.829 75.936C82.489 76.5367 82.2454 77.228 82.098 78.01C81.962 78.7807 81.894 79.5797 81.894 80.407C81.894 81.0417 81.9394 81.699 82.03 82.379C82.132 83.059 82.3304 83.6823 82.625 84.249C82.9197 84.8157 83.339 85.2803 83.883 85.643C84.427 86.0057 85.1467 86.187 86.042 86.187C86.8014 86.187 87.436 86.0623 87.946 85.813C88.4674 85.5523 88.881 85.2293 89.187 84.844C89.5044 84.4473 89.731 84.011 89.867 83.535C90.003 83.059 90.071 82.6 90.071 82.158C90.071 81.6027 89.986 81.087 89.816 80.611C89.646 80.135 89.4024 79.7213 89.085 79.37C88.779 79.0187 88.3937 78.7467 87.929 78.554C87.4757 78.35 86.96 78.248 86.382 78.248C85.7247 78.248 85.141 78.3727 84.631 78.622C84.1324 78.8713 83.713 79.2737 83.373 79.829L83.339 79.795C83.3504 79.3303 83.3957 78.8317 83.475 78.299C83.5544 77.7663 83.696 77.2733 83.9 76.82C84.1154 76.3553 84.41 75.9757 84.784 75.681C85.158 75.375 85.651 75.222 86.263 75.222C86.841 75.222 87.3057 75.3863 87.657 75.715C88.0084 76.0437 88.218 76.48 88.286 77.024ZM86.11 79.523C86.518 79.523 86.875 79.5967 87.181 79.744C87.487 79.8913 87.742 80.0897 87.946 80.339C88.15 80.577 88.2974 80.866 88.388 81.206C88.49 81.5347 88.541 81.886 88.541 82.26C88.541 82.6113 88.4844 82.9513 88.371 83.28C88.269 83.5973 88.116 83.8807 87.912 84.13C87.708 84.3793 87.453 84.5777 87.147 84.725C86.8524 84.861 86.5067 84.929 86.11 84.929C85.7134 84.929 85.3564 84.861 85.039 84.725C84.733 84.5777 84.4724 84.385 84.257 84.147C84.053 83.909 83.8944 83.6257 83.781 83.297C83.6677 82.9683 83.611 82.617 83.611 82.243C83.611 81.869 83.662 81.5177 83.764 81.189C83.8774 80.849 84.0417 80.56 84.257 80.322C84.4724 80.0727 84.733 79.88 85.039 79.744C85.345 79.5967 85.702 79.523 86.11 79.523ZM99.3473 75.392V74.151H91.5443V75.511H97.8683C97.2337 76.1797 96.6387 76.9107 96.0833 77.704C95.5393 78.4973 95.0577 79.3417 94.6383 80.237C94.219 81.121 93.8733 82.0503 93.6013 83.025C93.3407 83.9883 93.1763 84.98 93.1083 86H94.7233C94.78 85.0593 94.9387 84.0903 95.1993 83.093C95.46 82.0957 95.7943 81.1267 96.2023 80.186C96.6217 79.2453 97.0977 78.3613 97.6303 77.534C98.163 76.7067 98.7353 75.9927 99.3473 75.392Z" fill="white"/>
<path d="M171.55 51.502V52.382H174.729V51.502H171.55ZM180.445 48.158V47.333H176.595L175.869 51.381L176.672 51.425C176.856 51.205 177.065 51.029 177.299 50.897C177.541 50.7577 177.816 50.688 178.124 50.688C178.388 50.688 178.627 50.732 178.839 50.82C179.059 50.908 179.246 51.0327 179.4 51.194C179.554 51.348 179.672 51.535 179.752 51.755C179.84 51.9677 179.884 52.2023 179.884 52.459C179.884 52.767 179.84 53.0383 179.752 53.273C179.664 53.5003 179.543 53.691 179.389 53.845C179.243 53.999 179.067 54.1163 178.861 54.197C178.663 54.2703 178.454 54.307 178.234 54.307C178 54.307 177.783 54.274 177.585 54.208C177.395 54.1347 177.226 54.0357 177.079 53.911C176.94 53.779 176.826 53.6287 176.738 53.46C176.658 53.284 176.61 53.097 176.595 52.899H175.66C175.668 53.251 175.737 53.5663 175.869 53.845C176.001 54.1237 176.181 54.3583 176.408 54.549C176.636 54.7323 176.896 54.8753 177.189 54.978C177.49 55.0733 177.809 55.121 178.146 55.121C178.601 55.121 178.997 55.0513 179.334 54.912C179.679 54.7653 179.965 54.571 180.192 54.329C180.42 54.087 180.588 53.812 180.698 53.504C180.816 53.1887 180.874 52.866 180.874 52.536C180.874 52.0887 180.808 51.7 180.676 51.37C180.544 51.0327 180.365 50.754 180.137 50.534C179.91 50.3067 179.642 50.138 179.334 50.028C179.026 49.918 178.7 49.863 178.355 49.863C178.091 49.863 177.824 49.9107 177.552 50.006C177.288 50.094 177.072 50.2333 176.903 50.424L176.881 50.402L177.299 48.158H180.445ZM182.301 53.779V55H183.522V53.779H182.301ZM184.933 49.962H185.868C185.861 49.7273 185.883 49.4963 185.934 49.269C185.993 49.0343 186.085 48.8253 186.209 48.642C186.334 48.4587 186.492 48.312 186.682 48.202C186.88 48.0847 187.115 48.026 187.386 48.026C187.592 48.026 187.786 48.059 187.969 48.125C188.153 48.191 188.31 48.2863 188.442 48.411C188.582 48.5357 188.692 48.686 188.772 48.862C188.853 49.0307 188.893 49.2213 188.893 49.434C188.893 49.7053 188.849 49.9437 188.761 50.149C188.681 50.3543 188.556 50.545 188.387 50.721C188.226 50.897 188.021 51.073 187.771 51.249C187.522 51.4177 187.232 51.6047 186.902 51.81C186.631 51.9713 186.371 52.1437 186.121 52.327C185.872 52.5103 185.648 52.723 185.45 52.965C185.252 53.207 185.087 53.493 184.955 53.823C184.831 54.1457 184.75 54.538 184.713 55H189.806V54.175H185.802C185.846 53.933 185.938 53.7203 186.077 53.537C186.224 53.3463 186.396 53.1703 186.594 53.009C186.8 52.8477 187.023 52.6973 187.265 52.558C187.507 52.4113 187.749 52.2647 187.991 52.118C188.233 51.964 188.468 51.8027 188.695 51.634C188.923 51.4653 189.124 51.2783 189.3 51.073C189.476 50.8603 189.616 50.622 189.718 50.358C189.828 50.094 189.883 49.7897 189.883 49.445C189.883 49.0783 189.817 48.7557 189.685 48.477C189.561 48.1983 189.388 47.9673 189.168 47.784C188.948 47.5933 188.688 47.4503 188.387 47.355C188.094 47.2523 187.779 47.201 187.441 47.201C187.031 47.201 186.664 47.2707 186.341 47.41C186.019 47.5493 185.747 47.7437 185.527 47.993C185.315 48.235 185.157 48.5247 185.054 48.862C184.952 49.1993 184.911 49.566 184.933 49.962ZM192.96 50.545V51.337C193.136 51.315 193.323 51.304 193.521 51.304C193.755 51.304 193.972 51.337 194.17 51.403C194.375 51.4617 194.551 51.557 194.698 51.689C194.844 51.8137 194.962 51.9713 195.05 52.162C195.138 52.3453 195.182 52.558 195.182 52.8C195.182 53.0347 195.134 53.2473 195.039 53.438C194.951 53.6213 194.83 53.779 194.676 53.911C194.522 54.0357 194.342 54.1347 194.137 54.208C193.931 54.274 193.715 54.307 193.488 54.307C192.952 54.307 192.545 54.1493 192.267 53.834C191.988 53.5113 191.841 53.097 191.827 52.591H190.892C190.884 52.9943 190.939 53.3537 191.057 53.669C191.181 53.9843 191.357 54.252 191.585 54.472C191.812 54.6847 192.087 54.846 192.41 54.956C192.732 55.066 193.092 55.121 193.488 55.121C193.854 55.121 194.199 55.0733 194.522 54.978C194.852 54.8753 195.138 54.725 195.38 54.527C195.622 54.329 195.812 54.0833 195.952 53.79C196.098 53.4893 196.172 53.1447 196.172 52.756C196.172 52.2867 196.054 51.8797 195.82 51.535C195.592 51.1903 195.24 50.9667 194.764 50.864V50.842C195.072 50.7027 195.328 50.4973 195.534 50.226C195.739 49.9547 195.842 49.643 195.842 49.291C195.842 48.9317 195.779 48.62 195.655 48.356C195.537 48.092 195.372 47.8757 195.16 47.707C194.947 47.5383 194.694 47.4137 194.401 47.333C194.115 47.245 193.803 47.201 193.466 47.201C193.077 47.201 192.732 47.2633 192.432 47.388C192.138 47.5127 191.893 47.685 191.695 47.905C191.497 48.125 191.343 48.389 191.233 48.697C191.13 49.005 191.071 49.346 191.057 49.72H191.992C191.992 49.4927 192.021 49.2763 192.08 49.071C192.138 48.8657 192.226 48.686 192.344 48.532C192.468 48.378 192.622 48.257 192.806 48.169C192.996 48.0737 193.216 48.026 193.466 48.026C193.862 48.026 194.192 48.1323 194.456 48.345C194.72 48.5503 194.852 48.862 194.852 49.28C194.852 49.4853 194.811 49.6687 194.731 49.83C194.65 49.9913 194.54 50.127 194.401 50.237C194.269 50.3397 194.111 50.4203 193.928 50.479C193.752 50.5303 193.565 50.556 193.367 50.556H193.169C193.132 50.556 193.095 50.556 193.059 50.556C193.029 50.556 192.996 50.5523 192.96 50.545ZM198.511 49.412C198.511 49.2433 198.522 49.0673 198.544 48.884C198.566 48.6933 198.61 48.521 198.676 48.367C198.749 48.2057 198.848 48.0737 198.973 47.971C199.097 47.861 199.262 47.806 199.468 47.806C199.68 47.806 199.845 47.861 199.963 47.971C200.087 48.0737 200.183 48.2057 200.249 48.367C200.315 48.521 200.355 48.6933 200.37 48.884C200.392 49.0673 200.403 49.2397 200.403 49.401C200.403 49.5697 200.392 49.7493 200.37 49.94C200.348 50.1307 200.3 50.3067 200.227 50.468C200.161 50.622 200.065 50.7503 199.941 50.853C199.816 50.9557 199.647 51.007 199.435 51.007C199.229 51.007 199.064 50.9557 198.94 50.853C198.822 50.743 198.731 50.611 198.665 50.457C198.599 50.2957 198.555 50.1233 198.533 49.94C198.518 49.7493 198.511 49.5733 198.511 49.412ZM197.686 49.434C197.686 49.7347 197.715 50.017 197.774 50.281C197.84 50.545 197.942 50.776 198.082 50.974C198.221 51.172 198.404 51.3297 198.632 51.447C198.859 51.557 199.138 51.612 199.468 51.612C199.79 51.612 200.062 51.5497 200.282 51.425C200.502 51.3003 200.681 51.139 200.821 50.941C200.967 50.7357 201.07 50.501 201.129 50.237C201.195 49.9657 201.228 49.687 201.228 49.401C201.228 49.1003 201.198 48.818 201.14 48.554C201.088 48.2827 200.993 48.048 200.854 47.85C200.722 47.652 200.542 47.4943 200.315 47.377C200.095 47.2597 199.812 47.201 199.468 47.201C199.13 47.201 198.848 47.2633 198.621 47.388C198.393 47.5053 198.21 47.6667 198.071 47.872C197.931 48.0773 197.832 48.3157 197.774 48.587C197.715 48.851 197.686 49.1333 197.686 49.434ZM203.945 52.932C203.945 52.7633 203.956 52.5873 203.978 52.404C204 52.2133 204.044 52.041 204.11 51.887C204.183 51.7257 204.282 51.5937 204.407 51.491C204.531 51.381 204.696 51.326 204.902 51.326C205.114 51.326 205.279 51.381 205.397 51.491C205.521 51.5937 205.617 51.7257 205.683 51.887C205.749 52.041 205.789 52.2133 205.804 52.404C205.826 52.5873 205.837 52.7597 205.837 52.921C205.837 53.0897 205.826 53.2693 205.804 53.46C205.782 53.6507 205.734 53.8267 205.661 53.988C205.595 54.142 205.499 54.2703 205.375 54.373C205.25 54.4757 205.081 54.527 204.869 54.527C204.663 54.527 204.498 54.4757 204.374 54.373C204.256 54.263 204.165 54.131 204.099 53.977C204.033 53.8157 203.989 53.6433 203.967 53.46C203.952 53.2693 203.945 53.0933 203.945 52.932ZM203.12 52.954C203.12 53.2547 203.149 53.537 203.208 53.801C203.274 54.065 203.376 54.296 203.516 54.494C203.655 54.6847 203.838 54.8387 204.066 54.956C204.293 55.066 204.572 55.121 204.902 55.121C205.224 55.121 205.496 55.0623 205.716 54.945C205.936 54.8203 206.115 54.659 206.255 54.461C206.401 54.2557 206.504 54.021 206.563 53.757C206.629 53.4857 206.662 53.207 206.662 52.921C206.662 52.6203 206.632 52.338 206.574 52.074C206.522 51.8027 206.427 51.568 206.288 51.37C206.156 51.172 205.976 51.0143 205.749 50.897C205.529 50.7797 205.246 50.721 204.902 50.721C204.564 50.721 204.282 50.7833 204.055 50.908C203.827 51.0253 203.644 51.1867 203.505 51.392C203.365 51.5973 203.266 51.8357 203.208 52.107C203.149 52.371 203.12 52.6533 203.12 52.954ZM204.66 47.058L198.742 55.231H199.688L205.595 47.058H204.66Z" fill="#E3507A"/>
<path d="M161.606 49.3939L160.697 48.4848C160.362 48.15 159.82 48.15 159.485 48.4848C159.15 48.8195 159.15 49.3622 159.485 49.697L160.394 50.6061L158 53H164V47L161.606 49.3939Z" fill="#E3507A"/>
<path opacity="0.2" d="M270.526 45.432V54H277.03V52.416H272.41V50.316H276.562V48.852H272.41V47.016H276.934V45.432H270.526ZM280.203 47.016V54H282.087V47.016H284.655V45.432H277.635V47.016H280.203ZM285.643 45.432V54H287.527V50.304H290.995V54H292.879V45.432H290.995V48.72H287.527V45.432H285.643Z" fill="white"/>
<path opacity="0.2" d="M340.1 50.76V45.432H338.216V50.76C338.216 51.4 338.088 51.872 337.832 52.176C337.576 52.472 337.112 52.62 336.44 52.62C336.056 52.62 335.748 52.568 335.516 52.464C335.292 52.352 335.116 52.212 334.988 52.044C334.86 51.868 334.776 51.668 334.736 51.444C334.696 51.22 334.676 50.992 334.676 50.76V45.432H332.792V50.76C332.792 51.928 333.108 52.792 333.74 53.352C334.38 53.912 335.28 54.192 336.44 54.192C337.584 54.192 338.48 53.912 339.128 53.352C339.776 52.784 340.1 51.92 340.1 50.76ZM343.007 51.156H341.183C341.175 51.684 341.271 52.14 341.471 52.524C341.671 52.908 341.939 53.224 342.275 53.472C342.619 53.72 343.011 53.9 343.451 54.012C343.899 54.132 344.359 54.192 344.831 54.192C345.415 54.192 345.927 54.124 346.367 53.988C346.815 53.852 347.187 53.664 347.483 53.424C347.787 53.176 348.015 52.884 348.167 52.548C348.319 52.212 348.395 51.848 348.395 51.456C348.395 50.976 348.291 50.584 348.083 50.28C347.883 49.968 347.643 49.72 347.363 49.536C347.083 49.352 346.799 49.22 346.511 49.14C346.231 49.052 346.011 48.992 345.851 48.96C345.315 48.824 344.879 48.712 344.543 48.624C344.215 48.536 343.955 48.448 343.763 48.36C343.579 48.272 343.455 48.176 343.391 48.072C343.327 47.968 343.295 47.832 343.295 47.664C343.295 47.48 343.335 47.328 343.415 47.208C343.495 47.088 343.595 46.988 343.715 46.908C343.843 46.828 343.983 46.772 344.135 46.74C344.287 46.708 344.439 46.692 344.591 46.692C344.823 46.692 345.035 46.712 345.227 46.752C345.427 46.792 345.603 46.86 345.755 46.956C345.907 47.052 346.027 47.184 346.115 47.352C346.211 47.52 346.267 47.732 346.283 47.988H348.107C348.107 47.492 348.011 47.072 347.819 46.728C347.635 46.376 347.383 46.088 347.063 45.864C346.743 45.64 346.375 45.48 345.959 45.384C345.551 45.28 345.123 45.228 344.675 45.228C344.291 45.228 343.907 45.28 343.523 45.384C343.139 45.488 342.795 45.648 342.491 45.864C342.187 46.08 341.939 46.352 341.747 46.68C341.563 47 341.471 47.38 341.471 47.82C341.471 48.212 341.543 48.548 341.687 48.828C341.839 49.1 342.035 49.328 342.275 49.512C342.515 49.696 342.787 49.848 343.091 49.968C343.395 50.08 343.707 50.176 344.027 50.256C344.339 50.344 344.647 50.424 344.951 50.496C345.255 50.568 345.527 50.652 345.767 50.748C346.007 50.844 346.199 50.964 346.343 51.108C346.495 51.252 346.571 51.44 346.571 51.672C346.571 51.888 346.515 52.068 346.403 52.212C346.291 52.348 346.151 52.456 345.983 52.536C345.815 52.616 345.635 52.672 345.443 52.704C345.251 52.728 345.071 52.74 344.903 52.74C344.655 52.74 344.415 52.712 344.183 52.656C343.951 52.592 343.747 52.5 343.571 52.38C343.403 52.252 343.267 52.088 343.163 51.888C343.059 51.688 343.007 51.444 343.007 51.156ZM351.4 52.416V47.016H352.744C353.208 47.016 353.596 47.084 353.908 47.22C354.228 47.348 354.484 47.536 354.676 47.784C354.868 48.032 355.004 48.332 355.084 48.684C355.172 49.028 355.216 49.416 355.216 49.848C355.216 50.32 355.156 50.72 355.036 51.048C354.916 51.376 354.756 51.644 354.556 51.852C354.356 52.052 354.128 52.196 353.872 52.284C353.616 52.372 353.352 52.416 353.08 52.416H351.4ZM349.516 45.432V54H353.212C353.868 54 354.436 53.892 354.916 53.676C355.404 53.452 355.808 53.148 356.128 52.764C356.456 52.38 356.7 51.924 356.86 51.396C357.02 50.868 357.1 50.292 357.1 49.668C357.1 48.956 357 48.336 356.8 47.808C356.608 47.28 356.336 46.84 355.984 46.488C355.64 46.136 355.227 45.872 354.747 45.696C354.276 45.52 353.764 45.432 353.212 45.432H349.516Z" fill="white"/>
<path d="M311 51L308 48L311 45" stroke="#37346F" stroke-width="2"/>
<path d="M314 55L317 52L314 49" stroke="#37346F" stroke-width="2"/>
<g filter="url(#filter2_f_51_60)">
<ellipse cx="429.991" cy="96.2599" rx="9.31022" ry="10" transform="rotate(29 429.991 96.2599)" fill="url(#paint2_linear_51_60)"/>
</g>
<g filter="url(#filter3_d_51_60)">
<path d="M430 95.9999C409 85.9999 414 112.869 384 105C376.937 103.147 371.596 123.162 362 123.162C352.404 123.162 341.503 115 335.106 115C328.709 115 321.245 128 309.517 128C304 128 295 114 288 114C281 114 274.701 128.509 269 123.162" stroke="url(#paint3_linear_51_60)" stroke-width="3" stroke-linecap="round" stroke-linejoin="round"/>
</g>
<path opacity="0.7" d="M274.763 81.903H270.717L274.729 76.004H274.763V81.903ZM276.123 81.903V73.947H274.967L269.476 81.784V83.178H274.763V86H276.123V83.178H277.755V81.903H276.123ZM285.484 77.024H286.929C286.839 76.0267 286.499 75.2673 285.909 74.746C285.32 74.2133 284.527 73.947 283.529 73.947C282.668 73.947 281.954 74.1283 281.387 74.491C280.821 74.8537 280.367 75.3353 280.027 75.936C279.687 76.5367 279.444 77.228 279.296 78.01C279.16 78.7807 279.092 79.5797 279.092 80.407C279.092 81.0417 279.138 81.699 279.228 82.379C279.33 83.059 279.529 83.6823 279.823 84.249C280.118 84.8157 280.537 85.2803 281.081 85.643C281.625 86.0057 282.345 86.187 283.24 86.187C284 86.187 284.634 86.0623 285.144 85.813C285.666 85.5523 286.079 85.2293 286.385 84.844C286.703 84.4473 286.929 84.011 287.065 83.535C287.201 83.059 287.269 82.6 287.269 82.158C287.269 81.6027 287.184 81.087 287.014 80.611C286.844 80.135 286.601 79.7213 286.283 79.37C285.977 79.0187 285.592 78.7467 285.127 78.554C284.674 78.35 284.158 78.248 283.58 78.248C282.923 78.248 282.339 78.3727 281.829 78.622C281.331 78.8713 280.911 79.2737 280.571 79.829L280.537 79.795C280.549 79.3303 280.594 78.8317 280.673 78.299C280.753 77.7663 280.894 77.2733 281.098 76.82C281.314 76.3553 281.608 75.9757 281.982 75.681C282.356 75.375 282.849 75.222 283.461 75.222C284.039 75.222 284.504 75.3863 284.855 75.715C285.207 76.0437 285.416 76.48 285.484 77.024ZM283.308 79.523C283.716 79.523 284.073 79.5967 284.379 79.744C284.685 79.8913 284.94 80.0897 285.144 80.339C285.348 80.577 285.496 80.866 285.586 81.206C285.688 81.5347 285.739 81.886 285.739 82.26C285.739 82.6113 285.683 82.9513 285.569 83.28C285.467 83.5973 285.314 83.8807 285.11 84.13C284.906 84.3793 284.651 84.5777 284.345 84.725C284.051 84.861 283.705 84.929 283.308 84.929C282.912 84.929 282.555 84.861 282.237 84.725C281.931 84.5777 281.671 84.385 281.455 84.147C281.251 83.909 281.093 83.6257 280.979 83.297C280.866 82.9683 280.809 82.617 280.809 82.243C280.809 81.869 280.86 81.5177 280.962 81.189C281.076 80.849 281.24 80.56 281.455 80.322C281.671 80.0727 281.931 79.88 282.237 79.744C282.543 79.5967 282.9 79.523 283.308 79.523ZM295.883 75.426V74.151H289.933L288.811 80.407L290.052 80.475C290.335 80.135 290.658 79.863 291.021 79.659C291.395 79.4437 291.82 79.336 292.296 79.336C292.704 79.336 293.072 79.404 293.401 79.54C293.741 79.676 294.03 79.8687 294.268 80.118C294.506 80.356 294.687 80.645 294.812 80.985C294.948 81.3137 295.016 81.6763 295.016 82.073C295.016 82.549 294.948 82.9683 294.812 83.331C294.676 83.6823 294.489 83.977 294.251 84.215C294.024 84.453 293.752 84.6343 293.435 84.759C293.129 84.8723 292.806 84.929 292.466 84.929C292.103 84.929 291.769 84.878 291.463 84.776C291.168 84.6627 290.907 84.5097 290.681 84.317C290.465 84.113 290.29 83.8807 290.154 83.62C290.029 83.348 289.955 83.059 289.933 82.753H288.488C288.499 83.297 288.607 83.7843 288.811 84.215C289.015 84.6457 289.292 85.0083 289.644 85.303C289.995 85.5863 290.397 85.8073 290.851 85.966C291.315 86.1133 291.808 86.187 292.33 86.187C293.032 86.187 293.644 86.0793 294.166 85.864C294.698 85.6373 295.14 85.337 295.492 84.963C295.843 84.589 296.104 84.164 296.274 83.688C296.455 83.2007 296.546 82.702 296.546 82.192C296.546 81.5007 296.444 80.9 296.24 80.39C296.036 79.8687 295.758 79.438 295.407 79.098C295.055 78.7467 294.642 78.486 294.166 78.316C293.69 78.146 293.185 78.061 292.653 78.061C292.245 78.061 291.831 78.1347 291.412 78.282C291.004 78.418 290.669 78.6333 290.409 78.928L290.375 78.894L291.021 75.426H295.883ZM298.75 84.113V86H299.753C299.764 86.136 299.753 86.2833 299.719 86.442C299.696 86.6007 299.645 86.7537 299.566 86.901C299.487 87.0597 299.379 87.2013 299.243 87.326C299.118 87.462 298.96 87.564 298.767 87.632V88.482C299.424 88.2893 299.9 87.9607 300.195 87.496C300.49 87.0313 300.637 86.476 300.637 85.83V84.113H298.75ZM302.818 78.214H304.263C304.252 77.8513 304.286 77.4943 304.365 77.143C304.456 76.7803 304.598 76.4573 304.79 76.174C304.983 75.8907 305.227 75.664 305.521 75.494C305.827 75.3127 306.19 75.222 306.609 75.222C306.927 75.222 307.227 75.273 307.51 75.375C307.794 75.477 308.037 75.6243 308.241 75.817C308.457 76.0097 308.627 76.242 308.751 76.514C308.876 76.7747 308.938 77.0693 308.938 77.398C308.938 77.8173 308.87 78.1857 308.734 78.503C308.61 78.8203 308.417 79.115 308.156 79.387C307.907 79.659 307.59 79.931 307.204 80.203C306.819 80.4637 306.371 80.7527 305.861 81.07C305.442 81.3193 305.04 81.5857 304.654 81.869C304.269 82.1523 303.923 82.481 303.617 82.855C303.311 83.229 303.056 83.671 302.852 84.181C302.66 84.6797 302.535 85.286 302.478 86H310.349V84.725H304.161C304.229 84.351 304.371 84.0223 304.586 83.739C304.813 83.4443 305.079 83.1723 305.385 82.923C305.703 82.6737 306.048 82.4413 306.422 82.226C306.796 81.9993 307.17 81.7727 307.544 81.546C307.918 81.308 308.281 81.0587 308.632 80.798C308.984 80.5373 309.295 80.2483 309.567 79.931C309.839 79.6023 310.055 79.234 310.213 78.826C310.383 78.418 310.468 77.9477 310.468 77.415C310.468 76.8483 310.366 76.3497 310.162 75.919C309.97 75.4883 309.703 75.1313 309.363 74.848C309.023 74.5533 308.621 74.3323 308.156 74.185C307.703 74.0263 307.216 73.947 306.694 73.947C306.06 73.947 305.493 74.0547 304.994 74.27C304.496 74.4853 304.076 74.7857 303.736 75.171C303.408 75.545 303.164 75.9927 303.005 76.514C302.847 77.0353 302.784 77.602 302.818 78.214ZM312.265 78.214H313.71C313.698 77.8513 313.732 77.4943 313.812 77.143C313.902 76.7803 314.044 76.4573 314.237 76.174C314.429 75.8907 314.673 75.664 314.968 75.494C315.274 75.3127 315.636 75.222 316.056 75.222C316.373 75.222 316.673 75.273 316.957 75.375C317.24 75.477 317.484 75.6243 317.688 75.817C317.903 76.0097 318.073 76.242 318.198 76.514C318.322 76.7747 318.385 77.0693 318.385 77.398C318.385 77.8173 318.317 78.1857 318.181 78.503C318.056 78.8203 317.863 79.115 317.603 79.387C317.353 79.659 317.036 79.931 316.651 80.203C316.265 80.4637 315.818 80.7527 315.308 81.07C314.888 81.3193 314.486 81.5857 314.101 81.869C313.715 82.1523 313.37 82.481 313.064 82.855C312.758 83.229 312.503 83.671 312.299 84.181C312.106 84.6797 311.981 85.286 311.925 86H319.796V84.725H313.608C313.676 84.351 313.817 84.0223 314.033 83.739C314.259 83.4443 314.526 83.1723 314.832 82.923C315.149 82.6737 315.495 82.4413 315.869 82.226C316.243 81.9993 316.617 81.7727 316.991 81.546C317.365 81.308 317.727 81.0587 318.079 80.798C318.43 80.5373 318.742 80.2483 319.014 79.931C319.286 79.6023 319.501 79.234 319.66 78.826C319.83 78.418 319.915 77.9477 319.915 77.415C319.915 76.8483 319.813 76.3497 319.609 75.919C319.416 75.4883 319.15 75.1313 318.81 74.848C318.47 74.5533 318.067 74.3323 317.603 74.185C317.149 74.0263 316.662 73.947 316.141 73.947C315.506 73.947 314.939 74.0547 314.441 74.27C313.942 74.4853 313.523 74.7857 313.183 75.171C312.854 75.545 312.61 75.9927 312.452 76.514C312.293 77.0353 312.231 77.602 312.265 78.214Z" fill="white"/>
<path d="M400.674 51.843V49.434H399.926V51.843H397.528V52.591H399.926V55H400.674V52.591H403.072V51.843H400.674ZM407.512 55V47.201H406.797C406.745 47.4943 406.65 47.7363 406.511 47.927C406.371 48.1177 406.199 48.268 405.994 48.378C405.796 48.488 405.572 48.565 405.323 48.609C405.073 48.6457 404.817 48.664 404.553 48.664V49.412H406.577V55H407.512ZM412.106 50.545V51.337C412.282 51.315 412.469 51.304 412.667 51.304C412.902 51.304 413.118 51.337 413.316 51.403C413.521 51.4617 413.697 51.557 413.844 51.689C413.991 51.8137 414.108 51.9713 414.196 52.162C414.284 52.3453 414.328 52.558 414.328 52.8C414.328 53.0347 414.28 53.2473 414.185 53.438C414.097 53.6213 413.976 53.779 413.822 53.911C413.668 54.0357 413.488 54.1347 413.283 54.208C413.078 54.274 412.861 54.307 412.634 54.307C412.099 54.307 411.692 54.1493 411.413 53.834C411.134 53.5113 410.988 53.097 410.973 52.591H410.038C410.031 52.9943 410.086 53.3537 410.203 53.669C410.328 53.9843 410.504 54.252 410.731 54.472C410.958 54.6847 411.233 54.846 411.556 54.956C411.879 55.066 412.238 55.121 412.634 55.121C413.001 55.121 413.345 55.0733 413.668 54.978C413.998 54.8753 414.284 54.725 414.526 54.527C414.768 54.329 414.959 54.0833 415.098 53.79C415.245 53.4893 415.318 53.1447 415.318 52.756C415.318 52.2867 415.201 51.8797 414.966 51.535C414.739 51.1903 414.387 50.9667 413.91 50.864V50.842C414.218 50.7027 414.475 50.4973 414.68 50.226C414.885 49.9547 414.988 49.643 414.988 49.291C414.988 48.9317 414.926 48.62 414.801 48.356C414.684 48.092 414.519 47.8757 414.306 47.707C414.093 47.5383 413.84 47.4137 413.547 47.333C413.261 47.245 412.949 47.201 412.612 47.201C412.223 47.201 411.879 47.2633 411.578 47.388C411.285 47.5127 411.039 47.685 410.841 47.905C410.643 48.125 410.489 48.389 410.379 48.697C410.276 49.005 410.218 49.346 410.203 49.72H411.138C411.138 49.4927 411.167 49.2763 411.226 49.071C411.285 48.8657 411.373 48.686 411.49 48.532C411.615 48.378 411.769 48.257 411.952 48.169C412.143 48.0737 412.363 48.026 412.612 48.026C413.008 48.026 413.338 48.1323 413.602 48.345C413.866 48.5503 413.998 48.862 413.998 49.28C413.998 49.4853 413.958 49.6687 413.877 49.83C413.796 49.9913 413.686 50.127 413.547 50.237C413.415 50.3397 413.257 50.4203 413.074 50.479C412.898 50.5303 412.711 50.556 412.513 50.556H412.315C412.278 50.556 412.242 50.556 412.205 50.556C412.176 50.556 412.143 50.5523 412.106 50.545ZM416.304 49.962H417.239C417.232 49.7273 417.254 49.4963 417.305 49.269C417.364 49.0343 417.456 48.8253 417.58 48.642C417.705 48.4587 417.863 48.312 418.053 48.202C418.251 48.0847 418.486 48.026 418.757 48.026C418.963 48.026 419.157 48.059 419.34 48.125C419.524 48.191 419.681 48.2863 419.813 48.411C419.953 48.5357 420.063 48.686 420.143 48.862C420.224 49.0307 420.264 49.2213 420.264 49.434C420.264 49.7053 420.22 49.9437 420.132 50.149C420.052 50.3543 419.927 50.545 419.758 50.721C419.597 50.897 419.392 51.073 419.142 51.249C418.893 51.4177 418.603 51.6047 418.273 51.81C418.002 51.9713 417.742 52.1437 417.492 52.327C417.243 52.5103 417.019 52.723 416.821 52.965C416.623 53.207 416.458 53.493 416.326 53.823C416.202 54.1457 416.121 54.538 416.084 55H421.177V54.175H417.173C417.217 53.933 417.309 53.7203 417.448 53.537C417.595 53.3463 417.767 53.1703 417.965 53.009C418.171 52.8477 418.394 52.6973 418.636 52.558C418.878 52.4113 419.12 52.2647 419.362 52.118C419.604 51.964 419.839 51.8027 420.066 51.634C420.294 51.4653 420.495 51.2783 420.671 51.073C420.847 50.8603 420.987 50.622 421.089 50.358C421.199 50.094 421.254 49.7897 421.254 49.445C421.254 49.0783 421.188 48.7557 421.056 48.477C420.932 48.1983 420.759 47.9673 420.539 47.784C420.319 47.5933 420.059 47.4503 419.758 47.355C419.465 47.2523 419.15 47.201 418.812 47.201C418.402 47.201 418.035 47.2707 417.712 47.41C417.39 47.5493 417.118 47.7437 416.898 47.993C416.686 48.235 416.528 48.5247 416.425 48.862C416.323 49.1993 416.282 49.566 416.304 49.962ZM423.77 49.412C423.77 49.2433 423.781 49.0673 423.803 48.884C423.825 48.6933 423.869 48.521 423.935 48.367C424.008 48.2057 424.107 48.0737 424.232 47.971C424.356 47.861 424.521 47.806 424.727 47.806C424.939 47.806 425.104 47.861 425.222 47.971C425.346 48.0737 425.442 48.2057 425.508 48.367C425.574 48.521 425.614 48.6933 425.629 48.884C425.651 49.0673 425.662 49.2397 425.662 49.401C425.662 49.5697 425.651 49.7493 425.629 49.94C425.607 50.1307 425.559 50.3067 425.486 50.468C425.42 50.622 425.324 50.7503 425.2 50.853C425.075 50.9557 424.906 51.007 424.694 51.007C424.488 51.007 424.323 50.9557 424.199 50.853C424.081 50.743 423.99 50.611 423.924 50.457C423.858 50.2957 423.814 50.1233 423.792 49.94C423.777 49.7493 423.77 49.5733 423.77 49.412ZM422.945 49.434C422.945 49.7347 422.974 50.017 423.033 50.281C423.099 50.545 423.201 50.776 423.341 50.974C423.48 51.172 423.663 51.3297 423.891 51.447C424.118 51.557 424.397 51.612 424.727 51.612C425.049 51.612 425.321 51.5497 425.541 51.425C425.761 51.3003 425.94 51.139 426.08 50.941C426.226 50.7357 426.329 50.501 426.388 50.237C426.454 49.9657 426.487 49.687 426.487 49.401C426.487 49.1003 426.457 48.818 426.399 48.554C426.347 48.2827 426.252 48.048 426.113 47.85C425.981 47.652 425.801 47.4943 425.574 47.377C425.354 47.2597 425.071 47.201 424.727 47.201C424.389 47.201 424.107 47.2633 423.88 47.388C423.652 47.5053 423.469 47.6667 423.33 47.872C423.19 48.0773 423.091 48.3157 423.033 48.587C422.974 48.851 422.945 49.1333 422.945 49.434ZM429.204 52.932C429.204 52.7633 429.215 52.5873 429.237 52.404C429.259 52.2133 429.303 52.041 429.369 51.887C429.442 51.7257 429.541 51.5937 429.666 51.491C429.79 51.381 429.955 51.326 430.161 51.326C430.373 51.326 430.538 51.381 430.656 51.491C430.78 51.5937 430.876 51.7257 430.942 51.887C431.008 52.041 431.048 52.2133 431.063 52.404C431.085 52.5873 431.096 52.7597 431.096 52.921C431.096 53.0897 431.085 53.2693 431.063 53.46C431.041 53.6507 430.993 53.8267 430.92 53.988C430.854 54.142 430.758 54.2703 430.634 54.373C430.509 54.4757 430.34 54.527 430.128 54.527C429.922 54.527 429.757 54.4757 429.633 54.373C429.515 54.263 429.424 54.131 429.358 53.977C429.292 53.8157 429.248 53.6433 429.226 53.46C429.211 53.2693 429.204 53.0933 429.204 52.932ZM428.379 52.954C428.379 53.2547 428.408 53.537 428.467 53.801C428.533 54.065 428.635 54.296 428.775 54.494C428.914 54.6847 429.097 54.8387 429.325 54.956C429.552 55.066 429.831 55.121 430.161 55.121C430.483 55.121 430.755 55.0623 430.975 54.945C431.195 54.8203 431.374 54.659 431.514 54.461C431.66 54.2557 431.763 54.021 431.822 53.757C431.888 53.4857 431.921 53.207 431.921 52.921C431.921 52.6203 431.891 52.338 431.833 52.074C431.781 51.8027 431.686 51.568 431.547 51.37C431.415 51.172 431.235 51.0143 431.008 50.897C430.788 50.7797 430.505 50.721 430.161 50.721C429.823 50.721 429.541 50.7833 429.314 50.908C429.086 51.0253 428.903 51.1867 428.764 51.392C428.624 51.5973 428.525 51.8357 428.467 52.107C428.408 52.371 428.379 52.6533 428.379 52.954ZM429.919 47.058L424.001 55.231H424.947L430.854 47.058H429.919Z" fill="#50E3C2"/>
<path d="M390.005 50.6061L389.247 51.5152C388.969 51.85 388.516 51.85 388.237 51.5152C387.958 51.1805 387.958 50.6378 388.237 50.303L388.995 49.3939L387 47H392V53L390.005 50.6061Z" fill="#50E3C2"/>
<path opacity="0.2" d="M507.238 45.432V54H513.298V52.416H509.122V45.432H507.238ZM515.146 47.016V54H517.03V47.016H519.598V45.432H512.578V47.016H515.146ZM526.298 48.312H528.122C528.066 47.816 527.93 47.376 527.714 46.992C527.498 46.608 527.222 46.288 526.886 46.032C526.558 45.768 526.182 45.568 525.758 45.432C525.342 45.296 524.898 45.228 524.426 45.228C523.77 45.228 523.178 45.344 522.65 45.576C522.13 45.808 521.69 46.128 521.33 46.536C520.97 46.944 520.694 47.424 520.502 47.976C520.31 48.52 520.214 49.112 520.214 49.752C520.214 50.376 520.31 50.96 520.502 51.504C520.694 52.04 520.97 52.508 521.33 52.908C521.69 53.308 522.13 53.624 522.65 53.856C523.178 54.08 523.77 54.192 524.426 54.192C524.954 54.192 525.438 54.112 525.878 53.952C526.318 53.792 526.702 53.56 527.03 53.256C527.358 52.952 527.622 52.584 527.822 52.152C528.022 51.72 528.146 51.236 528.194 50.7H526.37C526.298 51.276 526.098 51.74 525.77 52.092C525.45 52.444 525.002 52.62 524.426 52.62C524.002 52.62 523.642 52.54 523.346 52.38C523.05 52.212 522.81 51.992 522.626 51.72C522.442 51.448 522.306 51.144 522.218 50.808C522.138 50.464 522.098 50.112 522.098 49.752C522.098 49.376 522.138 49.012 522.218 48.66C522.306 48.308 522.442 47.996 522.626 47.724C522.81 47.444 523.05 47.224 523.346 47.064C523.642 46.896 524.002 46.812 524.426 46.812C524.658 46.812 524.878 46.852 525.086 46.932C525.302 47.004 525.494 47.108 525.662 47.244C525.83 47.38 525.97 47.54 526.082 47.724C526.194 47.9 526.266 48.096 526.298 48.312Z" fill="white"/>
<path opacity="0.2" d="M575.1 50.76V45.432H573.216V50.76C573.216 51.4 573.088 51.872 572.832 52.176C572.576 52.472 572.112 52.62 571.44 52.62C571.056 52.62 570.748 52.568 570.516 52.464C570.292 52.352 570.116 52.212 569.988 52.044C569.86 51.868 569.776 51.668 569.736 51.444C569.696 51.22 569.676 50.992 569.676 50.76V45.432H567.792V50.76C567.792 51.928 568.108 52.792 568.74 53.352C569.38 53.912 570.28 54.192 571.44 54.192C572.584 54.192 573.48 53.912 574.128 53.352C574.776 52.784 575.1 51.92 575.1 50.76ZM578.007 51.156H576.183C576.175 51.684 576.271 52.14 576.471 52.524C576.671 52.908 576.939 53.224 577.275 53.472C577.619 53.72 578.011 53.9 578.451 54.012C578.899 54.132 579.359 54.192 579.831 54.192C580.415 54.192 580.927 54.124 581.367 53.988C581.815 53.852 582.187 53.664 582.483 53.424C582.787 53.176 583.015 52.884 583.167 52.548C583.319 52.212 583.395 51.848 583.395 51.456C583.395 50.976 583.291 50.584 583.083 50.28C582.883 49.968 582.643 49.72 582.363 49.536C582.083 49.352 581.799 49.22 581.511 49.14C581.231 49.052 581.011 48.992 580.851 48.96C580.315 48.824 579.879 48.712 579.543 48.624C579.215 48.536 578.955 48.448 578.763 48.36C578.579 48.272 578.455 48.176 578.391 48.072C578.327 47.968 578.295 47.832 578.295 47.664C578.295 47.48 578.335 47.328 578.415 47.208C578.495 47.088 578.595 46.988 578.715 46.908C578.843 46.828 578.983 46.772 579.135 46.74C579.287 46.708 579.439 46.692 579.591 46.692C579.823 46.692 580.035 46.712 580.227 46.752C580.427 46.792 580.603 46.86 580.755 46.956C580.907 47.052 581.027 47.184 581.115 47.352C581.211 47.52 581.267 47.732 581.283 47.988H583.107C583.107 47.492 583.011 47.072 582.819 46.728C582.635 46.376 582.383 46.088 582.063 45.864C581.743 45.64 581.375 45.48 580.959 45.384C580.551 45.28 580.123 45.228 579.675 45.228C579.291 45.228 578.907 45.28 578.523 45.384C578.139 45.488 577.795 45.648 577.491 45.864C577.187 46.08 576.939 46.352 576.747 46.68C576.563 47 576.471 47.38 576.471 47.82C576.471 48.212 576.543 48.548 576.687 48.828C576.839 49.1 577.035 49.328 577.275 49.512C577.515 49.696 577.787 49.848 578.091 49.968C578.395 50.08 578.707 50.176 579.027 50.256C579.339 50.344 579.647 50.424 579.951 50.496C580.255 50.568 580.527 50.652 580.767 50.748C581.007 50.844 581.199 50.964 581.343 51.108C581.495 51.252 581.571 51.44 581.571 51.672C581.571 51.888 581.515 52.068 581.403 52.212C581.291 52.348 581.151 52.456 580.983 52.536C580.815 52.616 580.635 52.672 580.443 52.704C580.251 52.728 580.071 52.74 579.903 52.74C579.655 52.74 579.415 52.712 579.183 52.656C578.951 52.592 578.747 52.5 578.571 52.38C578.403 52.252 578.267 52.088 578.163 51.888C578.059 51.688 578.007 51.444 578.007 51.156ZM586.4 52.416V47.016H587.744C588.208 47.016 588.596 47.084 588.908 47.22C589.228 47.348 589.484 47.536 589.676 47.784C589.868 48.032 590.004 48.332 590.084 48.684C590.172 49.028 590.216 49.416 590.216 49.848C590.216 50.32 590.156 50.72 590.036 51.048C589.916 51.376 589.756 51.644 589.556 51.852C589.356 52.052 589.128 52.196 588.872 52.284C588.616 52.372 588.352 52.416 588.08 52.416H586.4ZM584.516 45.432V54H588.212C588.868 54 589.436 53.892 589.916 53.676C590.404 53.452 590.808 53.148 591.128 52.764C591.456 52.38 591.7 51.924 591.86 51.396C592.02 50.868 592.1 50.292 592.1 49.668C592.1 48.956 592 48.336 591.8 47.808C591.608 47.28 591.336 46.84 590.984 46.488C590.64 46.136 590.227 45.872 589.747 45.696C589.276 45.52 588.764 45.432 588.212 45.432H584.516Z" fill="white"/>
<path d="M546 51L543 48L546 45" stroke="#37346F" stroke-width="2"/>
<path d="M549 55L552 52L549 49" stroke="#37346F" stroke-width="2"/>
<g filter="url(#filter4_f_51_60)">
<ellipse cx="657.991" cy="105.26" rx="11.5406" ry="10" transform="rotate(29 657.991 105.26)" fill="url(#paint4_linear_51_60)"/>
</g>
<g filter="url(#filter5_d_51_60)">
<path d="M658 108C641 140 627 108 618 116.5C605.776 128.045 602.596 108 593 108C583.404 108 581 128 569 128C554.562 128 557.562 112 547 112C541.483 112 538 128 527 128C516 128 519 105 504 105" stroke="url(#paint5_linear_51_60)" stroke-width="3" stroke-linecap="round" stroke-linejoin="round"/>
</g>
<path opacity="0.7" d="M510.052 86V73.947H508.947C508.868 74.4003 508.72 74.7743 508.505 75.069C508.29 75.3637 508.023 75.596 507.706 75.766C507.4 75.936 507.054 76.055 506.669 76.123C506.284 76.1797 505.887 76.208 505.479 76.208V77.364H508.607V86H510.052ZM515.69 80.067C515.69 79.7723 515.69 79.4493 515.69 79.098C515.702 78.7353 515.73 78.3783 515.775 78.027C515.832 77.6643 515.906 77.313 515.996 76.973C516.098 76.633 516.24 76.3383 516.421 76.089C516.614 75.8283 516.852 75.6187 517.135 75.46C517.419 75.3013 517.764 75.222 518.172 75.222C518.58 75.222 518.926 75.3013 519.209 75.46C519.493 75.6187 519.725 75.8283 519.906 76.089C520.099 76.3383 520.241 76.633 520.331 76.973C520.433 77.313 520.507 77.6643 520.552 78.027C520.609 78.3783 520.637 78.7353 520.637 79.098C520.649 79.4493 520.654 79.7723 520.654 80.067C520.654 80.5203 520.637 81.0303 520.603 81.597C520.581 82.1523 520.49 82.6793 520.331 83.178C520.184 83.6653 519.94 84.079 519.6 84.419C519.26 84.759 518.784 84.929 518.172 84.929C517.56 84.929 517.084 84.759 516.744 84.419C516.404 84.079 516.155 83.6653 515.996 83.178C515.849 82.6793 515.758 82.1523 515.724 81.597C515.702 81.0303 515.69 80.5203 515.69 80.067ZM514.16 80.084C514.16 80.526 514.172 80.985 514.194 81.461C514.217 81.937 514.274 82.4017 514.364 82.855C514.455 83.3083 514.585 83.739 514.755 84.147C514.925 84.5437 515.158 84.895 515.452 85.201C515.747 85.507 516.115 85.7507 516.557 85.932C517.011 86.102 517.549 86.187 518.172 86.187C518.807 86.187 519.345 86.102 519.787 85.932C520.229 85.7507 520.598 85.507 520.892 85.201C521.187 84.895 521.419 84.5437 521.589 84.147C521.759 83.739 521.89 83.3083 521.98 82.855C522.071 82.4017 522.128 81.937 522.15 81.461C522.173 80.985 522.184 80.526 522.184 80.084C522.184 79.642 522.173 79.183 522.15 78.707C522.128 78.231 522.071 77.7663 521.98 77.313C521.89 76.8597 521.759 76.429 521.589 76.021C521.419 75.613 521.187 75.256 520.892 74.95C520.598 74.644 520.224 74.4003 519.77 74.219C519.328 74.0377 518.796 73.947 518.172 73.947C517.549 73.947 517.011 74.0377 516.557 74.219C516.115 74.4003 515.747 74.644 515.452 74.95C515.158 75.256 514.925 75.613 514.755 76.021C514.585 76.429 514.455 76.8597 514.364 77.313C514.274 77.7663 514.217 78.231 514.194 78.707C514.172 79.183 514.16 79.642 514.16 80.084ZM528.656 81.903H524.61L528.622 76.004H528.656V81.903ZM530.016 81.903V73.947H528.86L523.369 81.784V83.178H528.656V86H530.016V83.178H531.648V81.903H530.016ZM533.75 84.113V86H534.753C534.764 86.136 534.753 86.2833 534.719 86.442C534.696 86.6007 534.645 86.7537 534.566 86.901C534.487 87.0597 534.379 87.2013 534.243 87.326C534.118 87.462 533.96 87.564 533.767 87.632V88.482C534.424 88.2893 534.9 87.9607 535.195 87.496C535.49 87.0313 535.637 86.476 535.637 85.83V84.113H533.75ZM537.818 78.214H539.263C539.252 77.8513 539.286 77.4943 539.365 77.143C539.456 76.7803 539.598 76.4573 539.79 76.174C539.983 75.8907 540.227 75.664 540.521 75.494C540.827 75.3127 541.19 75.222 541.609 75.222C541.927 75.222 542.227 75.273 542.51 75.375C542.794 75.477 543.037 75.6243 543.241 75.817C543.457 76.0097 543.627 76.242 543.751 76.514C543.876 76.7747 543.938 77.0693 543.938 77.398C543.938 77.8173 543.87 78.1857 543.734 78.503C543.61 78.8203 543.417 79.115 543.156 79.387C542.907 79.659 542.59 79.931 542.204 80.203C541.819 80.4637 541.371 80.7527 540.861 81.07C540.442 81.3193 540.04 81.5857 539.654 81.869C539.269 82.1523 538.923 82.481 538.617 82.855C538.311 83.229 538.056 83.671 537.852 84.181C537.66 84.6797 537.535 85.286 537.478 86H545.349V84.725H539.161C539.229 84.351 539.371 84.0223 539.586 83.739C539.813 83.4443 540.079 83.1723 540.385 82.923C540.703 82.6737 541.048 82.4413 541.422 82.226C541.796 81.9993 542.17 81.7727 542.544 81.546C542.918 81.308 543.281 81.0587 543.632 80.798C543.984 80.5373 544.295 80.2483 544.567 79.931C544.839 79.6023 545.055 79.234 545.213 78.826C545.383 78.418 545.468 77.9477 545.468 77.415C545.468 76.8483 545.366 76.3497 545.162 75.919C544.97 75.4883 544.703 75.1313 544.363 74.848C544.023 74.5533 543.621 74.3323 543.156 74.185C542.703 74.0263 542.216 73.947 541.694 73.947C541.06 73.947 540.493 74.0547 539.994 74.27C539.496 74.4853 539.076 74.7857 538.736 75.171C538.408 75.545 538.164 75.9927 538.005 76.514C537.847 77.0353 537.784 77.602 537.818 78.214ZM550.223 79.115V80.339C550.495 80.305 550.784 80.288 551.09 80.288C551.452 80.288 551.787 80.339 552.093 80.441C552.41 80.5317 552.682 80.679 552.909 80.883C553.135 81.0757 553.317 81.3193 553.453 81.614C553.589 81.8973 553.657 82.226 553.657 82.6C553.657 82.9627 553.583 83.2913 553.436 83.586C553.3 83.8693 553.113 84.113 552.875 84.317C552.637 84.5097 552.359 84.6627 552.042 84.776C551.724 84.878 551.39 84.929 551.039 84.929C550.211 84.929 549.582 84.6853 549.152 84.198C548.721 83.6993 548.494 83.059 548.472 82.277H547.027C547.015 82.9003 547.1 83.4557 547.282 83.943C547.474 84.4303 547.746 84.844 548.098 85.184C548.449 85.5127 548.874 85.762 549.373 85.932C549.871 86.102 550.427 86.187 551.039 86.187C551.605 86.187 552.138 86.1133 552.637 85.966C553.147 85.8073 553.589 85.575 553.963 85.269C554.337 84.963 554.631 84.5833 554.847 84.13C555.073 83.6653 555.187 83.1327 555.187 82.532C555.187 81.8067 555.005 81.1777 554.643 80.645C554.291 80.1123 553.747 79.7667 553.011 79.608V79.574C553.487 79.3587 553.883 79.0413 554.201 78.622C554.518 78.2027 554.677 77.721 554.677 77.177C554.677 76.6217 554.58 76.14 554.388 75.732C554.206 75.324 553.951 74.9897 553.623 74.729C553.294 74.4683 552.903 74.2757 552.45 74.151C552.008 74.015 551.526 73.947 551.005 73.947C550.404 73.947 549.871 74.0433 549.407 74.236C548.953 74.4287 548.574 74.695 548.268 75.035C547.962 75.375 547.724 75.783 547.554 76.259C547.395 76.735 547.304 77.262 547.282 77.84H548.727C548.727 77.4887 548.772 77.1543 548.863 76.837C548.953 76.5197 549.089 76.242 549.271 76.004C549.463 75.766 549.701 75.579 549.985 75.443C550.279 75.2957 550.619 75.222 551.005 75.222C551.617 75.222 552.127 75.3863 552.535 75.715C552.943 76.0323 553.147 76.514 553.147 77.16C553.147 77.4773 553.084 77.7607 552.96 78.01C552.835 78.2593 552.665 78.469 552.45 78.639C552.246 78.7977 552.002 78.9223 551.719 79.013C551.447 79.0923 551.158 79.132 550.852 79.132H550.546C550.489 79.132 550.432 79.132 550.376 79.132C550.33 79.132 550.279 79.1263 550.223 79.115Z" fill="white"/>
<path d="M635.674 51.843V49.434H634.926V51.843H632.528V52.591H634.926V55H635.674V52.591H638.072V51.843H635.674ZM644.195 48.136V47.333H639.146V48.213H643.238C642.827 48.6457 642.442 49.1187 642.083 49.632C641.731 50.1453 641.419 50.6917 641.148 51.271C640.876 51.843 640.653 52.4443 640.477 53.075C640.308 53.6983 640.202 54.34 640.158 55H641.203C641.239 54.3913 641.342 53.7643 641.511 53.119C641.679 52.4737 641.896 51.8467 642.16 51.238C642.431 50.6293 642.739 50.0573 643.084 49.522C643.428 48.9867 643.799 48.5247 644.195 48.136ZM649.878 48.158V47.333H646.028L645.302 51.381L646.105 51.425C646.288 51.205 646.497 51.029 646.732 50.897C646.974 50.7577 647.249 50.688 647.557 50.688C647.821 50.688 648.059 50.732 648.272 50.82C648.492 50.908 648.679 51.0327 648.833 51.194C648.987 51.348 649.104 51.535 649.185 51.755C649.273 51.9677 649.317 52.2023 649.317 52.459C649.317 52.767 649.273 53.0383 649.185 53.273C649.097 53.5003 648.976 53.691 648.822 53.845C648.675 53.999 648.499 54.1163 648.294 54.197C648.096 54.2703 647.887 54.307 647.667 54.307C647.432 54.307 647.216 54.274 647.018 54.208C646.827 54.1347 646.659 54.0357 646.512 53.911C646.373 53.779 646.259 53.6287 646.171 53.46C646.09 53.284 646.043 53.097 646.028 52.899H645.093C645.1 53.251 645.17 53.5663 645.302 53.845C645.434 54.1237 645.614 54.3583 645.841 54.549C646.068 54.7323 646.329 54.8753 646.622 54.978C646.923 55.0733 647.242 55.121 647.579 55.121C648.034 55.121 648.43 55.0513 648.767 54.912C649.112 54.7653 649.398 54.571 649.625 54.329C649.852 54.087 650.021 53.812 650.131 53.504C650.248 53.1887 650.307 52.866 650.307 52.536C650.307 52.0887 650.241 51.7 650.109 51.37C649.977 51.0327 649.797 50.754 649.57 50.534C649.343 50.3067 649.075 50.138 648.767 50.028C648.459 49.918 648.133 49.863 647.788 49.863C647.524 49.863 647.256 49.9107 646.985 50.006C646.721 50.094 646.505 50.2333 646.336 50.424L646.314 50.402L646.732 48.158H649.878ZM651.733 53.779V55H652.954V53.779H651.733ZM658.436 49.192H659.371C659.312 48.5467 659.092 48.0553 658.711 47.718C658.33 47.3733 657.816 47.201 657.171 47.201C656.614 47.201 656.152 47.3183 655.785 47.553C655.418 47.7877 655.125 48.0993 654.905 48.488C654.685 48.8767 654.527 49.324 654.432 49.83C654.344 50.3287 654.3 50.8457 654.3 51.381C654.3 51.7917 654.329 52.217 654.388 52.657C654.454 53.097 654.582 53.5003 654.773 53.867C654.964 54.2337 655.235 54.5343 655.587 54.769C655.939 55.0037 656.405 55.121 656.984 55.121C657.475 55.121 657.886 55.0403 658.216 54.879C658.553 54.7103 658.821 54.5013 659.019 54.252C659.224 53.9953 659.371 53.713 659.459 53.405C659.547 53.097 659.591 52.8 659.591 52.514C659.591 52.1547 659.536 51.821 659.426 51.513C659.316 51.205 659.158 50.9373 658.953 50.71C658.755 50.4827 658.506 50.3067 658.205 50.182C657.912 50.05 657.578 49.984 657.204 49.984C656.779 49.984 656.401 50.0647 656.071 50.226C655.748 50.3873 655.477 50.6477 655.257 51.007L655.235 50.985C655.242 50.6843 655.272 50.3617 655.323 50.017C655.374 49.6723 655.466 49.3533 655.598 49.06C655.737 48.7593 655.928 48.5137 656.17 48.323C656.412 48.125 656.731 48.026 657.127 48.026C657.501 48.026 657.802 48.1323 658.029 48.345C658.256 48.5577 658.392 48.84 658.436 49.192ZM657.028 50.809C657.292 50.809 657.523 50.8567 657.721 50.952C657.919 51.0473 658.084 51.1757 658.216 51.337C658.348 51.491 658.443 51.678 658.502 51.898C658.568 52.1107 658.601 52.338 658.601 52.58C658.601 52.8073 658.564 53.0273 658.491 53.24C658.425 53.4453 658.326 53.6287 658.194 53.79C658.062 53.9513 657.897 54.0797 657.699 54.175C657.508 54.263 657.285 54.307 657.028 54.307C656.771 54.307 656.54 54.263 656.335 54.175C656.137 54.0797 655.968 53.955 655.829 53.801C655.697 53.647 655.594 53.4637 655.521 53.251C655.448 53.0383 655.411 52.811 655.411 52.569C655.411 52.327 655.444 52.0997 655.51 51.887C655.583 51.667 655.69 51.48 655.829 51.326C655.968 51.1647 656.137 51.04 656.335 50.952C656.533 50.8567 656.764 50.809 657.028 50.809ZM661.468 53.119H660.533C660.592 53.7937 660.837 54.296 661.27 54.626C661.703 54.956 662.245 55.121 662.898 55.121C663.844 55.121 664.53 54.7617 664.955 54.043C665.388 53.317 665.604 52.2793 665.604 50.93C665.604 50.1893 665.531 49.5807 665.384 49.104C665.245 48.62 665.054 48.2387 664.812 47.96C664.57 47.6813 664.288 47.487 663.965 47.377C663.642 47.2597 663.298 47.201 662.931 47.201C662.557 47.201 662.212 47.2633 661.897 47.388C661.582 47.5127 661.31 47.6887 661.083 47.916C660.856 48.136 660.68 48.4037 660.555 48.719C660.43 49.027 660.368 49.368 660.368 49.742C660.368 50.1233 660.419 50.4753 660.522 50.798C660.632 51.1207 660.79 51.3957 660.995 51.623C661.208 51.8503 661.468 52.03 661.776 52.162C662.084 52.2867 662.436 52.349 662.832 52.349C663.213 52.349 663.565 52.2537 663.888 52.063C664.211 51.865 664.46 51.601 664.636 51.271L664.658 51.293C664.629 52.3123 664.471 53.0713 664.185 53.57C663.899 54.0613 663.47 54.307 662.898 54.307C662.524 54.307 662.201 54.2043 661.93 53.999C661.659 53.7937 661.505 53.5003 661.468 53.119ZM664.493 49.808C664.493 50.0353 664.456 50.2553 664.383 50.468C664.31 50.6733 664.203 50.8567 664.064 51.018C663.925 51.172 663.756 51.2967 663.558 51.392C663.36 51.48 663.14 51.524 662.898 51.524C662.671 51.524 662.462 51.48 662.271 51.392C662.088 51.2967 661.926 51.172 661.787 51.018C661.655 50.864 661.549 50.688 661.468 50.49C661.395 50.292 661.358 50.0867 661.358 49.874C661.358 49.632 661.384 49.401 661.435 49.181C661.494 48.961 661.582 48.7667 661.699 48.598C661.824 48.422 661.981 48.2827 662.172 48.18C662.37 48.0773 662.608 48.026 662.887 48.026C663.151 48.026 663.382 48.0737 663.58 48.169C663.778 48.2643 663.943 48.3963 664.075 48.565C664.214 48.7263 664.317 48.9133 664.383 49.126C664.456 49.3387 664.493 49.566 664.493 49.808ZM667.943 49.412C667.943 49.2433 667.954 49.0673 667.976 48.884C667.998 48.6933 668.042 48.521 668.108 48.367C668.182 48.2057 668.281 48.0737 668.405 47.971C668.53 47.861 668.695 47.806 668.9 47.806C669.113 47.806 669.278 47.861 669.395 47.971C669.52 48.0737 669.615 48.2057 669.681 48.367C669.747 48.521 669.788 48.6933 669.802 48.884C669.824 49.0673 669.835 49.2397 669.835 49.401C669.835 49.5697 669.824 49.7493 669.802 49.94C669.78 50.1307 669.733 50.3067 669.659 50.468C669.593 50.622 669.498 50.7503 669.373 50.853C669.249 50.9557 669.08 51.007 668.867 51.007C668.662 51.007 668.497 50.9557 668.372 50.853C668.255 50.743 668.163 50.611 668.097 50.457C668.031 50.2957 667.987 50.1233 667.965 49.94C667.951 49.7493 667.943 49.5733 667.943 49.412ZM667.118 49.434C667.118 49.7347 667.148 50.017 667.206 50.281C667.272 50.545 667.375 50.776 667.514 50.974C667.654 51.172 667.837 51.3297 668.064 51.447C668.292 51.557 668.57 51.612 668.9 51.612C669.223 51.612 669.494 51.5497 669.714 51.425C669.934 51.3003 670.114 51.139 670.253 50.941C670.4 50.7357 670.503 50.501 670.561 50.237C670.627 49.9657 670.66 49.687 670.66 49.401C670.66 49.1003 670.631 48.818 670.572 48.554C670.521 48.2827 670.426 48.048 670.286 47.85C670.154 47.652 669.975 47.4943 669.747 47.377C669.527 47.2597 669.245 47.201 668.9 47.201C668.563 47.201 668.281 47.2633 668.053 47.388C667.826 47.5053 667.643 47.6667 667.503 47.872C667.364 48.0773 667.265 48.3157 667.206 48.587C667.148 48.851 667.118 49.1333 667.118 49.434ZM673.377 52.932C673.377 52.7633 673.388 52.5873 673.41 52.404C673.432 52.2133 673.476 52.041 673.542 51.887C673.616 51.7257 673.715 51.5937 673.839 51.491C673.964 51.381 674.129 51.326 674.334 51.326C674.547 51.326 674.712 51.381 674.829 51.491C674.954 51.5937 675.049 51.7257 675.115 51.887C675.181 52.041 675.222 52.2133 675.236 52.404C675.258 52.5873 675.269 52.7597 675.269 52.921C675.269 53.0897 675.258 53.2693 675.236 53.46C675.214 53.6507 675.167 53.8267 675.093 53.988C675.027 54.142 674.932 54.2703 674.807 54.373C674.683 54.4757 674.514 54.527 674.301 54.527C674.096 54.527 673.931 54.4757 673.806 54.373C673.689 54.263 673.597 54.131 673.531 53.977C673.465 53.8157 673.421 53.6433 673.399 53.46C673.385 53.2693 673.377 53.0933 673.377 52.932ZM672.552 52.954C672.552 53.2547 672.582 53.537 672.64 53.801C672.706 54.065 672.809 54.296 672.948 54.494C673.088 54.6847 673.271 54.8387 673.498 54.956C673.726 55.066 674.004 55.121 674.334 55.121C674.657 55.121 674.928 55.0623 675.148 54.945C675.368 54.8203 675.548 54.659 675.687 54.461C675.834 54.2557 675.937 54.021 675.995 53.757C676.061 53.4857 676.094 53.207 676.094 52.921C676.094 52.6203 676.065 52.338 676.006 52.074C675.955 51.8027 675.86 51.568 675.72 51.37C675.588 51.172 675.409 51.0143 675.181 50.897C674.961 50.7797 674.679 50.721 674.334 50.721C673.997 50.721 673.715 50.7833 673.487 50.908C673.26 51.0253 673.077 51.1867 672.937 51.392C672.798 51.5973 672.699 51.8357 672.64 52.107C672.582 52.371 672.552 52.6533 672.552 52.954ZM674.092 47.058L668.174 55.231H669.12L675.027 47.058H674.092Z" fill="#50E3C2"/>
<path d="M625.005 50.6061L624.247 51.5152C623.969 51.85 623.516 51.85 623.237 51.5152C622.958 51.1805 622.958 50.6378 623.237 50.303L623.995 49.3939L622 47H627V53L625.005 50.6061Z" fill="#50E3C2"/>
<path opacity="0.2" d="M36.7415 189.9V187.896H38.5055C38.6735 187.896 38.8335 187.912 38.9855 187.944C39.1455 187.968 39.2855 188.016 39.4055 188.088C39.5255 188.16 39.6215 188.26 39.6935 188.388C39.7655 188.516 39.8015 188.68 39.8015 188.88C39.8015 189.24 39.6935 189.5 39.4775 189.66C39.2615 189.82 38.9855 189.9 38.6495 189.9H36.7415ZM34.8575 186.432V195H39.0095C39.3935 195 39.7655 194.952 40.1255 194.856C40.4935 194.76 40.8175 194.612 41.0975 194.412C41.3855 194.212 41.6135 193.956 41.7815 193.644C41.9495 193.324 42.0335 192.948 42.0335 192.516C42.0335 191.98 41.9015 191.524 41.6375 191.148C41.3815 190.764 40.9895 190.496 40.4615 190.344C40.8455 190.16 41.1335 189.924 41.3255 189.636C41.5255 189.348 41.6255 188.988 41.6255 188.556C41.6255 188.156 41.5575 187.82 41.4215 187.548C41.2935 187.276 41.1095 187.06 40.8695 186.9C40.6295 186.732 40.3415 186.612 40.0055 186.54C39.6695 186.468 39.2975 186.432 38.8895 186.432H34.8575ZM36.7415 193.536V191.184H38.7935C39.2015 191.184 39.5295 191.28 39.7775 191.472C40.0255 191.656 40.1495 191.968 40.1495 192.408C40.1495 192.632 40.1095 192.816 40.0295 192.96C39.9575 193.104 39.8575 193.22 39.7295 193.308C39.6015 193.388 39.4535 193.448 39.2855 193.488C39.1175 193.52 38.9415 193.536 38.7575 193.536H36.7415ZM45.2028 188.016V195H47.0868V188.016H49.6548V186.432H42.6348V188.016H45.2028ZM56.3547 189.312H58.1787C58.1227 188.816 57.9867 188.376 57.7707 187.992C57.5547 187.608 57.2787 187.288 56.9427 187.032C56.6147 186.768 56.2387 186.568 55.8147 186.432C55.3987 186.296 54.9547 186.228 54.4827 186.228C53.8267 186.228 53.2347 186.344 52.7067 186.576C52.1867 186.808 51.7467 187.128 51.3867 187.536C51.0267 187.944 50.7507 188.424 50.5587 188.976C50.3667 189.52 50.2707 190.112 50.2707 190.752C50.2707 191.376 50.3667 191.96 50.5587 192.504C50.7507 193.04 51.0267 193.508 51.3867 193.908C51.7467 194.308 52.1867 194.624 52.7067 194.856C53.2347 195.08 53.8267 195.192 54.4827 195.192C55.0107 195.192 55.4947 195.112 55.9347 194.952C56.3747 194.792 56.7587 194.56 57.0867 194.256C57.4147 193.952 57.6787 193.584 57.8787 193.152C58.0787 192.72 58.2027 192.236 58.2507 191.7H56.4267C56.3547 192.276 56.1547 192.74 55.8267 193.092C55.5067 193.444 55.0587 193.62 54.4827 193.62C54.0587 193.62 53.6987 193.54 53.4027 193.38C53.1067 193.212 52.8667 192.992 52.6827 192.72C52.4987 192.448 52.3627 192.144 52.2747 191.808C52.1947 191.464 52.1547 191.112 52.1547 190.752C52.1547 190.376 52.1947 190.012 52.2747 189.66C52.3627 189.308 52.4987 188.996 52.6827 188.724C52.8667 188.444 53.1067 188.224 53.4027 188.064C53.6987 187.896 54.0587 187.812 54.4827 187.812C54.7147 187.812 54.9347 187.852 55.1427 187.932C55.3587 188.004 55.5507 188.108 55.7187 188.244C55.8867 188.38 56.0267 188.54 56.1387 188.724C56.2507 188.9 56.3227 189.096 56.3547 189.312Z" fill="white"/>
<path opacity="0.2" d="M97.828 186.432V195H99.712V186.432H97.828ZM103.251 193.416V188.016H104.595C105.059 188.016 105.447 188.084 105.759 188.22C106.079 188.348 106.335 188.536 106.527 188.784C106.719 189.032 106.855 189.332 106.935 189.684C107.023 190.028 107.067 190.416 107.067 190.848C107.067 191.32 107.007 191.72 106.887 192.048C106.767 192.376 106.607 192.644 106.407 192.852C106.207 193.052 105.979 193.196 105.723 193.284C105.467 193.372 105.203 193.416 104.931 193.416H103.251ZM101.367 186.432V195H105.063C105.719 195 106.287 194.892 106.767 194.676C107.255 194.452 107.659 194.148 107.979 193.764C108.307 193.38 108.551 192.924 108.711 192.396C108.871 191.868 108.951 191.292 108.951 190.668C108.951 189.956 108.851 189.336 108.651 188.808C108.459 188.28 108.187 187.84 107.835 187.488C107.491 187.136 107.079 186.872 106.599 186.696C106.127 186.52 105.615 186.432 105.063 186.432H101.367ZM112.146 190.308V187.896H114.21C114.642 187.896 114.966 187.992 115.182 188.184C115.398 188.368 115.506 188.668 115.506 189.084C115.506 189.516 115.398 189.828 115.182 190.02C114.966 190.212 114.642 190.308 114.21 190.308H112.146ZM110.262 186.432V195H112.146V191.652H114.03C114.502 191.652 114.842 191.756 115.05 191.964C115.258 192.172 115.394 192.5 115.458 192.948C115.506 193.292 115.542 193.652 115.566 194.028C115.59 194.404 115.654 194.728 115.758 195H117.642C117.554 194.88 117.486 194.736 117.438 194.568C117.398 194.392 117.366 194.208 117.342 194.016C117.326 193.824 117.314 193.636 117.306 193.452C117.298 193.268 117.29 193.108 117.282 192.972C117.266 192.756 117.234 192.54 117.186 192.324C117.146 192.108 117.078 191.912 116.982 191.736C116.886 191.552 116.762 191.396 116.61 191.268C116.458 191.132 116.266 191.032 116.034 190.968V190.944C116.514 190.752 116.858 190.472 117.066 190.104C117.282 189.736 117.39 189.3 117.39 188.796C117.39 188.468 117.33 188.164 117.21 187.884C117.098 187.596 116.93 187.344 116.706 187.128C116.49 186.912 116.226 186.744 115.914 186.624C115.61 186.496 115.266 186.432 114.882 186.432H110.262Z" fill="white"/>
<path d="M76 192L73 189L76 186" stroke="#37346F" stroke-width="2"/>
<path d="M79 196L82 193L79 190" stroke="#37346F" stroke-width="2"/>
<g filter="url(#filter6_f_51_60)">
<ellipse cx="194.991" cy="237.26" rx="9.31022" ry="10" transform="rotate(29 194.991 237.26)" fill="url(#paint6_linear_51_60)"/>
</g>
<g filter="url(#filter7_d_51_60)">
<path d="M35.7485 253C35.7485 253 44.2783 272 51.7419 272C59.2055 272 70.4042 253 80.0002 253C89.5962 253 94.4042 261 104 261C113.596 261 123.603 246 130 246C136.398 246 154.272 261 166 261C176.441 261 194.3 242.346 200 237" stroke="url(#paint7_linear_51_60)" stroke-width="3" stroke-linecap="round" stroke-linejoin="round"/>
</g>
<path opacity="0.7" d="M40.052 227V214.947H38.947C38.8677 215.4 38.7203 215.774 38.505 216.069C38.2897 216.364 38.0233 216.596 37.706 216.766C37.4 216.936 37.0543 217.055 36.669 217.123C36.2837 217.18 35.887 217.208 35.479 217.208V218.364H38.607V227H40.052ZM45.6903 221.067C45.6903 220.772 45.6903 220.449 45.6903 220.098C45.7016 219.735 45.73 219.378 45.7753 219.027C45.832 218.664 45.9056 218.313 45.9963 217.973C46.0983 217.633 46.24 217.338 46.4213 217.089C46.614 216.828 46.852 216.619 47.1353 216.46C47.4186 216.301 47.7643 216.222 48.1723 216.222C48.5803 216.222 48.926 216.301 49.2093 216.46C49.4926 216.619 49.725 216.828 49.9063 217.089C50.099 217.338 50.2406 217.633 50.3313 217.973C50.4333 218.313 50.507 218.664 50.5523 219.027C50.609 219.378 50.6373 219.735 50.6373 220.098C50.6486 220.449 50.6543 220.772 50.6543 221.067C50.6543 221.52 50.6373 222.03 50.6033 222.597C50.5806 223.152 50.49 223.679 50.3313 224.178C50.184 224.665 49.9403 225.079 49.6003 225.419C49.2603 225.759 48.7843 225.929 48.1723 225.929C47.5603 225.929 47.0843 225.759 46.7443 225.419C46.4043 225.079 46.155 224.665 45.9963 224.178C45.849 223.679 45.7583 223.152 45.7243 222.597C45.7016 222.03 45.6903 221.52 45.6903 221.067ZM44.1603 221.084C44.1603 221.526 44.1716 221.985 44.1943 222.461C44.217 222.937 44.2736 223.402 44.3643 223.855C44.455 224.308 44.5853 224.739 44.7553 225.147C44.9253 225.544 45.1576 225.895 45.4523 226.201C45.747 226.507 46.1153 226.751 46.5573 226.932C47.0106 227.102 47.549 227.187 48.1723 227.187C48.807 227.187 49.3453 227.102 49.7873 226.932C50.2293 226.751 50.5976 226.507 50.8923 226.201C51.187 225.895 51.4193 225.544 51.5893 225.147C51.7593 224.739 51.8896 224.308 51.9803 223.855C52.071 223.402 52.1276 222.937 52.1503 222.461C52.173 221.985 52.1843 221.526 52.1843 221.084C52.1843 220.642 52.173 220.183 52.1503 219.707C52.1276 219.231 52.071 218.766 51.9803 218.313C51.8896 217.86 51.7593 217.429 51.5893 217.021C51.4193 216.613 51.187 216.256 50.8923 215.95C50.5976 215.644 50.2236 215.4 49.7703 215.219C49.3283 215.038 48.7956 214.947 48.1723 214.947C47.549 214.947 47.0106 215.038 46.5573 215.219C46.1153 215.4 45.747 215.644 45.4523 215.95C45.1576 216.256 44.9253 216.613 44.7553 217.021C44.5853 217.429 44.455 217.86 44.3643 218.313C44.2736 218.766 44.217 219.231 44.1943 219.707C44.1716 220.183 44.1603 220.642 44.1603 221.084ZM61.5456 216.392V215.151H53.7426V216.511H60.0666C59.4319 217.18 58.8369 217.911 58.2816 218.704C57.7376 219.497 57.2559 220.342 56.8366 221.237C56.4172 222.121 56.0716 223.05 55.7996 224.025C55.5389 224.988 55.3746 225.98 55.3066 227H56.9216C56.9782 226.059 57.1369 225.09 57.3976 224.093C57.6582 223.096 57.9926 222.127 58.4006 221.186C58.8199 220.245 59.2959 219.361 59.8286 218.534C60.3612 217.707 60.9336 216.993 61.5456 216.392ZM63.7499 225.113V227H65.6369V225.113H63.7499ZM75.0603 216.426V215.151H69.1103L67.9883 221.407L69.2293 221.475C69.5126 221.135 69.8356 220.863 70.1983 220.659C70.5723 220.444 70.9973 220.336 71.4733 220.336C71.8813 220.336 72.2496 220.404 72.5783 220.54C72.9183 220.676 73.2073 220.869 73.4453 221.118C73.6833 221.356 73.8646 221.645 73.9893 221.985C74.1253 222.314 74.1933 222.676 74.1933 223.073C74.1933 223.549 74.1253 223.968 73.9893 224.331C73.8533 224.682 73.6663 224.977 73.4283 225.215C73.2016 225.453 72.9296 225.634 72.6123 225.759C72.3063 225.872 71.9833 225.929 71.6433 225.929C71.2806 225.929 70.9463 225.878 70.6403 225.776C70.3456 225.663 70.085 225.51 69.8583 225.317C69.643 225.113 69.4673 224.881 69.3313 224.62C69.2066 224.348 69.133 224.059 69.1103 223.753H67.6653C67.6766 224.297 67.7843 224.784 67.9883 225.215C68.1923 225.646 68.47 226.008 68.8213 226.303C69.1726 226.586 69.575 226.807 70.0283 226.966C70.493 227.113 70.986 227.187 71.5073 227.187C72.21 227.187 72.822 227.079 73.3433 226.864C73.876 226.637 74.318 226.337 74.6693 225.963C75.0206 225.589 75.2813 225.164 75.4513 224.688C75.6326 224.201 75.7233 223.702 75.7233 223.192C75.7233 222.501 75.6213 221.9 75.4173 221.39C75.2133 220.869 74.9356 220.438 74.5843 220.098C74.233 219.747 73.8193 219.486 73.3433 219.316C72.8673 219.146 72.363 219.061 71.8303 219.061C71.4223 219.061 71.0086 219.135 70.5893 219.282C70.1813 219.418 69.847 219.633 69.5863 219.928L69.5523 219.894L70.1983 216.426H75.0603ZM82.2796 222.903H78.2336L82.2456 217.004H82.2796V222.903ZM83.6396 222.903V214.947H82.4836L76.9926 222.784V224.178H82.2796V227H83.6396V224.178H85.2716V222.903H83.6396ZM89.6689 220.115V221.339C89.9409 221.305 90.2299 221.288 90.5359 221.288C90.8986 221.288 91.2329 221.339 91.5389 221.441C91.8562 221.532 92.1282 221.679 92.3549 221.883C92.5816 222.076 92.7629 222.319 92.8989 222.614C93.0349 222.897 93.1029 223.226 93.1029 223.6C93.1029 223.963 93.0292 224.291 92.8819 224.586C92.7459 224.869 92.5589 225.113 92.3209 225.317C92.0829 225.51 91.8052 225.663 91.4879 225.776C91.1706 225.878 90.8362 225.929 90.4849 225.929C89.6576 225.929 89.0286 225.685 88.5979 225.198C88.1672 224.699 87.9406 224.059 87.9179 223.277H86.4729C86.4616 223.9 86.5466 224.456 86.7279 224.943C86.9206 225.43 87.1926 225.844 87.5439 226.184C87.8952 226.513 88.3202 226.762 88.8189 226.932C89.3176 227.102 89.8729 227.187 90.4849 227.187C91.0516 227.187 91.5842 227.113 92.0829 226.966C92.5929 226.807 93.0349 226.575 93.4089 226.269C93.7829 225.963 94.0776 225.583 94.2929 225.13C94.5196 224.665 94.6329 224.133 94.6329 223.532C94.6329 222.807 94.4516 222.178 94.0889 221.645C93.7376 221.112 93.1936 220.767 92.4569 220.608V220.574C92.9329 220.359 93.3296 220.041 93.6469 219.622C93.9642 219.203 94.1229 218.721 94.1229 218.177C94.1229 217.622 94.0266 217.14 93.8339 216.732C93.6526 216.324 93.3976 215.99 93.0689 215.729C92.7402 215.468 92.3492 215.276 91.8959 215.151C91.4539 215.015 90.9722 214.947 90.4509 214.947C89.8502 214.947 89.3176 215.043 88.8529 215.236C88.3996 215.429 88.0199 215.695 87.7139 216.035C87.4079 216.375 87.1699 216.783 86.9999 217.259C86.8412 217.735 86.7506 218.262 86.7279 218.84H88.1729C88.1729 218.489 88.2182 218.154 88.3089 217.837C88.3996 217.52 88.5356 217.242 88.7169 217.004C88.9096 216.766 89.1476 216.579 89.4309 216.443C89.7256 216.296 90.0656 216.222 90.4509 216.222C91.0629 216.222 91.5729 216.386 91.9809 216.715C92.3889 217.032 92.5929 217.514 92.5929 218.16C92.5929 218.477 92.5306 218.761 92.4059 219.01C92.2812 219.259 92.1112 219.469 91.8959 219.639C91.6919 219.798 91.4482 219.922 91.1649 220.013C90.8929 220.092 90.6039 220.132 90.2979 220.132H89.9919C89.9352 220.132 89.8786 220.132 89.8219 220.132C89.7766 220.132 89.7256 220.126 89.6689 220.115ZM96.8202 225.113V227H97.8232C97.8345 227.136 97.8232 227.283 97.7892 227.442C97.7665 227.601 97.7155 227.754 97.6362 227.901C97.5568 228.06 97.4492 228.201 97.3132 228.326C97.1885 228.462 97.0298 228.564 96.8372 228.632V229.482C97.4945 229.289 97.9705 228.961 98.2652 228.496C98.5598 228.031 98.7072 227.476 98.7072 226.83V225.113H96.8202ZM100.889 219.214H102.334C102.322 218.851 102.356 218.494 102.436 218.143C102.526 217.78 102.668 217.457 102.861 217.174C103.053 216.891 103.297 216.664 103.592 216.494C103.898 216.313 104.26 216.222 104.68 216.222C104.997 216.222 105.297 216.273 105.581 216.375C105.864 216.477 106.108 216.624 106.312 216.817C106.527 217.01 106.697 217.242 106.822 217.514C106.946 217.775 107.009 218.069 107.009 218.398C107.009 218.817 106.941 219.186 106.805 219.503C106.68 219.82 106.487 220.115 106.227 220.387C105.977 220.659 105.66 220.931 105.275 221.203C104.889 221.464 104.442 221.753 103.932 222.07C103.512 222.319 103.11 222.586 102.725 222.869C102.339 223.152 101.994 223.481 101.688 223.855C101.382 224.229 101.127 224.671 100.923 225.181C100.73 225.68 100.605 226.286 100.549 227H108.42V225.725H102.232C102.3 225.351 102.441 225.022 102.657 224.739C102.883 224.444 103.15 224.172 103.456 223.923C103.773 223.674 104.119 223.441 104.493 223.226C104.867 222.999 105.241 222.773 105.615 222.546C105.989 222.308 106.351 222.059 106.703 221.798C107.054 221.537 107.366 221.248 107.638 220.931C107.91 220.602 108.125 220.234 108.284 219.826C108.454 219.418 108.539 218.948 108.539 218.415C108.539 217.848 108.437 217.35 108.233 216.919C108.04 216.488 107.774 216.131 107.434 215.848C107.094 215.553 106.691 215.332 106.227 215.185C105.773 215.026 105.286 214.947 104.765 214.947C104.13 214.947 103.563 215.055 103.065 215.27C102.566 215.485 102.147 215.786 101.807 216.171C101.478 216.545 101.234 216.993 101.076 217.514C100.917 218.035 100.855 218.602 100.889 219.214ZM113.293 220.115V221.339C113.565 221.305 113.854 221.288 114.16 221.288C114.523 221.288 114.857 221.339 115.163 221.441C115.48 221.532 115.752 221.679 115.979 221.883C116.206 222.076 116.387 222.319 116.523 222.614C116.659 222.897 116.727 223.226 116.727 223.6C116.727 223.963 116.653 224.291 116.506 224.586C116.37 224.869 116.183 225.113 115.945 225.317C115.707 225.51 115.429 225.663 115.112 225.776C114.795 225.878 114.46 225.929 114.109 225.929C113.282 225.929 112.653 225.685 112.222 225.198C111.791 224.699 111.565 224.059 111.542 223.277H110.097C110.086 223.9 110.171 224.456 110.352 224.943C110.545 225.43 110.817 225.844 111.168 226.184C111.519 226.513 111.944 226.762 112.443 226.932C112.942 227.102 113.497 227.187 114.109 227.187C114.676 227.187 115.208 227.113 115.707 226.966C116.217 226.807 116.659 226.575 117.033 226.269C117.407 225.963 117.702 225.583 117.917 225.13C118.144 224.665 118.257 224.133 118.257 223.532C118.257 222.807 118.076 222.178 117.713 221.645C117.362 221.112 116.818 220.767 116.081 220.608V220.574C116.557 220.359 116.954 220.041 117.271 219.622C117.588 219.203 117.747 218.721 117.747 218.177C117.747 217.622 117.651 217.14 117.458 216.732C117.277 216.324 117.022 215.99 116.693 215.729C116.364 215.468 115.973 215.276 115.52 215.151C115.078 215.015 114.596 214.947 114.075 214.947C113.474 214.947 112.942 215.043 112.477 215.236C112.024 215.429 111.644 215.695 111.338 216.035C111.032 216.375 110.794 216.783 110.624 217.259C110.465 217.735 110.375 218.262 110.352 218.84H111.797C111.797 218.489 111.842 218.154 111.933 217.837C112.024 217.52 112.16 217.242 112.341 217.004C112.534 216.766 112.772 216.579 113.055 216.443C113.35 216.296 113.69 216.222 114.075 216.222C114.687 216.222 115.197 216.386 115.605 216.715C116.013 217.032 116.217 217.514 116.217 218.16C116.217 218.477 116.155 218.761 116.03 219.01C115.905 219.259 115.735 219.469 115.52 219.639C115.316 219.798 115.072 219.922 114.789 220.013C114.517 220.092 114.228 220.132 113.922 220.132H113.616C113.559 220.132 113.503 220.132 113.446 220.132C113.401 220.132 113.35 220.126 113.293 220.115ZM124.796 222.903H120.75L124.762 217.004H124.796V222.903ZM126.156 222.903V214.947H125L119.509 222.784V224.178H124.796V227H126.156V224.178H127.788V222.903H126.156Z" fill="white"/>
<path d="M175.674 192.843V190.434H174.926V192.843H172.528V193.591H174.926V196H175.674V193.591H178.072V192.843H175.674ZM182.512 196V188.201H181.797C181.745 188.494 181.65 188.736 181.511 188.927C181.371 189.118 181.199 189.268 180.994 189.378C180.796 189.488 180.572 189.565 180.323 189.609C180.073 189.646 179.817 189.664 179.553 189.664V190.412H181.577V196H182.512ZM187.106 191.545V192.337C187.282 192.315 187.469 192.304 187.667 192.304C187.902 192.304 188.118 192.337 188.316 192.403C188.521 192.462 188.697 192.557 188.844 192.689C188.991 192.814 189.108 192.971 189.196 193.162C189.284 193.345 189.328 193.558 189.328 193.8C189.328 194.035 189.28 194.247 189.185 194.438C189.097 194.621 188.976 194.779 188.822 194.911C188.668 195.036 188.488 195.135 188.283 195.208C188.078 195.274 187.861 195.307 187.634 195.307C187.099 195.307 186.692 195.149 186.413 194.834C186.134 194.511 185.988 194.097 185.973 193.591H185.038C185.031 193.994 185.086 194.354 185.203 194.669C185.328 194.984 185.504 195.252 185.731 195.472C185.958 195.685 186.233 195.846 186.556 195.956C186.879 196.066 187.238 196.121 187.634 196.121C188.001 196.121 188.345 196.073 188.668 195.978C188.998 195.875 189.284 195.725 189.526 195.527C189.768 195.329 189.959 195.083 190.098 194.79C190.245 194.489 190.318 194.145 190.318 193.756C190.318 193.287 190.201 192.88 189.966 192.535C189.739 192.19 189.387 191.967 188.91 191.864V191.842C189.218 191.703 189.475 191.497 189.68 191.226C189.885 190.955 189.988 190.643 189.988 190.291C189.988 189.932 189.926 189.62 189.801 189.356C189.684 189.092 189.519 188.876 189.306 188.707C189.093 188.538 188.84 188.414 188.547 188.333C188.261 188.245 187.949 188.201 187.612 188.201C187.223 188.201 186.879 188.263 186.578 188.388C186.285 188.513 186.039 188.685 185.841 188.905C185.643 189.125 185.489 189.389 185.379 189.697C185.276 190.005 185.218 190.346 185.203 190.72H186.138C186.138 190.493 186.167 190.276 186.226 190.071C186.285 189.866 186.373 189.686 186.49 189.532C186.615 189.378 186.769 189.257 186.952 189.169C187.143 189.074 187.363 189.026 187.612 189.026C188.008 189.026 188.338 189.132 188.602 189.345C188.866 189.55 188.998 189.862 188.998 190.28C188.998 190.485 188.958 190.669 188.877 190.83C188.796 190.991 188.686 191.127 188.547 191.237C188.415 191.34 188.257 191.42 188.074 191.479C187.898 191.53 187.711 191.556 187.513 191.556H187.315C187.278 191.556 187.242 191.556 187.205 191.556C187.176 191.556 187.143 191.552 187.106 191.545ZM191.304 190.962H192.239C192.232 190.727 192.254 190.496 192.305 190.269C192.364 190.034 192.456 189.825 192.58 189.642C192.705 189.459 192.863 189.312 193.053 189.202C193.251 189.085 193.486 189.026 193.757 189.026C193.963 189.026 194.157 189.059 194.34 189.125C194.524 189.191 194.681 189.286 194.813 189.411C194.953 189.536 195.063 189.686 195.143 189.862C195.224 190.031 195.264 190.221 195.264 190.434C195.264 190.705 195.22 190.944 195.132 191.149C195.052 191.354 194.927 191.545 194.758 191.721C194.597 191.897 194.392 192.073 194.142 192.249C193.893 192.418 193.603 192.605 193.273 192.81C193.002 192.971 192.742 193.144 192.492 193.327C192.243 193.51 192.019 193.723 191.821 193.965C191.623 194.207 191.458 194.493 191.326 194.823C191.202 195.146 191.121 195.538 191.084 196H196.177V195.175H192.173C192.217 194.933 192.309 194.72 192.448 194.537C192.595 194.346 192.767 194.17 192.965 194.009C193.171 193.848 193.394 193.697 193.636 193.558C193.878 193.411 194.12 193.265 194.362 193.118C194.604 192.964 194.839 192.803 195.066 192.634C195.294 192.465 195.495 192.278 195.671 192.073C195.847 191.86 195.987 191.622 196.089 191.358C196.199 191.094 196.254 190.79 196.254 190.445C196.254 190.078 196.188 189.756 196.056 189.477C195.932 189.198 195.759 188.967 195.539 188.784C195.319 188.593 195.059 188.45 194.758 188.355C194.465 188.252 194.15 188.201 193.812 188.201C193.402 188.201 193.035 188.271 192.712 188.41C192.39 188.549 192.118 188.744 191.898 188.993C191.686 189.235 191.528 189.525 191.425 189.862C191.323 190.199 191.282 190.566 191.304 190.962ZM198.77 190.412C198.77 190.243 198.781 190.067 198.803 189.884C198.825 189.693 198.869 189.521 198.935 189.367C199.008 189.206 199.107 189.074 199.232 188.971C199.356 188.861 199.521 188.806 199.727 188.806C199.939 188.806 200.104 188.861 200.222 188.971C200.346 189.074 200.442 189.206 200.508 189.367C200.574 189.521 200.614 189.693 200.629 189.884C200.651 190.067 200.662 190.24 200.662 190.401C200.662 190.57 200.651 190.749 200.629 190.94C200.607 191.131 200.559 191.307 200.486 191.468C200.42 191.622 200.324 191.75 200.2 191.853C200.075 191.956 199.906 192.007 199.694 192.007C199.488 192.007 199.323 191.956 199.199 191.853C199.081 191.743 198.99 191.611 198.924 191.457C198.858 191.296 198.814 191.123 198.792 190.94C198.777 190.749 198.77 190.573 198.77 190.412ZM197.945 190.434C197.945 190.735 197.974 191.017 198.033 191.281C198.099 191.545 198.201 191.776 198.341 191.974C198.48 192.172 198.663 192.33 198.891 192.447C199.118 192.557 199.397 192.612 199.727 192.612C200.049 192.612 200.321 192.55 200.541 192.425C200.761 192.3 200.94 192.139 201.08 191.941C201.226 191.736 201.329 191.501 201.388 191.237C201.454 190.966 201.487 190.687 201.487 190.401C201.487 190.1 201.457 189.818 201.399 189.554C201.347 189.283 201.252 189.048 201.113 188.85C200.981 188.652 200.801 188.494 200.574 188.377C200.354 188.26 200.071 188.201 199.727 188.201C199.389 188.201 199.107 188.263 198.88 188.388C198.652 188.505 198.469 188.667 198.33 188.872C198.19 189.077 198.091 189.316 198.033 189.587C197.974 189.851 197.945 190.133 197.945 190.434ZM204.204 193.932C204.204 193.763 204.215 193.587 204.237 193.404C204.259 193.213 204.303 193.041 204.369 192.887C204.442 192.726 204.541 192.594 204.666 192.491C204.79 192.381 204.955 192.326 205.161 192.326C205.373 192.326 205.538 192.381 205.656 192.491C205.78 192.594 205.876 192.726 205.942 192.887C206.008 193.041 206.048 193.213 206.063 193.404C206.085 193.587 206.096 193.76 206.096 193.921C206.096 194.09 206.085 194.269 206.063 194.46C206.041 194.651 205.993 194.827 205.92 194.988C205.854 195.142 205.758 195.27 205.634 195.373C205.509 195.476 205.34 195.527 205.128 195.527C204.922 195.527 204.757 195.476 204.633 195.373C204.515 195.263 204.424 195.131 204.358 194.977C204.292 194.816 204.248 194.643 204.226 194.46C204.211 194.269 204.204 194.093 204.204 193.932ZM203.379 193.954C203.379 194.255 203.408 194.537 203.467 194.801C203.533 195.065 203.635 195.296 203.775 195.494C203.914 195.685 204.097 195.839 204.325 195.956C204.552 196.066 204.831 196.121 205.161 196.121C205.483 196.121 205.755 196.062 205.975 195.945C206.195 195.82 206.374 195.659 206.514 195.461C206.66 195.256 206.763 195.021 206.822 194.757C206.888 194.486 206.921 194.207 206.921 193.921C206.921 193.62 206.891 193.338 206.833 193.074C206.781 192.803 206.686 192.568 206.547 192.37C206.415 192.172 206.235 192.014 206.008 191.897C205.788 191.78 205.505 191.721 205.161 191.721C204.823 191.721 204.541 191.783 204.314 191.908C204.086 192.025 203.903 192.187 203.764 192.392C203.624 192.597 203.525 192.836 203.467 193.107C203.408 193.371 203.379 193.653 203.379 193.954ZM204.919 188.058L199.001 196.231H199.947L205.854 188.058H204.919Z" fill="#50E3C2"/>
<path d="M165.005 191.606L164.247 192.515C163.969 192.85 163.516 192.85 163.237 192.515C162.958 192.18 162.958 191.638 163.237 191.303L163.995 190.394L162 188H167V194L165.005 191.606Z" fill="#50E3C2"/>
</g>
<defs>
<filter id="filter0_f_51_60" x="144.39" y="45.2925" width="101.203" height="101.935" filterUnits="userSpaceOnUse" color-interpolation-filters="sRGB">
<feFlood flood-opacity="0" result="BackgroundImageFix"/>
<feBlend mode="normal" in="SourceGraphic" in2="BackgroundImageFix" result="shape"/>
<feGaussianBlur stdDeviation="20.5616" result="effect1_foregroundBlur_51_60"/>
</filter>
<filter id="filter1_d_51_60" x="22.5" y="94.4996" width="184" height="59.0004" filterUnits="userSpaceOnUse" color-interpolation-filters="sRGB">
<feFlood flood-opacity="0" result="BackgroundImageFix"/>
<feColorMatrix in="SourceAlpha" type="matrix" values="0 0 0 0 0 0 0 0 0 0 0 0 0 0 0 0 0 0 127 0" result="hardAlpha"/>
<feOffset dy="10"/>
<feGaussianBlur stdDeviation="5"/>
<feColorMatrix type="matrix" values="0 0 0 0 0.0456816 0 0 0 0 0.0410428 0 0 0 0 0.12686 0 0 0 0.54362 0"/>
<feBlend mode="normal" in2="BackgroundImageFix" result="effect1_dropShadow_51_60"/>
<feBlend mode="normal" in="SourceGraphic" in2="effect1_dropShadow_51_60" result="shape"/>
</filter>
<filter id="filter2_f_51_60" x="379.39" y="45.2925" width="101.203" height="101.935" filterUnits="userSpaceOnUse" color-interpolation-filters="sRGB">
<feFlood flood-opacity="0" result="BackgroundImageFix"/>
<feBlend mode="normal" in="SourceGraphic" in2="BackgroundImageFix" result="shape"/>
<feGaussianBlur stdDeviation="20.5616" result="effect1_foregroundBlur_51_60"/>
</filter>
<filter id="filter3_d_51_60" x="257.5" y="92.2378" width="184" height="57.2622" filterUnits="userSpaceOnUse" color-interpolation-filters="sRGB">
<feFlood flood-opacity="0" result="BackgroundImageFix"/>
<feColorMatrix in="SourceAlpha" type="matrix" values="0 0 0 0 0 0 0 0 0 0 0 0 0 0 0 0 0 0 127 0" result="hardAlpha"/>
<feOffset dy="10"/>
<feGaussianBlur stdDeviation="5"/>
<feColorMatrix type="matrix" values="0 0 0 0 0.0456816 0 0 0 0 0.0410428 0 0 0 0 0.12686 0 0 0 0.54362 0"/>
<feBlend mode="normal" in2="BackgroundImageFix" result="effect1_dropShadow_51_60"/>
<feBlend mode="normal" in="SourceGraphic" in2="effect1_dropShadow_51_60" result="shape"/>
</filter>
<filter id="filter4_f_51_60" x="605.668" y="53.7529" width="104.647" height="103.014" filterUnits="userSpaceOnUse" color-interpolation-filters="sRGB">
<feFlood flood-opacity="0" result="BackgroundImageFix"/>
<feBlend mode="normal" in="SourceGraphic" in2="BackgroundImageFix" result="shape"/>
<feGaussianBlur stdDeviation="20.5616" result="effect1_foregroundBlur_51_60"/>
</filter>
<filter id="filter5_d_51_60" x="492.5" y="103.5" width="177" height="46" filterUnits="userSpaceOnUse" color-interpolation-filters="sRGB">
<feFlood flood-opacity="0" result="BackgroundImageFix"/>
<feColorMatrix in="SourceAlpha" type="matrix" values="0 0 0 0 0 0 0 0 0 0 0 0 0 0 0 0 0 0 127 0" result="hardAlpha"/>
<feOffset dy="10"/>
<feGaussianBlur stdDeviation="5"/>
<feColorMatrix type="matrix" values="0 0 0 0 0.0456816 0 0 0 0 0.0410428 0 0 0 0 0.12686 0 0 0 0.54362 0"/>
<feBlend mode="normal" in2="BackgroundImageFix" result="effect1_dropShadow_51_60"/>
<feBlend mode="normal" in="SourceGraphic" in2="effect1_dropShadow_51_60" result="shape"/>
</filter>
<filter id="filter6_f_51_60" x="144.39" y="186.293" width="101.203" height="101.935" filterUnits="userSpaceOnUse" color-interpolation-filters="sRGB">
<feFlood flood-opacity="0" result="BackgroundImageFix"/>
<feBlend mode="normal" in="SourceGraphic" in2="BackgroundImageFix" result="shape"/>
<feGaussianBlur stdDeviation="20.5616" result="effect1_foregroundBlur_51_60"/>
</filter>
<filter id="filter7_d_51_60" x="24.248" y="235.5" width="187.252" height="58" filterUnits="userSpaceOnUse" color-interpolation-filters="sRGB">
<feFlood flood-opacity="0" result="BackgroundImageFix"/>
<feColorMatrix in="SourceAlpha" type="matrix" values="0 0 0 0 0 0 0 0 0 0 0 0 0 0 0 0 0 0 127 0" result="hardAlpha"/>
<feOffset dy="10"/>
<feGaussianBlur stdDeviation="5"/>
<feColorMatrix type="matrix" values="0 0 0 0 0.0456816 0 0 0 0 0.0410428 0 0 0 0 0.12686 0 0 0 0.54362 0"/>
<feBlend mode="normal" in2="BackgroundImageFix" result="effect1_dropShadow_51_60"/>
<feBlend mode="normal" in="SourceGraphic" in2="effect1_dropShadow_51_60" result="shape"/>
</filter>
<linearGradient id="paint0_linear_51_60" x1="195.86" y1="111.908" x2="207.011" y2="102.96" gradientUnits="userSpaceOnUse">
<stop stop-color="#FF62B8" stop-opacity="0.01"/>
<stop offset="1" stop-color="#FE33D1"/>
</linearGradient>
<linearGradient id="paint1_linear_51_60" x1="95.5627" y1="86.4688" x2="115.658" y2="155.198" gradientUnits="userSpaceOnUse">
<stop stop-color="#A330FF" stop-opacity="0.01"/>
<stop offset="0.393247" stop-color="#BC3DCB"/>
<stop offset="1" stop-color="#E3507A"/>
</linearGradient>
<linearGradient id="paint2_linear_51_60" x1="430.86" y1="111.908" x2="442.011" y2="102.96" gradientUnits="userSpaceOnUse">
<stop stop-color="#6EFF61" stop-opacity="0.01"/>
<stop offset="1" stop-color="#5AFF5C"/>
</linearGradient>
<linearGradient id="paint3_linear_51_60" x1="429.572" y1="142.175" x2="269" y2="142.175" gradientUnits="userSpaceOnUse">
<stop stop-color="#63C178"/>
<stop offset="0.831269" stop-color="#36BBFF" stop-opacity="0.466004"/>
<stop offset="1" stop-color="#C1F793" stop-opacity="0.01"/>
</linearGradient>
<linearGradient id="paint4_linear_51_60" x1="659.068" y1="120.908" x2="670.49" y2="109.547" gradientUnits="userSpaceOnUse">
<stop stop-color="#FFBD3D" stop-opacity="0.01"/>
<stop offset="1" stop-color="#FFCE5A"/>
</linearGradient>
<linearGradient id="paint5_linear_51_60" x1="657.591" y1="137.195" x2="508.293" y2="137.195" gradientUnits="userSpaceOnUse">
<stop stop-color="#FFAD57"/>
<stop offset="0.770692" stop-color="#EAFF00" stop-opacity="0.466004"/>
<stop offset="1" stop-color="#FF8502" stop-opacity="0.01"/>
</linearGradient>
<linearGradient id="paint6_linear_51_60" x1="195.86" y1="252.908" x2="207.011" y2="243.96" gradientUnits="userSpaceOnUse">
<stop stop-color="#FF62B8" stop-opacity="0.01"/>
<stop offset="1" stop-color="#FE33D1"/>
</linearGradient>
<linearGradient id="paint7_linear_51_60" x1="76.8115" y1="272" x2="108.37" y2="197.949" gradientUnits="userSpaceOnUse">
<stop stop-color="#FFDB30" stop-opacity="0.01"/>
<stop offset="0.393247" stop-color="#E27034"/>
<stop offset="1" stop-color="#3EDEF6"/>
</linearGradient>
<clipPath id="clip0_51_60">
<rect width="705" height="325" rx="20" fill="white"/>
</clipPath>
</defs>
</svg>
