<svg width="100%" height="100%" viewBox="0 0 190 310" fill="none" xmlns="http://www.w3.org/2000/svg">
<g clip-path="url(#clip0_48_2)">
<path d="M0.072 3.432H1.596L3.144 9.984H3.168L4.896 3.432H6.432L8.112 9.984H8.136L9.732 3.432H11.256L8.892 12H7.368L5.652 5.448H5.628L3.876 12H2.328L0.072 3.432ZM14.4713 3.432H16.0673L19.3673 12H17.7593L16.9553 9.732H13.5353L12.7313 12H11.1833L14.4713 3.432ZM13.9433 8.592H16.5593L15.2753 4.908H15.2393L13.9433 8.592ZM20.4232 3.432H21.9232V10.704H26.2792V12H20.4232V3.432ZM27.5539 3.432H29.0539V10.704H33.4099V12H27.5539V3.432ZM34.6845 3.432H40.8525V4.728H36.1845V6.972H40.5045V8.196H36.1845V10.704H40.9365V12H34.6845V3.432ZM41.6671 3.432H48.6031V4.728H45.8791V12H44.3791V4.728H41.6671V3.432ZM50.8204 9.144C50.8204 9.472 50.8764 9.752 50.9884 9.984C51.1004 10.216 51.2564 10.408 51.4564 10.56C51.6564 10.704 51.8844 10.812 52.1404 10.884C52.4044 10.948 52.6884 10.98 52.9924 10.98C53.3204 10.98 53.6004 10.944 53.8324 10.872C54.0644 10.792 54.2524 10.692 54.3964 10.572C54.5404 10.452 54.6444 10.316 54.7084 10.164C54.7724 10.004 54.8044 9.844 54.8044 9.684C54.8044 9.356 54.7284 9.116 54.5764 8.964C54.4324 8.804 54.2724 8.692 54.0964 8.628C53.7924 8.516 53.4364 8.412 53.0284 8.316C52.6284 8.212 52.1324 8.08 51.5404 7.92C51.1724 7.824 50.8644 7.7 50.6164 7.548C50.3764 7.388 50.1844 7.212 50.0404 7.02C49.8964 6.828 49.7924 6.624 49.7284 6.408C49.6724 6.192 49.6444 5.972 49.6444 5.748C49.6444 5.316 49.7324 4.944 49.9084 4.632C50.0924 4.312 50.3324 4.048 50.6284 3.84C50.9244 3.632 51.2604 3.48 51.6364 3.384C52.0124 3.28 52.3924 3.228 52.7764 3.228C53.2244 3.228 53.6444 3.288 54.0364 3.408C54.4364 3.52 54.7844 3.692 55.0804 3.924C55.3844 4.156 55.6244 4.444 55.8004 4.788C55.9764 5.124 56.0644 5.516 56.0644 5.964H54.5644C54.5244 5.412 54.3364 5.024 54.0004 4.8C53.6644 4.568 53.2364 4.452 52.7164 4.452C52.5404 4.452 52.3604 4.472 52.1764 4.512C51.9924 4.544 51.8244 4.604 51.6724 4.692C51.5204 4.772 51.3924 4.884 51.2884 5.028C51.1924 5.172 51.1444 5.352 51.1444 5.568C51.1444 5.872 51.2364 6.112 51.4204 6.288C51.6124 6.456 51.8604 6.584 52.1644 6.672C52.1964 6.68 52.3204 6.716 52.5364 6.78C52.7604 6.836 53.0084 6.9 53.2804 6.972C53.5524 7.044 53.8164 7.116 54.0724 7.188C54.3364 7.252 54.5244 7.3 54.6364 7.332C54.9164 7.42 55.1604 7.54 55.3684 7.692C55.5764 7.844 55.7484 8.02 55.8844 8.22C56.0284 8.412 56.1324 8.62 56.1964 8.844C56.2684 9.068 56.3044 9.292 56.3044 9.516C56.3044 9.996 56.2044 10.408 56.0044 10.752C55.8124 11.088 55.5564 11.364 55.2364 11.58C54.9164 11.796 54.5524 11.952 54.1444 12.048C53.7364 12.152 53.3204 12.204 52.8964 12.204C52.4084 12.204 51.9484 12.144 51.5164 12.024C51.0844 11.904 50.7084 11.72 50.3884 11.472C50.0684 11.224 49.8124 10.908 49.6204 10.524C49.4284 10.132 49.3284 9.672 49.3204 9.144H50.8204Z" fill="#B1AFCD"/>
<g opacity="0.5" filter="url(#filter0_f_48_2)">
<rect x="52" y="78" width="138" height="69" rx="5" fill="url(#paint0_linear_48_2)"/>
</g>
<rect y="37" width="190" height="74" rx="10" fill="url(#paint1_linear_48_2)"/>
<path d="M61 92.3937C61 92.3937 63.7921 87.2179 67 89C70.2079 90.7822 70.6236 92.3937 73.4751 91.3244C76.3265 90.2551 76.505 81.2179 79 83C81.495 84.7822 87.6535 88.3465 93 83" stroke="url(#paint2_linear_48_2)" stroke-width="2" stroke-linecap="round" stroke-linejoin="round"/>
<path opacity="0.5" d="M151.656 61.9V59.896H153.42C153.588 59.896 153.748 59.912 153.9 59.944C154.06 59.968 154.2 60.016 154.32 60.088C154.44 60.16 154.536 60.26 154.608 60.388C154.68 60.516 154.716 60.68 154.716 60.88C154.716 61.24 154.608 61.5 154.392 61.66C154.176 61.82 153.9 61.9 153.564 61.9H151.656ZM149.772 58.432V67H153.924C154.308 67 154.68 66.952 155.04 66.856C155.408 66.76 155.732 66.612 156.012 66.412C156.3 66.212 156.528 65.956 156.696 65.644C156.864 65.324 156.948 64.948 156.948 64.516C156.948 63.98 156.816 63.524 156.552 63.148C156.296 62.764 155.904 62.496 155.376 62.344C155.76 62.16 156.048 61.924 156.24 61.636C156.44 61.348 156.54 60.988 156.54 60.556C156.54 60.156 156.472 59.82 156.336 59.548C156.208 59.276 156.024 59.06 155.784 58.9C155.544 58.732 155.256 58.612 154.92 58.54C154.584 58.468 154.212 58.432 153.804 58.432H149.772ZM151.656 65.536V63.184H153.708C154.116 63.184 154.444 63.28 154.692 63.472C154.94 63.656 155.064 63.968 155.064 64.408C155.064 64.632 155.024 64.816 154.944 64.96C154.872 65.104 154.772 65.22 154.644 65.308C154.516 65.388 154.368 65.448 154.2 65.488C154.032 65.52 153.856 65.536 153.672 65.536H151.656ZM160.117 60.016V67H162.001V60.016H164.569V58.432H157.549V60.016H160.117ZM171.269 61.312H173.093C173.037 60.816 172.901 60.376 172.685 59.992C172.469 59.608 172.193 59.288 171.857 59.032C171.529 58.768 171.153 58.568 170.729 58.432C170.313 58.296 169.869 58.228 169.397 58.228C168.741 58.228 168.149 58.344 167.621 58.576C167.101 58.808 166.661 59.128 166.301 59.536C165.941 59.944 165.665 60.424 165.473 60.976C165.281 61.52 165.185 62.112 165.185 62.752C165.185 63.376 165.281 63.96 165.473 64.504C165.665 65.04 165.941 65.508 166.301 65.908C166.661 66.308 167.101 66.624 167.621 66.856C168.149 67.08 168.741 67.192 169.397 67.192C169.925 67.192 170.409 67.112 170.849 66.952C171.289 66.792 171.673 66.56 172.001 66.256C172.329 65.952 172.593 65.584 172.793 65.152C172.993 64.72 173.117 64.236 173.165 63.7H171.341C171.269 64.276 171.069 64.74 170.741 65.092C170.421 65.444 169.973 65.62 169.397 65.62C168.973 65.62 168.613 65.54 168.317 65.38C168.021 65.212 167.781 64.992 167.597 64.72C167.413 64.448 167.277 64.144 167.189 63.808C167.109 63.464 167.069 63.112 167.069 62.752C167.069 62.376 167.109 62.012 167.189 61.66C167.277 61.308 167.413 60.996 167.597 60.724C167.781 60.444 168.021 60.224 168.317 60.064C168.613 59.896 168.973 59.812 169.397 59.812C169.629 59.812 169.849 59.852 170.057 59.932C170.273 60.004 170.465 60.108 170.633 60.244C170.801 60.38 170.941 60.54 171.053 60.724C171.165 60.9 171.237 61.096 171.269 61.312Z" fill="white"/>
<path d="M94.8756 57.072C95.2836 57.072 95.6803 57.038 96.0656 56.97C96.4509 56.902 96.7966 56.7887 97.1026 56.63C97.4199 56.4713 97.6863 56.2673 97.9016 56.018C98.1283 55.7687 98.2756 55.4627 98.3436 55.1H99.9246V67H97.7996V58.602H94.8756V57.072ZM104.594 64.705H106.957V67H104.594V64.705ZM110.889 63.991C110.935 64.4783 111.105 64.875 111.399 65.181C111.705 65.4757 112.113 65.623 112.623 65.623C113.145 65.623 113.558 65.487 113.864 65.215C114.182 64.9317 114.425 64.586 114.595 64.178C114.765 63.7587 114.879 63.3167 114.935 62.852C115.003 62.376 115.054 61.9397 115.088 61.543L115.054 61.509C114.794 61.9737 114.437 62.3307 113.983 62.58C113.53 62.818 113.031 62.937 112.487 62.937C111.921 62.937 111.405 62.8407 110.94 62.648C110.487 62.4553 110.096 62.189 109.767 61.849C109.439 61.4977 109.184 61.0783 109.002 60.591C108.821 60.0923 108.73 59.537 108.73 58.925C108.73 58.347 108.821 57.8143 109.002 57.327C109.184 56.8283 109.45 56.3977 109.801 56.035C110.153 55.661 110.583 55.372 111.093 55.168C111.603 54.964 112.181 54.862 112.827 54.862C113.666 54.862 114.357 55.0263 114.901 55.355C115.445 55.6723 115.87 56.1143 116.176 56.681C116.494 57.2363 116.715 57.8937 116.839 58.653C116.964 59.4123 117.026 60.2227 117.026 61.084C117.026 61.798 116.947 62.5177 116.788 63.243C116.641 63.9683 116.392 64.6313 116.04 65.232C115.689 65.8213 115.224 66.303 114.646 66.677C114.08 67.051 113.377 67.238 112.538 67.238C112.062 67.238 111.615 67.1587 111.195 67C110.776 66.8413 110.402 66.6203 110.073 66.337C109.756 66.0537 109.495 65.7137 109.291 65.317C109.087 64.9203 108.974 64.4783 108.951 63.991H110.889ZM112.742 56.477C112.391 56.477 112.085 56.545 111.824 56.681C111.564 56.8057 111.348 56.9813 111.178 57.208C111.008 57.4347 110.878 57.6953 110.787 57.99C110.708 58.2847 110.668 58.5907 110.668 58.908C110.668 59.2367 110.708 59.554 110.787 59.86C110.878 60.1547 111.008 60.4153 111.178 60.642C111.348 60.8687 111.564 61.0557 111.824 61.203C112.085 61.339 112.391 61.407 112.742 61.407C113.105 61.407 113.422 61.339 113.694 61.203C113.966 61.067 114.187 60.8857 114.357 60.659C114.539 60.421 114.675 60.1547 114.765 59.86C114.856 59.554 114.901 59.2367 114.901 58.908C114.901 58.5907 114.856 58.2847 114.765 57.99C114.675 57.6953 114.539 57.4403 114.357 57.225C114.187 56.9983 113.966 56.817 113.694 56.681C113.422 56.545 113.105 56.477 112.742 56.477ZM124.314 58.109C124.268 57.6217 124.093 57.2307 123.787 56.936C123.492 56.63 123.09 56.477 122.58 56.477C122.228 56.477 121.922 56.545 121.662 56.681C121.412 56.8057 121.197 56.9757 121.016 57.191C120.846 57.4063 120.704 57.6557 120.591 57.939C120.489 58.211 120.404 58.5 120.336 58.806C120.268 59.112 120.217 59.418 120.183 59.724C120.16 60.0187 120.137 60.2963 120.115 60.557L120.149 60.591C120.409 60.115 120.766 59.7637 121.22 59.537C121.684 59.299 122.183 59.18 122.716 59.18C123.305 59.18 123.832 59.282 124.297 59.486C124.761 59.69 125.152 59.9733 125.47 60.336C125.798 60.6873 126.048 61.1067 126.218 61.594C126.388 62.0813 126.473 62.6083 126.473 63.175C126.473 63.753 126.376 64.2913 126.184 64.79C126.002 65.2773 125.736 65.708 125.385 66.082C125.033 66.4447 124.614 66.728 124.127 66.932C123.639 67.136 123.101 67.238 122.512 67.238C121.639 67.238 120.919 67.0793 120.353 66.762C119.797 66.4333 119.355 65.9913 119.027 65.436C118.709 64.8693 118.488 64.212 118.364 63.464C118.239 62.7047 118.177 61.8887 118.177 61.016C118.177 60.302 118.25 59.5823 118.398 58.857C118.556 58.1317 118.811 57.4743 119.163 56.885C119.514 56.2843 119.973 55.797 120.54 55.423C121.118 55.049 121.826 54.862 122.665 54.862C123.141 54.862 123.588 54.9413 124.008 55.1C124.427 55.2587 124.795 55.4797 125.113 55.763C125.441 56.0463 125.708 56.3863 125.912 56.783C126.116 57.1797 126.229 57.6217 126.252 58.109H124.314ZM122.444 65.623C122.795 65.623 123.101 65.555 123.362 65.419C123.622 65.2717 123.838 65.0847 124.008 64.858C124.189 64.6313 124.319 64.3707 124.399 64.076C124.489 63.77 124.535 63.4583 124.535 63.141C124.535 62.8237 124.489 62.5177 124.399 62.223C124.319 61.9283 124.189 61.6733 124.008 61.458C123.838 61.2313 123.622 61.05 123.362 60.914C123.101 60.778 122.795 60.71 122.444 60.71C122.092 60.71 121.781 60.778 121.509 60.914C121.248 61.0387 121.027 61.2143 120.846 61.441C120.664 61.6563 120.528 61.9113 120.438 62.206C120.347 62.5007 120.302 62.8123 120.302 63.141C120.302 63.4697 120.347 63.7813 120.438 64.076C120.528 64.3707 120.664 64.637 120.846 64.875C121.027 65.1017 121.248 65.283 121.509 65.419C121.781 65.555 122.092 65.623 122.444 65.623ZM127.64 55.1H135.783V56.715C135.16 57.4177 134.593 58.1487 134.083 58.908C133.573 59.656 133.125 60.455 132.74 61.305C132.366 62.1437 132.06 63.0333 131.822 63.974C131.584 64.9147 131.425 65.9233 131.346 67H129.221C129.289 66.0593 129.448 65.13 129.697 64.212C129.958 63.294 130.286 62.4043 130.683 61.543C131.091 60.6817 131.561 59.8543 132.094 59.061C132.627 58.2677 133.199 57.5253 133.811 56.834H127.64V55.1ZM141.217 56.392C140.696 56.392 140.254 56.5507 139.891 56.868C139.529 57.174 139.347 57.6217 139.347 58.211C139.347 58.7777 139.523 59.214 139.874 59.52C140.226 59.8147 140.673 59.962 141.217 59.962C141.761 59.962 142.209 59.8147 142.56 59.52C142.912 59.214 143.087 58.7777 143.087 58.211C143.087 57.6217 142.906 57.174 142.543 56.868C142.181 56.5507 141.739 56.392 141.217 56.392ZM141.217 67.238C140.617 67.238 140.056 67.153 139.534 66.983C139.024 66.813 138.582 66.5693 138.208 66.252C137.834 65.9233 137.54 65.5267 137.324 65.062C137.12 64.5973 137.018 64.076 137.018 63.498C137.018 62.75 137.211 62.121 137.596 61.611C137.993 61.101 138.526 60.761 139.194 60.591V60.557C138.65 60.353 138.231 60.0413 137.936 59.622C137.653 59.1913 137.511 58.687 137.511 58.109C137.511 57.089 137.829 56.2957 138.463 55.729C139.109 55.151 140.027 54.862 141.217 54.862C142.407 54.862 143.32 55.151 143.954 55.729C144.6 56.2957 144.923 57.089 144.923 58.109C144.923 58.687 144.776 59.1913 144.481 59.622C144.198 60.0413 143.784 60.353 143.24 60.557V60.591C143.909 60.761 144.436 61.101 144.821 61.611C145.218 62.121 145.416 62.75 145.416 63.498C145.416 64.076 145.309 64.5973 145.093 65.062C144.889 65.5267 144.6 65.9233 144.226 66.252C143.852 66.5693 143.405 66.813 142.883 66.983C142.373 67.153 141.818 67.238 141.217 67.238ZM141.217 65.708C141.863 65.708 142.402 65.5153 142.832 65.13C143.263 64.7447 143.478 64.2007 143.478 63.498C143.478 62.8407 143.263 62.3307 142.832 61.968C142.402 61.594 141.863 61.407 141.217 61.407C140.571 61.407 140.033 61.594 139.602 61.968C139.172 62.3307 138.956 62.8407 138.956 63.498C138.956 64.2007 139.172 64.7447 139.602 65.13C140.033 65.5153 140.571 65.708 141.217 65.708Z" fill="white"/>
<path d="M128.674 88.843V86.434H127.926V88.843H125.528V89.591H127.926V92H128.674V89.591H131.072V88.843H128.674ZM135.512 92V84.201H134.797C134.745 84.4943 134.65 84.7363 134.511 84.927C134.371 85.1177 134.199 85.268 133.994 85.378C133.796 85.488 133.572 85.565 133.323 85.609C133.073 85.6457 132.817 85.664 132.553 85.664V86.412H134.577V92H135.512ZM138.192 86.962H139.127C139.12 86.7273 139.142 86.4963 139.193 86.269C139.252 86.0343 139.343 85.8253 139.468 85.642C139.593 85.4587 139.75 85.312 139.941 85.202C140.139 85.0847 140.374 85.026 140.645 85.026C140.85 85.026 141.045 85.059 141.228 85.125C141.411 85.191 141.569 85.2863 141.701 85.411C141.84 85.5357 141.95 85.686 142.031 85.862C142.112 86.0307 142.152 86.2213 142.152 86.434C142.152 86.7053 142.108 86.9437 142.02 87.149C141.939 87.3543 141.815 87.545 141.646 87.721C141.485 87.897 141.279 88.073 141.03 88.249C140.781 88.4177 140.491 88.6047 140.161 88.81C139.89 88.9713 139.629 89.1437 139.38 89.327C139.131 89.5103 138.907 89.723 138.709 89.965C138.511 90.207 138.346 90.493 138.214 90.823C138.089 91.1457 138.009 91.538 137.972 92H143.065V91.175H139.061C139.105 90.933 139.197 90.7203 139.336 90.537C139.483 90.3463 139.655 90.1703 139.853 90.009C140.058 89.8477 140.282 89.6973 140.524 89.558C140.766 89.4113 141.008 89.2647 141.25 89.118C141.492 88.964 141.727 88.8027 141.954 88.634C142.181 88.4653 142.383 88.2783 142.559 88.073C142.735 87.8603 142.874 87.622 142.977 87.358C143.087 87.094 143.142 86.7897 143.142 86.445C143.142 86.0783 143.076 85.7557 142.944 85.477C142.819 85.1983 142.647 84.9673 142.427 84.784C142.207 84.5933 141.947 84.4503 141.646 84.355C141.353 84.2523 141.037 84.201 140.7 84.201C140.289 84.201 139.923 84.2707 139.6 84.41C139.277 84.5493 139.006 84.7437 138.786 84.993C138.573 85.235 138.416 85.5247 138.313 85.862C138.21 86.1993 138.17 86.566 138.192 86.962ZM144.733 90.779V92H145.382C145.39 92.088 145.382 92.1833 145.36 92.286C145.346 92.3887 145.313 92.4877 145.261 92.583C145.21 92.6857 145.14 92.7773 145.052 92.858C144.972 92.946 144.869 93.012 144.744 93.056V93.606C145.17 93.4813 145.478 93.2687 145.668 92.968C145.859 92.6673 145.954 92.308 145.954 91.89V90.779H144.733ZM152.052 85.158V84.333H148.202L147.476 88.381L148.279 88.425C148.462 88.205 148.671 88.029 148.906 87.897C149.148 87.7577 149.423 87.688 149.731 87.688C149.995 87.688 150.233 87.732 150.446 87.82C150.666 87.908 150.853 88.0327 151.007 88.194C151.161 88.348 151.278 88.535 151.359 88.755C151.447 88.9677 151.491 89.2023 151.491 89.459C151.491 89.767 151.447 90.0383 151.359 90.273C151.271 90.5003 151.15 90.691 150.996 90.845C150.849 90.999 150.673 91.1163 150.468 91.197C150.27 91.2703 150.061 91.307 149.841 91.307C149.606 91.307 149.39 91.274 149.192 91.208C149.001 91.1347 148.833 91.0357 148.686 90.911C148.547 90.779 148.433 90.6287 148.345 90.46C148.264 90.284 148.217 90.097 148.202 89.899H147.267C147.274 90.251 147.344 90.5663 147.476 90.845C147.608 91.1237 147.788 91.3583 148.015 91.549C148.242 91.7323 148.503 91.8753 148.796 91.978C149.097 92.0733 149.416 92.121 149.753 92.121C150.208 92.121 150.604 92.0513 150.941 91.912C151.286 91.7653 151.572 91.571 151.799 91.329C152.026 91.087 152.195 90.812 152.305 90.504C152.422 90.1887 152.481 89.866 152.481 89.536C152.481 89.0887 152.415 88.7 152.283 88.37C152.151 88.0327 151.971 87.754 151.744 87.534C151.517 87.3067 151.249 87.138 150.941 87.028C150.633 86.918 150.307 86.863 149.962 86.863C149.698 86.863 149.43 86.9107 149.159 87.006C148.895 87.094 148.679 87.2333 148.51 87.424L148.488 87.402L148.906 85.158H152.052ZM154.831 86.412C154.831 86.2433 154.842 86.0673 154.864 85.884C154.886 85.6933 154.93 85.521 154.996 85.367C155.069 85.2057 155.168 85.0737 155.293 84.971C155.418 84.861 155.583 84.806 155.788 84.806C156.001 84.806 156.166 84.861 156.283 84.971C156.408 85.0737 156.503 85.2057 156.569 85.367C156.635 85.521 156.675 85.6933 156.69 85.884C156.712 86.0673 156.723 86.2397 156.723 86.401C156.723 86.5697 156.712 86.7493 156.69 86.94C156.668 87.1307 156.62 87.3067 156.547 87.468C156.481 87.622 156.386 87.7503 156.261 87.853C156.136 87.9557 155.968 88.007 155.755 88.007C155.55 88.007 155.385 87.9557 155.26 87.853C155.143 87.743 155.051 87.611 154.985 87.457C154.919 87.2957 154.875 87.1233 154.853 86.94C154.838 86.7493 154.831 86.5733 154.831 86.412ZM154.006 86.434C154.006 86.7347 154.035 87.017 154.094 87.281C154.16 87.545 154.263 87.776 154.402 87.974C154.541 88.172 154.725 88.3297 154.952 88.447C155.179 88.557 155.458 88.612 155.788 88.612C156.111 88.612 156.382 88.5497 156.602 88.425C156.822 88.3003 157.002 88.139 157.141 87.941C157.288 87.7357 157.39 87.501 157.449 87.237C157.515 86.9657 157.548 86.687 157.548 86.401C157.548 86.1003 157.519 85.818 157.46 85.554C157.409 85.2827 157.313 85.048 157.174 84.85C157.042 84.652 156.862 84.4943 156.635 84.377C156.415 84.2597 156.133 84.201 155.788 84.201C155.451 84.201 155.168 84.2633 154.941 84.388C154.714 84.5053 154.53 84.6667 154.391 84.872C154.252 85.0773 154.153 85.3157 154.094 85.587C154.035 85.851 154.006 86.1333 154.006 86.434ZM160.265 89.932C160.265 89.7633 160.276 89.5873 160.298 89.404C160.32 89.2133 160.364 89.041 160.43 88.887C160.503 88.7257 160.602 88.5937 160.727 88.491C160.852 88.381 161.017 88.326 161.222 88.326C161.435 88.326 161.6 88.381 161.717 88.491C161.842 88.5937 161.937 88.7257 162.003 88.887C162.069 89.041 162.109 89.2133 162.124 89.404C162.146 89.5873 162.157 89.7597 162.157 89.921C162.157 90.0897 162.146 90.2693 162.124 90.46C162.102 90.6507 162.054 90.8267 161.981 90.988C161.915 91.142 161.82 91.2703 161.695 91.373C161.57 91.4757 161.402 91.527 161.189 91.527C160.984 91.527 160.819 91.4757 160.694 91.373C160.577 91.263 160.485 91.131 160.419 90.977C160.353 90.8157 160.309 90.6433 160.287 90.46C160.272 90.2693 160.265 90.0933 160.265 89.932ZM159.44 89.954C159.44 90.2547 159.469 90.537 159.528 90.801C159.594 91.065 159.697 91.296 159.836 91.494C159.975 91.6847 160.159 91.8387 160.386 91.956C160.613 92.066 160.892 92.121 161.222 92.121C161.545 92.121 161.816 92.0623 162.036 91.945C162.256 91.8203 162.436 91.659 162.575 91.461C162.722 91.2557 162.824 91.021 162.883 90.757C162.949 90.4857 162.982 90.207 162.982 89.921C162.982 89.6203 162.953 89.338 162.894 89.074C162.843 88.8027 162.747 88.568 162.608 88.37C162.476 88.172 162.296 88.0143 162.069 87.897C161.849 87.7797 161.567 87.721 161.222 87.721C160.885 87.721 160.602 87.7833 160.375 87.908C160.148 88.0253 159.964 88.1867 159.825 88.392C159.686 88.5973 159.587 88.8357 159.528 89.107C159.469 89.371 159.44 89.6533 159.44 89.954ZM160.98 84.058L155.062 92.231H156.008L161.915 84.058H160.98Z" fill="white"/>
<path d="M115.606 87.6061L114.697 88.5152C114.362 88.85 113.82 88.85 113.485 88.5152C113.15 88.1805 113.15 87.6378 113.485 87.303L114.394 86.3939L112 84H118V90L115.606 87.6061Z" fill="white"/>
<g filter="url(#filter1_d_48_2)">
<path fill-rule="evenodd" clip-rule="evenodd" d="M24.2843 69.4606L24.2994 72.5489H28.7303C29.5172 72.5489 30.155 71.909 30.1511 71.1221L30.15 70.8874C30.1461 70.1004 29.5022 69.4606 28.7151 69.4606H24.8909H24.2843ZM30.7134 77.2431L30.7121 76.9952C30.708 76.1174 29.9905 75.4047 29.1129 75.4047H28.7441H24.3133L24.3301 78.8338H29.1295C30.0072 78.8338 30.7177 78.1198 30.7134 77.2431ZM32.1197 73.7376C33.0015 74.55 33.5606 75.708 33.5669 76.9952L33.5681 77.2431C33.58 79.6938 31.5951 81.6884 29.1434 81.6884H29.035L29.0412 83H26.1867L26.1802 81.6884H25.0103L25.0167 83H22.1621L22.1557 81.6884H21.4893H20.0736L20.0597 78.8338H21.4754L21.4587 75.4047L21.4447 72.5489L21.4296 69.4606H20.0139L20 66.6049H22.0821L22.0743 65H24.9289L24.9367 66.6049H26.1068L26.0989 65H28.9536L28.9613 66.6184C31.2025 66.7544 32.9936 68.614 33.0047 70.8874L33.0058 71.1221C33.0106 72.1072 32.6773 73.0127 32.1197 73.7376Z" fill="white"/>
</g>
<rect x="0.5" y="131.5" width="189" height="73" rx="9.5" stroke="#312F62"/>
<path fill-rule="evenodd" clip-rule="evenodd" d="M29.4891 163.606L21 167.233L29.4891 171.945L37.9748 167.233L29.4891 163.606Z" fill="#010101" fill-opacity="0.6"/>
<path fill-rule="evenodd" clip-rule="evenodd" d="M21 167.233L29.4891 171.945V154L21 167.233Z" fill="#535175"/>
<path fill-rule="evenodd" clip-rule="evenodd" d="M29.4893 154V171.945L37.975 167.233L29.4893 154Z" fill="#434162"/>
<path fill-rule="evenodd" clip-rule="evenodd" d="M21 168.744L29.4891 179.98V173.456L21 168.744Z" fill="#535175"/>
<path fill-rule="evenodd" clip-rule="evenodd" d="M29.4893 173.456V179.98L37.9817 168.744L29.4893 173.456Z" fill="#434162"/>
<g filter="url(#filter2_f_48_2)">
<ellipse cx="105.309" cy="187.416" rx="7.84884" ry="3.40348" transform="rotate(29 105.309 187.416)" fill="url(#paint3_linear_48_2)"/>
</g>
<path d="M105 188.162C105 188.162 102.208 182.38 99 184.162C95.7921 185.944 92.8016 185.97 87.9008 180.566C83 175.162 79.3465 185.912 74 180.566" stroke="url(#paint4_linear_48_2)" stroke-width="2" stroke-linecap="round" stroke-linejoin="round"/>
<path opacity="0.2" d="M144.44 152.432V161H150.944V159.416H146.324V157.316H150.476V155.852H146.324V154.016H150.848V152.432H144.44ZM154.117 154.016V161H156.001V154.016H158.569V152.432H151.549V154.016H154.117ZM159.557 152.432V161H161.441V157.304H164.909V161H166.793V152.432H164.909V155.72H161.441V152.432H159.557Z" fill="white"/>
<path opacity="0.7" d="M88.7226 153.214H90.1676C90.1563 152.851 90.1903 152.494 90.2696 152.143C90.3603 151.78 90.5019 151.457 90.6946 151.174C90.8873 150.891 91.1309 150.664 91.4256 150.494C91.7316 150.313 92.0943 150.222 92.5136 150.222C92.8309 150.222 93.1313 150.273 93.4146 150.375C93.6979 150.477 93.9416 150.624 94.1456 150.817C94.3609 151.01 94.5309 151.242 94.6556 151.514C94.7803 151.775 94.8426 152.069 94.8426 152.398C94.8426 152.817 94.7746 153.186 94.6386 153.503C94.5139 153.82 94.3213 154.115 94.0606 154.387C93.8113 154.659 93.4939 154.931 93.1086 155.203C92.7233 155.464 92.2756 155.753 91.7656 156.07C91.3463 156.319 90.9439 156.586 90.5586 156.869C90.1733 157.152 89.8276 157.481 89.5216 157.855C89.2156 158.229 88.9606 158.671 88.7566 159.181C88.5639 159.68 88.4393 160.286 88.3826 161H96.2536V159.725H90.0656C90.1336 159.351 90.2753 159.022 90.4906 158.739C90.7173 158.444 90.9836 158.172 91.2896 157.923C91.6069 157.674 91.9526 157.441 92.3266 157.226C92.7006 156.999 93.0746 156.773 93.4486 156.546C93.8226 156.308 94.1853 156.059 94.5366 155.798C94.8879 155.537 95.1996 155.248 95.4716 154.931C95.7436 154.602 95.9589 154.234 96.1176 153.826C96.2876 153.418 96.3726 152.948 96.3726 152.415C96.3726 151.848 96.2706 151.35 96.0666 150.919C95.8739 150.488 95.6076 150.131 95.2676 149.848C94.9276 149.553 94.5253 149.332 94.0606 149.185C93.6073 149.026 93.1199 148.947 92.5986 148.947C91.9639 148.947 91.3973 149.055 90.8986 149.27C90.3999 149.485 89.9806 149.786 89.6406 150.171C89.3119 150.545 89.0683 150.993 88.9096 151.514C88.7509 152.035 88.6886 152.602 88.7226 153.214ZM101.127 154.115V155.339C101.399 155.305 101.688 155.288 101.994 155.288C102.357 155.288 102.691 155.339 102.997 155.441C103.314 155.532 103.586 155.679 103.813 155.883C104.04 156.076 104.221 156.319 104.357 156.614C104.493 156.897 104.561 157.226 104.561 157.6C104.561 157.963 104.487 158.291 104.34 158.586C104.204 158.869 104.017 159.113 103.779 159.317C103.541 159.51 103.263 159.663 102.946 159.776C102.629 159.878 102.294 159.929 101.943 159.929C101.116 159.929 100.487 159.685 100.056 159.198C99.6252 158.699 99.3986 158.059 99.3759 157.277H97.9309C97.9196 157.9 98.0046 158.456 98.1859 158.943C98.3786 159.43 98.6506 159.844 99.0019 160.184C99.3532 160.513 99.7782 160.762 100.277 160.932C100.776 161.102 101.331 161.187 101.943 161.187C102.51 161.187 103.042 161.113 103.541 160.966C104.051 160.807 104.493 160.575 104.867 160.269C105.241 159.963 105.536 159.583 105.751 159.13C105.978 158.665 106.091 158.133 106.091 157.532C106.091 156.807 105.91 156.178 105.547 155.645C105.196 155.112 104.652 154.767 103.915 154.608V154.574C104.391 154.359 104.788 154.041 105.105 153.622C105.422 153.203 105.581 152.721 105.581 152.177C105.581 151.622 105.485 151.14 105.292 150.732C105.111 150.324 104.856 149.99 104.527 149.729C104.198 149.468 103.807 149.276 103.354 149.151C102.912 149.015 102.43 148.947 101.909 148.947C101.308 148.947 100.776 149.043 100.311 149.236C99.8576 149.429 99.4779 149.695 99.1719 150.035C98.8659 150.375 98.6279 150.783 98.4579 151.259C98.2992 151.735 98.2086 152.262 98.1859 152.84H99.6309C99.6309 152.489 99.6762 152.154 99.7669 151.837C99.8576 151.52 99.9936 151.242 100.175 151.004C100.368 150.766 100.606 150.579 100.889 150.443C101.184 150.296 101.524 150.222 101.909 150.222C102.521 150.222 103.031 150.386 103.439 150.715C103.847 151.032 104.051 151.514 104.051 152.16C104.051 152.477 103.989 152.761 103.864 153.01C103.739 153.259 103.569 153.469 103.354 153.639C103.15 153.798 102.906 153.922 102.623 154.013C102.351 154.092 102.062 154.132 101.756 154.132H101.45C101.393 154.132 101.337 154.132 101.28 154.132C101.235 154.132 101.184 154.126 101.127 154.115ZM108.278 159.113V161H110.165V159.113H108.278ZM112.347 153.214H113.792C113.78 152.851 113.814 152.494 113.894 152.143C113.984 151.78 114.126 151.457 114.319 151.174C114.511 150.891 114.755 150.664 115.05 150.494C115.356 150.313 115.718 150.222 116.138 150.222C116.455 150.222 116.755 150.273 117.039 150.375C117.322 150.477 117.566 150.624 117.77 150.817C117.985 151.01 118.155 151.242 118.28 151.514C118.404 151.775 118.467 152.069 118.467 152.398C118.467 152.817 118.399 153.186 118.263 153.503C118.138 153.82 117.945 154.115 117.685 154.387C117.435 154.659 117.118 154.931 116.733 155.203C116.347 155.464 115.9 155.753 115.39 156.07C114.97 156.319 114.568 156.586 114.183 156.869C113.797 157.152 113.452 157.481 113.146 157.855C112.84 158.229 112.585 158.671 112.381 159.181C112.188 159.68 112.063 160.286 112.007 161H119.878V159.725H113.69C113.758 159.351 113.899 159.022 114.115 158.739C114.341 158.444 114.608 158.172 114.914 157.923C115.231 157.674 115.577 157.441 115.951 157.226C116.325 156.999 116.699 156.773 117.073 156.546C117.447 156.308 117.809 156.059 118.161 155.798C118.512 155.537 118.824 155.248 119.096 154.931C119.368 154.602 119.583 154.234 119.742 153.826C119.912 153.418 119.997 152.948 119.997 152.415C119.997 151.848 119.895 151.35 119.691 150.919C119.498 150.488 119.232 150.131 118.892 149.848C118.552 149.553 118.149 149.332 117.685 149.185C117.231 149.026 116.744 148.947 116.223 148.947C115.588 148.947 115.021 149.055 114.523 149.27C114.024 149.485 113.605 149.786 113.265 150.171C112.936 150.545 112.692 150.993 112.534 151.514C112.375 152.035 112.313 152.602 112.347 153.214ZM124.751 154.115V155.339C125.023 155.305 125.312 155.288 125.618 155.288C125.981 155.288 126.315 155.339 126.621 155.441C126.938 155.532 127.21 155.679 127.437 155.883C127.664 156.076 127.845 156.319 127.981 156.614C128.117 156.897 128.185 157.226 128.185 157.6C128.185 157.963 128.111 158.291 127.964 158.586C127.828 158.869 127.641 159.113 127.403 159.317C127.165 159.51 126.887 159.663 126.57 159.776C126.253 159.878 125.918 159.929 125.567 159.929C124.74 159.929 124.111 159.685 123.68 159.198C123.249 158.699 123.023 158.059 123 157.277H121.555C121.544 157.9 121.629 158.456 121.81 158.943C122.003 159.43 122.275 159.844 122.626 160.184C122.977 160.513 123.402 160.762 123.901 160.932C124.4 161.102 124.955 161.187 125.567 161.187C126.134 161.187 126.666 161.113 127.165 160.966C127.675 160.807 128.117 160.575 128.491 160.269C128.865 159.963 129.16 159.583 129.375 159.13C129.602 158.665 129.715 158.133 129.715 157.532C129.715 156.807 129.534 156.178 129.171 155.645C128.82 155.112 128.276 154.767 127.539 154.608V154.574C128.015 154.359 128.412 154.041 128.729 153.622C129.046 153.203 129.205 152.721 129.205 152.177C129.205 151.622 129.109 151.14 128.916 150.732C128.735 150.324 128.48 149.99 128.151 149.729C127.822 149.468 127.431 149.276 126.978 149.151C126.536 149.015 126.054 148.947 125.533 148.947C124.932 148.947 124.4 149.043 123.935 149.236C123.482 149.429 123.102 149.695 122.796 150.035C122.49 150.375 122.252 150.783 122.082 151.259C121.923 151.735 121.833 152.262 121.81 152.84H123.255C123.255 152.489 123.3 152.154 123.391 151.837C123.482 151.52 123.618 151.242 123.799 151.004C123.992 150.766 124.23 150.579 124.513 150.443C124.808 150.296 125.148 150.222 125.533 150.222C126.145 150.222 126.655 150.386 127.063 150.715C127.471 151.032 127.675 151.514 127.675 152.16C127.675 152.477 127.613 152.761 127.488 153.01C127.363 153.259 127.193 153.469 126.978 153.639C126.774 153.798 126.53 153.922 126.247 154.013C125.975 154.092 125.686 154.132 125.38 154.132H125.074C125.017 154.132 124.961 154.132 124.904 154.132C124.859 154.132 124.808 154.126 124.751 154.115ZM136.254 156.903H132.208L136.22 151.004H136.254V156.903ZM137.614 156.903V148.947H136.458L130.967 156.784V158.178H136.254V161H137.614V158.178H139.246V156.903H137.614Z" fill="white"/>
<path d="M128.55 182.502V183.382H131.729V182.502H128.55ZM137.445 179.158V178.333H133.595L132.869 182.381L133.672 182.425C133.856 182.205 134.065 182.029 134.299 181.897C134.541 181.758 134.816 181.688 135.124 181.688C135.388 181.688 135.627 181.732 135.839 181.82C136.059 181.908 136.246 182.033 136.4 182.194C136.554 182.348 136.672 182.535 136.752 182.755C136.84 182.968 136.884 183.202 136.884 183.459C136.884 183.767 136.84 184.038 136.752 184.273C136.664 184.5 136.543 184.691 136.389 184.845C136.243 184.999 136.067 185.116 135.861 185.197C135.663 185.27 135.454 185.307 135.234 185.307C135 185.307 134.783 185.274 134.585 185.208C134.395 185.135 134.226 185.036 134.079 184.911C133.94 184.779 133.826 184.629 133.738 184.46C133.658 184.284 133.61 184.097 133.595 183.899H132.66C132.668 184.251 132.737 184.566 132.869 184.845C133.001 185.124 133.181 185.358 133.408 185.549C133.636 185.732 133.896 185.875 134.189 185.978C134.49 186.073 134.809 186.121 135.146 186.121C135.601 186.121 135.997 186.051 136.334 185.912C136.679 185.765 136.965 185.571 137.192 185.329C137.42 185.087 137.588 184.812 137.698 184.504C137.816 184.189 137.874 183.866 137.874 183.536C137.874 183.089 137.808 182.7 137.676 182.37C137.544 182.033 137.365 181.754 137.137 181.534C136.91 181.307 136.642 181.138 136.334 181.028C136.026 180.918 135.7 180.863 135.355 180.863C135.091 180.863 134.824 180.911 134.552 181.006C134.288 181.094 134.072 181.233 133.903 181.424L133.881 181.402L134.299 179.158H137.445ZM139.301 184.779V186H140.522V184.779H139.301ZM141.933 180.962H142.868C142.861 180.727 142.883 180.496 142.934 180.269C142.993 180.034 143.085 179.825 143.209 179.642C143.334 179.459 143.492 179.312 143.682 179.202C143.88 179.085 144.115 179.026 144.386 179.026C144.592 179.026 144.786 179.059 144.969 179.125C145.153 179.191 145.31 179.286 145.442 179.411C145.582 179.536 145.692 179.686 145.772 179.862C145.853 180.031 145.893 180.221 145.893 180.434C145.893 180.705 145.849 180.944 145.761 181.149C145.681 181.354 145.556 181.545 145.387 181.721C145.226 181.897 145.021 182.073 144.771 182.249C144.522 182.418 144.232 182.605 143.902 182.81C143.631 182.971 143.371 183.144 143.121 183.327C142.872 183.51 142.648 183.723 142.45 183.965C142.252 184.207 142.087 184.493 141.955 184.823C141.831 185.146 141.75 185.538 141.713 186H146.806V185.175H142.802C142.846 184.933 142.938 184.72 143.077 184.537C143.224 184.346 143.396 184.17 143.594 184.009C143.8 183.848 144.023 183.697 144.265 183.558C144.507 183.411 144.749 183.265 144.991 183.118C145.233 182.964 145.468 182.803 145.695 182.634C145.923 182.465 146.124 182.278 146.3 182.073C146.476 181.86 146.616 181.622 146.718 181.358C146.828 181.094 146.883 180.79 146.883 180.445C146.883 180.078 146.817 179.756 146.685 179.477C146.561 179.198 146.388 178.967 146.168 178.784C145.948 178.593 145.688 178.45 145.387 178.355C145.094 178.252 144.779 178.201 144.441 178.201C144.031 178.201 143.664 178.271 143.341 178.41C143.019 178.549 142.747 178.744 142.527 178.993C142.315 179.235 142.157 179.525 142.054 179.862C141.952 180.199 141.911 180.566 141.933 180.962ZM149.96 181.545V182.337C150.136 182.315 150.323 182.304 150.521 182.304C150.755 182.304 150.972 182.337 151.17 182.403C151.375 182.462 151.551 182.557 151.698 182.689C151.844 182.814 151.962 182.971 152.05 183.162C152.138 183.345 152.182 183.558 152.182 183.8C152.182 184.035 152.134 184.247 152.039 184.438C151.951 184.621 151.83 184.779 151.676 184.911C151.522 185.036 151.342 185.135 151.137 185.208C150.931 185.274 150.715 185.307 150.488 185.307C149.952 185.307 149.545 185.149 149.267 184.834C148.988 184.511 148.841 184.097 148.827 183.591H147.892C147.884 183.994 147.939 184.354 148.057 184.669C148.181 184.984 148.357 185.252 148.585 185.472C148.812 185.685 149.087 185.846 149.41 185.956C149.732 186.066 150.092 186.121 150.488 186.121C150.854 186.121 151.199 186.073 151.522 185.978C151.852 185.875 152.138 185.725 152.38 185.527C152.622 185.329 152.812 185.083 152.952 184.79C153.098 184.489 153.172 184.145 153.172 183.756C153.172 183.287 153.054 182.88 152.82 182.535C152.592 182.19 152.24 181.967 151.764 181.864V181.842C152.072 181.703 152.328 181.497 152.534 181.226C152.739 180.955 152.842 180.643 152.842 180.291C152.842 179.932 152.779 179.62 152.655 179.356C152.537 179.092 152.372 178.876 152.16 178.707C151.947 178.538 151.694 178.414 151.401 178.333C151.115 178.245 150.803 178.201 150.466 178.201C150.077 178.201 149.732 178.263 149.432 178.388C149.138 178.513 148.893 178.685 148.695 178.905C148.497 179.125 148.343 179.389 148.233 179.697C148.13 180.005 148.071 180.346 148.057 180.72H148.992C148.992 180.493 149.021 180.276 149.08 180.071C149.138 179.866 149.226 179.686 149.344 179.532C149.468 179.378 149.622 179.257 149.806 179.169C149.996 179.074 150.216 179.026 150.466 179.026C150.862 179.026 151.192 179.132 151.456 179.345C151.72 179.55 151.852 179.862 151.852 180.28C151.852 180.485 151.811 180.669 151.731 180.83C151.65 180.991 151.54 181.127 151.401 181.237C151.269 181.34 151.111 181.42 150.928 181.479C150.752 181.53 150.565 181.556 150.367 181.556H150.169C150.132 181.556 150.095 181.556 150.059 181.556C150.029 181.556 149.996 181.552 149.96 181.545ZM155.511 180.412C155.511 180.243 155.522 180.067 155.544 179.884C155.566 179.693 155.61 179.521 155.676 179.367C155.749 179.206 155.848 179.074 155.973 178.971C156.097 178.861 156.262 178.806 156.468 178.806C156.68 178.806 156.845 178.861 156.963 178.971C157.087 179.074 157.183 179.206 157.249 179.367C157.315 179.521 157.355 179.693 157.37 179.884C157.392 180.067 157.403 180.24 157.403 180.401C157.403 180.57 157.392 180.749 157.37 180.94C157.348 181.131 157.3 181.307 157.227 181.468C157.161 181.622 157.065 181.75 156.941 181.853C156.816 181.956 156.647 182.007 156.435 182.007C156.229 182.007 156.064 181.956 155.94 181.853C155.822 181.743 155.731 181.611 155.665 181.457C155.599 181.296 155.555 181.123 155.533 180.94C155.518 180.749 155.511 180.573 155.511 180.412ZM154.686 180.434C154.686 180.735 154.715 181.017 154.774 181.281C154.84 181.545 154.942 181.776 155.082 181.974C155.221 182.172 155.404 182.33 155.632 182.447C155.859 182.557 156.138 182.612 156.468 182.612C156.79 182.612 157.062 182.55 157.282 182.425C157.502 182.3 157.681 182.139 157.821 181.941C157.967 181.736 158.07 181.501 158.129 181.237C158.195 180.966 158.228 180.687 158.228 180.401C158.228 180.1 158.198 179.818 158.14 179.554C158.088 179.283 157.993 179.048 157.854 178.85C157.722 178.652 157.542 178.494 157.315 178.377C157.095 178.26 156.812 178.201 156.468 178.201C156.13 178.201 155.848 178.263 155.621 178.388C155.393 178.505 155.21 178.667 155.071 178.872C154.931 179.077 154.832 179.316 154.774 179.587C154.715 179.851 154.686 180.133 154.686 180.434ZM160.945 183.932C160.945 183.763 160.956 183.587 160.978 183.404C161 183.213 161.044 183.041 161.11 182.887C161.183 182.726 161.282 182.594 161.407 182.491C161.531 182.381 161.696 182.326 161.902 182.326C162.114 182.326 162.279 182.381 162.397 182.491C162.521 182.594 162.617 182.726 162.683 182.887C162.749 183.041 162.789 183.213 162.804 183.404C162.826 183.587 162.837 183.76 162.837 183.921C162.837 184.09 162.826 184.269 162.804 184.46C162.782 184.651 162.734 184.827 162.661 184.988C162.595 185.142 162.499 185.27 162.375 185.373C162.25 185.476 162.081 185.527 161.869 185.527C161.663 185.527 161.498 185.476 161.374 185.373C161.256 185.263 161.165 185.131 161.099 184.977C161.033 184.816 160.989 184.643 160.967 184.46C160.952 184.269 160.945 184.093 160.945 183.932ZM160.12 183.954C160.12 184.255 160.149 184.537 160.208 184.801C160.274 185.065 160.376 185.296 160.516 185.494C160.655 185.685 160.838 185.839 161.066 185.956C161.293 186.066 161.572 186.121 161.902 186.121C162.224 186.121 162.496 186.062 162.716 185.945C162.936 185.82 163.115 185.659 163.255 185.461C163.401 185.256 163.504 185.021 163.563 184.757C163.629 184.486 163.662 184.207 163.662 183.921C163.662 183.62 163.632 183.338 163.574 183.074C163.522 182.803 163.427 182.568 163.288 182.37C163.156 182.172 162.976 182.014 162.749 181.897C162.529 181.78 162.246 181.721 161.902 181.721C161.564 181.721 161.282 181.783 161.055 181.908C160.827 182.025 160.644 182.187 160.505 182.392C160.365 182.597 160.266 182.836 160.208 183.107C160.149 183.371 160.12 183.653 160.12 183.954ZM161.66 178.058L155.742 186.231H156.688L162.595 178.058H161.66Z" fill="#E3507A"/>
<path d="M118.606 180.394L117.697 179.485C117.362 179.15 116.82 179.15 116.485 179.485C116.15 179.82 116.15 180.362 116.485 180.697L117.394 181.606L115 184H121V178L118.606 180.394Z" fill="#E3507A"/>
<rect x="0.5" y="225.5" width="189" height="73" rx="9.5" stroke="#312F62"/>
<path opacity="0.87" d="M32.9983 273.937C26.4058 273.937 21.0615 268.593 21.0615 262C21.0615 255.408 26.4058 250.063 32.9983 250.063C39.5907 250.063 44.9349 255.408 44.9349 262C44.9349 268.593 39.5908 273.937 32.9983 273.937Z" fill="#494767"/>
<path d="M33.0759 262.27L34.9115 261.599L35.368 259.883L35.3525 259.841L33.5456 260.501L34.8474 255.599H31.1553L29.4527 261.996L28.0312 262.515L27.5615 264.284L28.9819 263.765L27.9785 267.535H37.8048L38.4348 265.189H32.3005L33.0759 262.27Z" fill="#151334"/>
<g filter="url(#filter3_f_48_2)">
<ellipse cx="92.9914" cy="271.417" rx="7.91173" ry="4.58047" transform="rotate(-11 92.9914 271.417)" fill="url(#paint5_linear_48_2)"/>
</g>
<path d="M65 280.394C65 280.394 67.7921 275.218 71 277C74.2079 278.782 74.6236 280.394 77.4751 279.324C80.3265 278.255 80.505 269.218 83 271C85.495 272.782 91.6535 276.347 97 271" stroke="url(#paint6_linear_48_2)" stroke-width="2" stroke-linecap="round" stroke-linejoin="round"/>
<path opacity="0.2" d="M151.52 246.432V255H157.58V253.416H153.404V246.432H151.52ZM159.427 248.016V255H161.311V248.016H163.879V246.432H156.859V248.016H159.427ZM170.579 249.312H172.403C172.347 248.816 172.211 248.376 171.995 247.992C171.779 247.608 171.503 247.288 171.167 247.032C170.839 246.768 170.463 246.568 170.039 246.432C169.623 246.296 169.179 246.228 168.707 246.228C168.051 246.228 167.459 246.344 166.931 246.576C166.411 246.808 165.971 247.128 165.611 247.536C165.251 247.944 164.975 248.424 164.783 248.976C164.591 249.52 164.495 250.112 164.495 250.752C164.495 251.376 164.591 251.96 164.783 252.504C164.975 253.04 165.251 253.508 165.611 253.908C165.971 254.308 166.411 254.624 166.931 254.856C167.459 255.08 168.051 255.192 168.707 255.192C169.235 255.192 169.719 255.112 170.159 254.952C170.599 254.792 170.983 254.56 171.311 254.256C171.639 253.952 171.903 253.584 172.103 253.152C172.303 252.72 172.427 252.236 172.475 251.7H170.651C170.579 252.276 170.379 252.74 170.051 253.092C169.731 253.444 169.283 253.62 168.707 253.62C168.283 253.62 167.923 253.54 167.627 253.38C167.331 253.212 167.091 252.992 166.907 252.72C166.723 252.448 166.587 252.144 166.499 251.808C166.419 251.464 166.379 251.112 166.379 250.752C166.379 250.376 166.419 250.012 166.499 249.66C166.587 249.308 166.723 248.996 166.907 248.724C167.091 248.444 167.331 248.224 167.627 248.064C167.923 247.896 168.283 247.812 168.707 247.812C168.939 247.812 169.159 247.852 169.367 247.932C169.583 248.004 169.775 248.108 169.943 248.244C170.111 248.38 170.251 248.54 170.363 248.724C170.475 248.9 170.547 249.096 170.579 249.312Z" fill="white"/>
<path opacity="0.7" d="M91.6838 248.115V249.339C91.9558 249.305 92.2448 249.288 92.5508 249.288C92.9135 249.288 93.2478 249.339 93.5538 249.441C93.8712 249.532 94.1432 249.679 94.3698 249.883C94.5965 250.076 94.7778 250.319 94.9138 250.614C95.0498 250.897 95.1178 251.226 95.1178 251.6C95.1178 251.963 95.0442 252.291 94.8968 252.586C94.7608 252.869 94.5738 253.113 94.3358 253.317C94.0978 253.51 93.8202 253.663 93.5028 253.776C93.1855 253.878 92.8512 253.929 92.4998 253.929C91.6725 253.929 91.0435 253.685 90.6128 253.198C90.1822 252.699 89.9555 252.059 89.9328 251.277H88.4878C88.4765 251.9 88.5615 252.456 88.7428 252.943C88.9355 253.43 89.2075 253.844 89.5588 254.184C89.9102 254.513 90.3352 254.762 90.8338 254.932C91.3325 255.102 91.8878 255.187 92.4998 255.187C93.0665 255.187 93.5992 255.113 94.0978 254.966C94.6078 254.807 95.0498 254.575 95.4238 254.269C95.7978 253.963 96.0925 253.583 96.3078 253.13C96.5345 252.665 96.6478 252.133 96.6478 251.532C96.6478 250.807 96.4665 250.178 96.1038 249.645C95.7525 249.112 95.2085 248.767 94.4718 248.608V248.574C94.9478 248.359 95.3445 248.041 95.6618 247.622C95.9792 247.203 96.1378 246.721 96.1378 246.177C96.1378 245.622 96.0415 245.14 95.8488 244.732C95.6675 244.324 95.4125 243.99 95.0838 243.729C94.7552 243.468 94.3642 243.276 93.9108 243.151C93.4688 243.015 92.9872 242.947 92.4658 242.947C91.8652 242.947 91.3325 243.043 90.8678 243.236C90.4145 243.429 90.0348 243.695 89.7288 244.035C89.4228 244.375 89.1848 244.783 89.0148 245.259C88.8562 245.735 88.7655 246.262 88.7428 246.84H90.1878C90.1878 246.489 90.2332 246.154 90.3238 245.837C90.4145 245.52 90.5505 245.242 90.7318 245.004C90.9245 244.766 91.1625 244.579 91.4458 244.443C91.7405 244.296 92.0805 244.222 92.4658 244.222C93.0778 244.222 93.5878 244.386 93.9958 244.715C94.4038 245.032 94.6078 245.514 94.6078 246.16C94.6078 246.477 94.5455 246.761 94.4208 247.01C94.2962 247.259 94.1262 247.469 93.9108 247.639C93.7068 247.798 93.4632 247.922 93.1798 248.013C92.9078 248.092 92.6188 248.132 92.3128 248.132H92.0068C91.9502 248.132 91.8935 248.132 91.8368 248.132C91.7915 248.132 91.7405 248.126 91.6838 248.115ZM100.059 246.075C100.059 245.769 100.116 245.503 100.229 245.276C100.342 245.049 100.49 244.857 100.671 244.698C100.864 244.539 101.09 244.42 101.351 244.341C101.612 244.262 101.884 244.222 102.167 244.222C102.756 244.222 103.238 244.381 103.612 244.698C103.997 245.004 104.19 245.463 104.19 246.075C104.19 246.687 104.003 247.163 103.629 247.503C103.255 247.843 102.779 248.013 102.201 248.013C101.906 248.013 101.629 247.973 101.368 247.894C101.107 247.815 100.881 247.696 100.688 247.537C100.495 247.378 100.342 247.18 100.229 246.942C100.116 246.693 100.059 246.404 100.059 246.075ZM98.5291 246.024C98.5291 246.568 98.6821 247.072 98.9881 247.537C99.2941 247.99 99.7021 248.319 100.212 248.523C99.5321 248.761 99.0108 249.146 98.6481 249.679C98.2855 250.2 98.1041 250.818 98.1041 251.532C98.1041 252.144 98.2061 252.682 98.4101 253.147C98.6255 253.6 98.9145 253.98 99.2771 254.286C99.6511 254.592 100.087 254.819 100.586 254.966C101.085 255.113 101.623 255.187 102.201 255.187C102.756 255.187 103.278 255.108 103.765 254.949C104.252 254.79 104.672 254.558 105.023 254.252C105.386 253.935 105.669 253.549 105.873 253.096C106.088 252.643 106.196 252.121 106.196 251.532C106.196 250.784 106.02 250.155 105.669 249.645C105.318 249.124 104.779 248.75 104.054 248.523C104.564 248.296 104.966 247.962 105.261 247.52C105.567 247.067 105.72 246.568 105.72 246.024C105.72 245.639 105.652 245.265 105.516 244.902C105.38 244.528 105.165 244.199 104.87 243.916C104.587 243.621 104.213 243.389 103.748 243.219C103.283 243.038 102.722 242.947 102.065 242.947C101.6 242.947 101.153 243.015 100.722 243.151C100.303 243.287 99.9288 243.485 99.6001 243.746C99.2715 244.007 99.0108 244.33 98.8181 244.715C98.6255 245.089 98.5291 245.525 98.5291 246.024ZM99.6341 251.6C99.6341 251.249 99.6965 250.931 99.8211 250.648C99.9571 250.365 100.138 250.121 100.365 249.917C100.603 249.713 100.875 249.56 101.181 249.458C101.498 249.345 101.833 249.288 102.184 249.288C102.524 249.288 102.841 249.35 103.136 249.475C103.442 249.588 103.708 249.747 103.935 249.951C104.162 250.155 104.337 250.399 104.462 250.682C104.598 250.954 104.666 251.254 104.666 251.583C104.666 251.923 104.604 252.235 104.479 252.518C104.366 252.801 104.196 253.051 103.969 253.266C103.754 253.47 103.493 253.634 103.187 253.759C102.892 253.872 102.564 253.929 102.201 253.929C101.453 253.929 100.835 253.725 100.348 253.317C99.8721 252.898 99.6341 252.325 99.6341 251.6ZM109.114 249.067C109.114 248.772 109.114 248.449 109.114 248.098C109.126 247.735 109.154 247.378 109.199 247.027C109.256 246.664 109.33 246.313 109.42 245.973C109.522 245.633 109.664 245.338 109.845 245.089C110.038 244.828 110.276 244.619 110.559 244.46C110.843 244.301 111.188 244.222 111.596 244.222C112.004 244.222 112.35 244.301 112.633 244.46C112.917 244.619 113.149 244.828 113.33 245.089C113.523 245.338 113.665 245.633 113.755 245.973C113.857 246.313 113.931 246.664 113.976 247.027C114.033 247.378 114.061 247.735 114.061 248.098C114.073 248.449 114.078 248.772 114.078 249.067C114.078 249.52 114.061 250.03 114.027 250.597C114.005 251.152 113.914 251.679 113.755 252.178C113.608 252.665 113.364 253.079 113.024 253.419C112.684 253.759 112.208 253.929 111.596 253.929C110.984 253.929 110.508 253.759 110.168 253.419C109.828 253.079 109.579 252.665 109.42 252.178C109.273 251.679 109.182 251.152 109.148 250.597C109.126 250.03 109.114 249.52 109.114 249.067ZM107.584 249.084C107.584 249.526 107.596 249.985 107.618 250.461C107.641 250.937 107.698 251.402 107.788 251.855C107.879 252.308 108.009 252.739 108.179 253.147C108.349 253.544 108.582 253.895 108.876 254.201C109.171 254.507 109.539 254.751 109.981 254.932C110.435 255.102 110.973 255.187 111.596 255.187C112.231 255.187 112.769 255.102 113.211 254.932C113.653 254.751 114.022 254.507 114.316 254.201C114.611 253.895 114.843 253.544 115.013 253.147C115.183 252.739 115.314 252.308 115.404 251.855C115.495 251.402 115.552 250.937 115.574 250.461C115.597 249.985 115.608 249.526 115.608 249.084C115.608 248.642 115.597 248.183 115.574 247.707C115.552 247.231 115.495 246.766 115.404 246.313C115.314 245.86 115.183 245.429 115.013 245.021C114.843 244.613 114.611 244.256 114.316 243.95C114.022 243.644 113.648 243.4 113.194 243.219C112.752 243.038 112.22 242.947 111.596 242.947C110.973 242.947 110.435 243.038 109.981 243.219C109.539 243.4 109.171 243.644 108.876 243.95C108.582 244.256 108.349 244.613 108.179 245.021C108.009 245.429 107.879 245.86 107.788 246.313C107.698 246.766 107.641 247.231 107.618 247.707C107.596 248.183 107.584 248.642 107.584 249.084ZM117.728 253.113V255H119.615V253.113H117.728ZM121.796 247.214H123.241C123.23 246.851 123.264 246.494 123.343 246.143C123.434 245.78 123.575 245.457 123.768 245.174C123.961 244.891 124.204 244.664 124.499 244.494C124.805 244.313 125.168 244.222 125.587 244.222C125.904 244.222 126.205 244.273 126.488 244.375C126.771 244.477 127.015 244.624 127.219 244.817C127.434 245.01 127.604 245.242 127.729 245.514C127.854 245.775 127.916 246.069 127.916 246.398C127.916 246.817 127.848 247.186 127.712 247.503C127.587 247.82 127.395 248.115 127.134 248.387C126.885 248.659 126.567 248.931 126.182 249.203C125.797 249.464 125.349 249.753 124.839 250.07C124.42 250.319 124.017 250.586 123.632 250.869C123.247 251.152 122.901 251.481 122.595 251.855C122.289 252.229 122.034 252.671 121.83 253.181C121.637 253.68 121.513 254.286 121.456 255H129.327V253.725H123.139C123.207 253.351 123.349 253.022 123.564 252.739C123.791 252.444 124.057 252.172 124.363 251.923C124.68 251.674 125.026 251.441 125.4 251.226C125.774 250.999 126.148 250.773 126.522 250.546C126.896 250.308 127.259 250.059 127.61 249.798C127.961 249.537 128.273 249.248 128.545 248.931C128.817 248.602 129.032 248.234 129.191 247.826C129.361 247.418 129.446 246.948 129.446 246.415C129.446 245.848 129.344 245.35 129.14 244.919C128.947 244.488 128.681 244.131 128.341 243.848C128.001 243.553 127.599 243.332 127.134 243.185C126.681 243.026 126.193 242.947 125.672 242.947C125.037 242.947 124.471 243.055 123.972 243.27C123.473 243.485 123.054 243.786 122.714 244.171C122.385 244.545 122.142 244.993 121.983 245.514C121.824 246.035 121.762 246.602 121.796 247.214ZM134.2 248.115V249.339C134.472 249.305 134.761 249.288 135.067 249.288C135.43 249.288 135.764 249.339 136.07 249.441C136.388 249.532 136.66 249.679 136.886 249.883C137.113 250.076 137.294 250.319 137.43 250.614C137.566 250.897 137.634 251.226 137.634 251.6C137.634 251.963 137.561 252.291 137.413 252.586C137.277 252.869 137.09 253.113 136.852 253.317C136.614 253.51 136.337 253.663 136.019 253.776C135.702 253.878 135.368 253.929 135.016 253.929C134.189 253.929 133.56 253.685 133.129 253.198C132.699 252.699 132.472 252.059 132.449 251.277H131.004C130.993 251.9 131.078 252.456 131.259 252.943C131.452 253.43 131.724 253.844 132.075 254.184C132.427 254.513 132.852 254.762 133.35 254.932C133.849 255.102 134.404 255.187 135.016 255.187C135.583 255.187 136.116 255.113 136.614 254.966C137.124 254.807 137.566 254.575 137.94 254.269C138.314 253.963 138.609 253.583 138.824 253.13C139.051 252.665 139.164 252.133 139.164 251.532C139.164 250.807 138.983 250.178 138.62 249.645C138.269 249.112 137.725 248.767 136.988 248.608V248.574C137.464 248.359 137.861 248.041 138.178 247.622C138.496 247.203 138.654 246.721 138.654 246.177C138.654 245.622 138.558 245.14 138.365 244.732C138.184 244.324 137.929 243.99 137.6 243.729C137.272 243.468 136.881 243.276 136.427 243.151C135.985 243.015 135.504 242.947 134.982 242.947C134.382 242.947 133.849 243.043 133.384 243.236C132.931 243.429 132.551 243.695 132.245 244.035C131.939 244.375 131.701 244.783 131.531 245.259C131.373 245.735 131.282 246.262 131.259 246.84H132.704C132.704 246.489 132.75 246.154 132.84 245.837C132.931 245.52 133.067 245.242 133.248 245.004C133.441 244.766 133.679 244.579 133.962 244.443C134.257 244.296 134.597 244.222 134.982 244.222C135.594 244.222 136.104 244.386 136.512 244.715C136.92 245.032 137.124 245.514 137.124 246.16C137.124 246.477 137.062 246.761 136.937 247.01C136.813 247.259 136.643 247.469 136.427 247.639C136.223 247.798 135.98 247.922 135.696 248.013C135.424 248.092 135.135 248.132 134.829 248.132H134.523C134.467 248.132 134.41 248.132 134.353 248.132C134.308 248.132 134.257 248.126 134.2 248.115ZM145.704 250.903H141.658L145.67 245.004H145.704V250.903ZM147.064 250.903V242.947H145.908L140.417 250.784V252.178H145.704V255H147.064V252.178H148.696V250.903H147.064Z" fill="white"/>
<path d="M122.674 276.843V274.434H121.926V276.843H119.528V277.591H121.926V280H122.674V277.591H125.072V276.843H122.674ZM127.994 275.545V276.337C128.17 276.315 128.357 276.304 128.555 276.304C128.789 276.304 129.006 276.337 129.204 276.403C129.409 276.462 129.585 276.557 129.732 276.689C129.878 276.814 129.996 276.971 130.084 277.162C130.172 277.345 130.216 277.558 130.216 277.8C130.216 278.035 130.168 278.247 130.073 278.438C129.985 278.621 129.864 278.779 129.71 278.911C129.556 279.036 129.376 279.135 129.171 279.208C128.965 279.274 128.749 279.307 128.522 279.307C127.986 279.307 127.579 279.149 127.301 278.834C127.022 278.511 126.875 278.097 126.861 277.591H125.926C125.918 277.994 125.973 278.354 126.091 278.669C126.215 278.984 126.391 279.252 126.619 279.472C126.846 279.685 127.121 279.846 127.444 279.956C127.766 280.066 128.126 280.121 128.522 280.121C128.888 280.121 129.233 280.073 129.556 279.978C129.886 279.875 130.172 279.725 130.414 279.527C130.656 279.329 130.846 279.083 130.986 278.79C131.132 278.489 131.206 278.145 131.206 277.756C131.206 277.287 131.088 276.88 130.854 276.535C130.626 276.19 130.274 275.967 129.798 275.864V275.842C130.106 275.703 130.362 275.497 130.568 275.226C130.773 274.955 130.876 274.643 130.876 274.291C130.876 273.932 130.813 273.62 130.689 273.356C130.571 273.092 130.406 272.876 130.194 272.707C129.981 272.538 129.728 272.414 129.435 272.333C129.149 272.245 128.837 272.201 128.5 272.201C128.111 272.201 127.766 272.263 127.466 272.388C127.172 272.513 126.927 272.685 126.729 272.905C126.531 273.125 126.377 273.389 126.267 273.697C126.164 274.005 126.105 274.346 126.091 274.72H127.026C127.026 274.493 127.055 274.276 127.114 274.071C127.172 273.866 127.26 273.686 127.378 273.532C127.502 273.378 127.656 273.257 127.84 273.169C128.03 273.074 128.25 273.026 128.5 273.026C128.896 273.026 129.226 273.132 129.49 273.345C129.754 273.55 129.886 273.862 129.886 274.28C129.886 274.485 129.845 274.669 129.765 274.83C129.684 274.991 129.574 275.127 129.435 275.237C129.303 275.34 129.145 275.42 128.962 275.479C128.786 275.53 128.599 275.556 128.401 275.556H128.203C128.166 275.556 128.129 275.556 128.093 275.556C128.063 275.556 128.03 275.552 127.994 275.545ZM133.182 278.119H132.247C132.306 278.794 132.551 279.296 132.984 279.626C133.417 279.956 133.959 280.121 134.612 280.121C135.558 280.121 136.244 279.762 136.669 279.043C137.102 278.317 137.318 277.279 137.318 275.93C137.318 275.189 137.245 274.581 137.098 274.104C136.959 273.62 136.768 273.239 136.526 272.96C136.284 272.681 136.002 272.487 135.679 272.377C135.356 272.26 135.012 272.201 134.645 272.201C134.271 272.201 133.926 272.263 133.611 272.388C133.296 272.513 133.024 272.689 132.797 272.916C132.57 273.136 132.394 273.404 132.269 273.719C132.144 274.027 132.082 274.368 132.082 274.742C132.082 275.123 132.133 275.475 132.236 275.798C132.346 276.121 132.504 276.396 132.709 276.623C132.922 276.85 133.182 277.03 133.49 277.162C133.798 277.287 134.15 277.349 134.546 277.349C134.927 277.349 135.279 277.254 135.602 277.063C135.925 276.865 136.174 276.601 136.35 276.271L136.372 276.293C136.343 277.312 136.185 278.071 135.899 278.57C135.613 279.061 135.184 279.307 134.612 279.307C134.238 279.307 133.915 279.204 133.644 278.999C133.373 278.794 133.219 278.5 133.182 278.119ZM136.207 274.808C136.207 275.035 136.17 275.255 136.097 275.468C136.024 275.673 135.917 275.857 135.778 276.018C135.639 276.172 135.47 276.297 135.272 276.392C135.074 276.48 134.854 276.524 134.612 276.524C134.385 276.524 134.176 276.48 133.985 276.392C133.802 276.297 133.64 276.172 133.501 276.018C133.369 275.864 133.263 275.688 133.182 275.49C133.109 275.292 133.072 275.087 133.072 274.874C133.072 274.632 133.098 274.401 133.149 274.181C133.208 273.961 133.296 273.767 133.413 273.598C133.538 273.422 133.695 273.283 133.886 273.18C134.084 273.077 134.322 273.026 134.601 273.026C134.865 273.026 135.096 273.074 135.294 273.169C135.492 273.264 135.657 273.396 135.789 273.565C135.928 273.726 136.031 273.913 136.097 274.126C136.17 274.339 136.207 274.566 136.207 274.808ZM138.733 278.779V280H139.954V278.779H138.733ZM145.436 274.192H146.371C146.312 273.547 146.092 273.055 145.711 272.718C145.33 272.373 144.816 272.201 144.171 272.201C143.614 272.201 143.152 272.318 142.785 272.553C142.418 272.788 142.125 273.099 141.905 273.488C141.685 273.877 141.527 274.324 141.432 274.83C141.344 275.329 141.3 275.846 141.3 276.381C141.3 276.792 141.329 277.217 141.388 277.657C141.454 278.097 141.582 278.5 141.773 278.867C141.964 279.234 142.235 279.534 142.587 279.769C142.939 280.004 143.405 280.121 143.984 280.121C144.475 280.121 144.886 280.04 145.216 279.879C145.553 279.71 145.821 279.501 146.019 279.252C146.224 278.995 146.371 278.713 146.459 278.405C146.547 278.097 146.591 277.8 146.591 277.514C146.591 277.155 146.536 276.821 146.426 276.513C146.316 276.205 146.158 275.937 145.953 275.71C145.755 275.483 145.506 275.307 145.205 275.182C144.912 275.05 144.578 274.984 144.204 274.984C143.779 274.984 143.401 275.065 143.071 275.226C142.748 275.387 142.477 275.648 142.257 276.007L142.235 275.985C142.242 275.684 142.272 275.362 142.323 275.017C142.374 274.672 142.466 274.353 142.598 274.06C142.737 273.759 142.928 273.514 143.17 273.323C143.412 273.125 143.731 273.026 144.127 273.026C144.501 273.026 144.802 273.132 145.029 273.345C145.256 273.558 145.392 273.84 145.436 274.192ZM144.028 275.809C144.292 275.809 144.523 275.857 144.721 275.952C144.919 276.047 145.084 276.176 145.216 276.337C145.348 276.491 145.443 276.678 145.502 276.898C145.568 277.111 145.601 277.338 145.601 277.58C145.601 277.807 145.564 278.027 145.491 278.24C145.425 278.445 145.326 278.629 145.194 278.79C145.062 278.951 144.897 279.08 144.699 279.175C144.508 279.263 144.285 279.307 144.028 279.307C143.771 279.307 143.54 279.263 143.335 279.175C143.137 279.08 142.968 278.955 142.829 278.801C142.697 278.647 142.594 278.464 142.521 278.251C142.448 278.038 142.411 277.811 142.411 277.569C142.411 277.327 142.444 277.1 142.51 276.887C142.583 276.667 142.69 276.48 142.829 276.326C142.968 276.165 143.137 276.04 143.335 275.952C143.533 275.857 143.764 275.809 144.028 275.809ZM148.468 278.119H147.533C147.592 278.794 147.837 279.296 148.27 279.626C148.703 279.956 149.245 280.121 149.898 280.121C150.844 280.121 151.53 279.762 151.955 279.043C152.388 278.317 152.604 277.279 152.604 275.93C152.604 275.189 152.531 274.581 152.384 274.104C152.245 273.62 152.054 273.239 151.812 272.96C151.57 272.681 151.288 272.487 150.965 272.377C150.642 272.26 150.298 272.201 149.931 272.201C149.557 272.201 149.212 272.263 148.897 272.388C148.582 272.513 148.31 272.689 148.083 272.916C147.856 273.136 147.68 273.404 147.555 273.719C147.43 274.027 147.368 274.368 147.368 274.742C147.368 275.123 147.419 275.475 147.522 275.798C147.632 276.121 147.79 276.396 147.995 276.623C148.208 276.85 148.468 277.03 148.776 277.162C149.084 277.287 149.436 277.349 149.832 277.349C150.213 277.349 150.565 277.254 150.888 277.063C151.211 276.865 151.46 276.601 151.636 276.271L151.658 276.293C151.629 277.312 151.471 278.071 151.185 278.57C150.899 279.061 150.47 279.307 149.898 279.307C149.524 279.307 149.201 279.204 148.93 278.999C148.659 278.794 148.505 278.5 148.468 278.119ZM151.493 274.808C151.493 275.035 151.456 275.255 151.383 275.468C151.31 275.673 151.203 275.857 151.064 276.018C150.925 276.172 150.756 276.297 150.558 276.392C150.36 276.48 150.14 276.524 149.898 276.524C149.671 276.524 149.462 276.48 149.271 276.392C149.088 276.297 148.926 276.172 148.787 276.018C148.655 275.864 148.549 275.688 148.468 275.49C148.395 275.292 148.358 275.087 148.358 274.874C148.358 274.632 148.384 274.401 148.435 274.181C148.494 273.961 148.582 273.767 148.699 273.598C148.824 273.422 148.981 273.283 149.172 273.18C149.37 273.077 149.608 273.026 149.887 273.026C150.151 273.026 150.382 273.074 150.58 273.169C150.778 273.264 150.943 273.396 151.075 273.565C151.214 273.726 151.317 273.913 151.383 274.126C151.456 274.339 151.493 274.566 151.493 274.808ZM154.943 274.412C154.943 274.243 154.954 274.067 154.976 273.884C154.998 273.693 155.042 273.521 155.108 273.367C155.182 273.206 155.281 273.074 155.405 272.971C155.53 272.861 155.695 272.806 155.9 272.806C156.113 272.806 156.278 272.861 156.395 272.971C156.52 273.074 156.615 273.206 156.681 273.367C156.747 273.521 156.788 273.693 156.802 273.884C156.824 274.067 156.835 274.24 156.835 274.401C156.835 274.57 156.824 274.749 156.802 274.94C156.78 275.131 156.733 275.307 156.659 275.468C156.593 275.622 156.498 275.75 156.373 275.853C156.249 275.956 156.08 276.007 155.867 276.007C155.662 276.007 155.497 275.956 155.372 275.853C155.255 275.743 155.163 275.611 155.097 275.457C155.031 275.296 154.987 275.123 154.965 274.94C154.951 274.749 154.943 274.573 154.943 274.412ZM154.118 274.434C154.118 274.735 154.148 275.017 154.206 275.281C154.272 275.545 154.375 275.776 154.514 275.974C154.654 276.172 154.837 276.33 155.064 276.447C155.292 276.557 155.57 276.612 155.9 276.612C156.223 276.612 156.494 276.55 156.714 276.425C156.934 276.3 157.114 276.139 157.253 275.941C157.4 275.736 157.503 275.501 157.561 275.237C157.627 274.966 157.66 274.687 157.66 274.401C157.66 274.1 157.631 273.818 157.572 273.554C157.521 273.283 157.426 273.048 157.286 272.85C157.154 272.652 156.975 272.494 156.747 272.377C156.527 272.26 156.245 272.201 155.9 272.201C155.563 272.201 155.281 272.263 155.053 272.388C154.826 272.505 154.643 272.667 154.503 272.872C154.364 273.077 154.265 273.316 154.206 273.587C154.148 273.851 154.118 274.133 154.118 274.434ZM160.377 277.932C160.377 277.763 160.388 277.587 160.41 277.404C160.432 277.213 160.476 277.041 160.542 276.887C160.616 276.726 160.715 276.594 160.839 276.491C160.964 276.381 161.129 276.326 161.334 276.326C161.547 276.326 161.712 276.381 161.829 276.491C161.954 276.594 162.049 276.726 162.115 276.887C162.181 277.041 162.222 277.213 162.236 277.404C162.258 277.587 162.269 277.76 162.269 277.921C162.269 278.09 162.258 278.269 162.236 278.46C162.214 278.651 162.167 278.827 162.093 278.988C162.027 279.142 161.932 279.27 161.807 279.373C161.683 279.476 161.514 279.527 161.301 279.527C161.096 279.527 160.931 279.476 160.806 279.373C160.689 279.263 160.597 279.131 160.531 278.977C160.465 278.816 160.421 278.643 160.399 278.46C160.385 278.269 160.377 278.093 160.377 277.932ZM159.552 277.954C159.552 278.255 159.582 278.537 159.64 278.801C159.706 279.065 159.809 279.296 159.948 279.494C160.088 279.685 160.271 279.839 160.498 279.956C160.726 280.066 161.004 280.121 161.334 280.121C161.657 280.121 161.928 280.062 162.148 279.945C162.368 279.82 162.548 279.659 162.687 279.461C162.834 279.256 162.937 279.021 162.995 278.757C163.061 278.486 163.094 278.207 163.094 277.921C163.094 277.62 163.065 277.338 163.006 277.074C162.955 276.803 162.86 276.568 162.72 276.37C162.588 276.172 162.409 276.014 162.181 275.897C161.961 275.78 161.679 275.721 161.334 275.721C160.997 275.721 160.715 275.783 160.487 275.908C160.26 276.025 160.077 276.187 159.937 276.392C159.798 276.597 159.699 276.836 159.64 277.107C159.582 277.371 159.552 277.653 159.552 277.954ZM161.092 272.058L155.174 280.231H156.12L162.027 272.058H161.092Z" fill="#50E3C2"/>
<path d="M110.606 275.606L109.697 276.515C109.362 276.85 108.82 276.85 108.485 276.515C108.15 276.18 108.15 275.638 108.485 275.303L109.394 274.394L107 272H113V278L110.606 275.606Z" fill="#50E3C2"/>
</g>
<defs>
<filter id="filter0_f_48_2" x="-38.885" y="-12.885" width="319.77" height="250.77" filterUnits="userSpaceOnUse" color-interpolation-filters="sRGB">
<feFlood flood-opacity="0" result="BackgroundImageFix"/>
<feBlend mode="normal" in="SourceGraphic" in2="BackgroundImageFix" result="shape"/>
<feGaussianBlur stdDeviation="45.4425" result="effect1_foregroundBlur_48_2"/>
</filter>
<filter id="filter1_d_48_2" x="12" y="61" width="29.5684" height="34" filterUnits="userSpaceOnUse" color-interpolation-filters="sRGB">
<feFlood flood-opacity="0" result="BackgroundImageFix"/>
<feColorMatrix in="SourceAlpha" type="matrix" values="0 0 0 0 0 0 0 0 0 0 0 0 0 0 0 0 0 0 127 0" result="hardAlpha"/>
<feOffset dy="4"/>
<feGaussianBlur stdDeviation="4"/>
<feColorMatrix type="matrix" values="0 0 0 0 0 0 0 0 0 0 0 0 0 0 0 0 0 0 0.0744452 0"/>
<feBlend mode="normal" in2="BackgroundImageFix" result="effect1_dropShadow_48_2"/>
<feBlend mode="normal" in="SourceGraphic" in2="effect1_dropShadow_48_2" result="shape"/>
</filter>
<filter id="filter2_f_48_2" x="79.3708" y="163.708" width="51.8761" height="47.4154" filterUnits="userSpaceOnUse" color-interpolation-filters="sRGB">
<feFlood flood-opacity="0" result="BackgroundImageFix"/>
<feBlend mode="normal" in="SourceGraphic" in2="BackgroundImageFix" result="shape"/>
<feGaussianBlur stdDeviation="9.43814" result="effect1_foregroundBlur_48_2"/>
</filter>
<filter id="filter3_f_48_2" x="66.299" y="247.797" width="53.3849" height="47.2411" filterUnits="userSpaceOnUse" color-interpolation-filters="sRGB">
<feFlood flood-opacity="0" result="BackgroundImageFix"/>
<feBlend mode="normal" in="SourceGraphic" in2="BackgroundImageFix" result="shape"/>
<feGaussianBlur stdDeviation="9.43814" result="effect1_foregroundBlur_48_2"/>
</filter>
<linearGradient id="paint0_linear_48_2" x1="21.4089" y1="112.5" x2="113.852" y2="194.469" gradientUnits="userSpaceOnUse">
<stop stop-color="#40DDFF"/>
<stop offset="1" stop-color="#0B98C5" stop-opacity="0.01"/>
</linearGradient>
<linearGradient id="paint1_linear_48_2" x1="-95" y1="74" x2="-44.95" y2="202.507" gradientUnits="userSpaceOnUse">
<stop stop-color="#40DDFF"/>
<stop offset="0.192353" stop-color="#14BAE3"/>
<stop offset="0.686424" stop-color="#13B1E6"/>
<stop offset="0.817657" stop-color="#11AADF"/>
<stop offset="1" stop-color="#0B98C5"/>
</linearGradient>
<linearGradient id="paint2_linear_48_2" x1="81.2328" y1="80.4041" x2="74.6983" y2="97.0173" gradientUnits="userSpaceOnUse">
<stop stop-color="#AAFFF7"/>
<stop offset="1" stop-color="white"/>
</linearGradient>
<linearGradient id="paint3_linear_48_2" x1="106.041" y1="192.742" x2="109.163" y2="186.538" gradientUnits="userSpaceOnUse">
<stop stop-color="#FF62B8" stop-opacity="0.01"/>
<stop offset="1" stop-color="#FE33D1"/>
</linearGradient>
<linearGradient id="paint4_linear_48_2" x1="85.8537" y1="176.574" x2="92.2383" y2="193.094" gradientUnits="userSpaceOnUse">
<stop stop-color="#A330FF" stop-opacity="0.01"/>
<stop offset="0.393247" stop-color="#BC3DCB"/>
<stop offset="1" stop-color="#E3507A"/>
</linearGradient>
<linearGradient id="paint5_linear_48_2" x1="93.8338" y1="278.655" x2="98.8076" y2="271.25" gradientUnits="userSpaceOnUse">
<stop stop-color="#62CBFF" stop-opacity="0.01"/>
<stop offset="1" stop-color="#339CFE"/>
</linearGradient>
<linearGradient id="paint6_linear_48_2" x1="84.7639" y1="268.22" x2="77.9691" y2="285.495" gradientUnits="userSpaceOnUse">
<stop stop-color="#309AFF"/>
<stop offset="0.287496" stop-color="#309AFF"/>
<stop offset="0.651175" stop-color="#5364AE"/>
<stop offset="1" stop-color="#70366B" stop-opacity="0.01"/>
</linearGradient>
<clipPath id="clip0_48_2">
<rect width="190" height="310" fill="white"/>
</clipPath>
</defs>
</svg>
